<svg width="12" height="12" viewBox="0 0 12 12" fill="none" xmlns="http://www.w3.org/2000/svg">
<path d="M5.99992 11.5417C5.2341 11.5417 4.51397 11.3963 3.83954 11.1054C3.16511 10.8145 2.57847 10.4197 2.07963 9.92106C1.58078 9.42241 1.18581 8.83601 0.894731 8.16187C0.603745 7.48774 0.458252 6.76746 0.458252 6.00106C0.458252 5.23456 0.603696 4.5141 0.894585 3.83967C1.18547 3.16523 1.58025 2.5786 2.0789 2.07975C2.57755 1.5809 3.16395 1.18594 3.83809 0.894853C4.51222 0.603867 5.23249 0.458374 5.9989 0.458374C6.7654 0.458374 7.48586 0.603867 8.16029 0.894853C8.83472 1.18574 9.42136 1.58056 9.92021 2.07931C10.4191 2.57806 10.814 3.16455 11.1051 3.83879C11.3961 4.51303 11.5416 5.23344 11.5416 6.00004V6.71127C11.5416 7.24376 11.3588 7.69584 10.9931 8.06752C10.6275 8.4392 10.1783 8.62504 9.64575 8.62504C9.30168 8.62504 8.9827 8.54089 8.68879 8.3726C8.39489 8.20431 8.16268 7.97283 7.99215 7.67814C7.74015 7.97885 7.44236 8.21185 7.09877 8.37712C6.75509 8.5424 6.38881 8.62504 5.99992 8.62504C5.27153 8.62504 4.65193 8.36964 4.14113 7.85883C3.63032 7.34803 3.37492 6.72843 3.37492 6.00004C3.37492 5.27165 3.63032 4.65205 4.14113 4.14125C4.65193 3.63044 5.27153 3.37504 5.99992 3.37504C6.72831 3.37504 7.3479 3.63044 7.85871 4.14125C8.36952 4.65205 8.62492 5.27165 8.62492 6.00004V6.71127C8.62492 6.99769 8.72345 7.24244 8.92052 7.44554C9.11759 7.64854 9.35933 7.75004 9.64575 7.75004C9.93217 7.75004 10.1739 7.64854 10.371 7.44554C10.5681 7.24244 10.6666 6.99769 10.6666 6.71127V6.00004C10.6666 4.69726 10.2145 3.59379 9.31034 2.68962C8.40617 1.78546 7.3027 1.33337 5.99992 1.33337C4.69714 1.33337 3.59367 1.78546 2.6895 2.68962C1.78534 3.59379 1.33325 4.69726 1.33325 6.00004C1.33325 7.30282 1.78534 8.40629 2.6895 9.31046C3.59367 10.2146 4.69714 10.6667 5.99992 10.6667H8.91658V11.5417H5.99992ZM5.99992 7.75004C6.48603 7.75004 6.89922 7.5799 7.2395 7.23962C7.57978 6.89935 7.74992 6.48615 7.74992 6.00004C7.74992 5.51393 7.57978 5.10074 7.2395 4.76046C6.89922 4.42018 6.48603 4.25004 5.99992 4.25004C5.51381 4.25004 5.10061 4.42018 4.76033 4.76046C4.42006 5.10074 4.24992 5.51393 4.24992 6.00004C4.24992 6.48615 4.42006 6.89935 4.76033 7.23962C5.10061 7.5799 5.51381 7.75004 5.99992 7.75004Z" fill="#022C22"/>
</svg>
