<svg width="25" height="24" viewBox="0 0 25 24" fill="none" xmlns="http://www.w3.org/2000/svg">
<g clip-path="url(#clip0_2035_2966)">
<path d="M1.3798 14.09L5.2498 18C5.34276 18.0938 5.45337 18.1681 5.57522 18.2189C5.69708 18.2697 5.82779 18.2958 5.9598 18.2958C6.09181 18.2958 6.22252 18.2697 6.34438 18.2189C6.46624 18.1681 6.57684 18.0938 6.6698 18C6.76353 17.9071 6.83792 17.7965 6.88869 17.6746C6.93946 17.5527 6.9656 17.422 6.9656 17.29C6.9656 17.158 6.93946 17.0273 6.88869 16.9054C6.83792 16.7836 6.76353 16.673 6.6698 16.58L3.1098 13H23.4998C23.765 13 24.0194 12.8947 24.2069 12.7071C24.3944 12.5196 24.4998 12.2652 24.4998 12C24.4998 11.7348 24.3944 11.4805 24.2069 11.2929C24.0194 11.1054 23.765 11 23.4998 11H3.0498L6.6698 7.38002C6.84709 7.19405 6.94599 6.94696 6.94599 6.69002C6.94599 6.43308 6.84709 6.186 6.6698 6.00002C6.57684 5.90629 6.46624 5.8319 6.34438 5.78113C6.22252 5.73036 6.09181 5.70422 5.9598 5.70422C5.82779 5.70422 5.69708 5.73036 5.57522 5.78113C5.45337 5.8319 5.34276 5.90629 5.2498 6.00002L1.3798 9.85002C0.818 10.4125 0.502441 11.175 0.502441 11.97C0.502441 12.765 0.818 13.5275 1.3798 14.09Z" fill="black"/>
</g>
<defs>
<clipPath id="clip0_2035_2966">
<rect width="24" height="24" fill="white" transform="translate(0.5)"/>
</clipPath>
</defs>
</svg>
