<svg width="36" height="18" viewBox="0 0 36 18" fill="none" xmlns="http://www.w3.org/2000/svg">
<path d="M25.056 5.1162C25.1326 5.15678 25.2274 5.17461 25.2829 5.24158C25.6777 5.71776 25.8594 6.33032 25.9658 6.97561C26.1166 7.89007 26.1085 8.8164 25.8762 9.70088C25.6196 10.6782 25.1064 11.3955 24.2597 11.6815C23.6676 11.8815 23.0643 11.9002 22.4585 11.8767C22.2575 11.8688 22.205 11.956 22.2061 12.193C22.2091 12.8948 22.1894 13.5966 22.1855 14.2985C22.1841 14.54 22.1927 14.7833 22.2161 15.0229C22.2373 15.2394 22.3087 15.4127 22.5149 15.469C22.7374 15.5296 22.7786 15.6572 22.7409 16.0135C22.7163 16.2464 22.5744 16.2492 22.4357 16.2495C21.6321 16.2515 20.8286 16.2498 20.0251 16.2512C19.8914 16.2514 19.7642 16.2275 19.7644 16.0246C19.7645 15.8341 19.6814 15.5964 19.935 15.5146C20.2055 15.4273 20.2473 15.3413 20.2476 14.9743C20.2488 13.3931 20.2435 11.8119 20.2506 10.2308C20.2574 8.6927 20.2748 7.15471 20.2914 5.61675C20.2947 5.31281 20.2359 5.08945 19.9675 4.97988C19.7568 4.8939 19.8411 4.63684 19.8545 4.4533C19.8588 4.39395 19.99 4.30417 20.0636 4.30355C21.1463 4.2944 22.2294 4.27735 23.3116 4.30686C23.8872 4.32255 24.4369 4.52636 24.9355 4.89697C24.9874 4.93554 25.0179 5.01767 25.0439 5.09149C24.4794 4.61963 23.8471 4.48121 23.175 4.43714C22.6535 4.43074 22.1479 4.43064 21.6276 4.42497C21.5928 4.42216 21.5726 4.42494 21.5361 4.42155C21.452 4.41912 21.3841 4.42284 21.3015 4.42201C21.2665 4.42008 21.2464 4.42271 21.211 4.41948C21.1539 4.41693 21.1119 4.42024 21.0515 4.41921C20.9209 4.41685 20.8088 4.41882 20.6872 4.4167C20.6778 4.41259 20.6587 4.41968 20.6448 4.41554C20.612 4.41365 20.5931 4.41589 20.5573 4.41318C20.4709 4.41088 20.4015 4.41352 20.3152 4.41249C20.1745 4.40881 20.0508 4.40881 19.932 4.40881C19.932 4.57838 19.932 4.72427 19.932 4.85158C20.0426 4.91268 20.1388 4.96578 20.2416 5.03438C20.4085 5.26778 20.4096 5.53638 20.4074 5.80567C20.3827 8.84964 20.3571 11.8936 20.3335 14.9376C20.3295 15.4597 20.2795 15.5467 19.8765 15.6807C19.8765 15.8296 19.8765 15.9765 19.8765 16.1325C20.3763 16.1325 20.8646 16.1325 21.3704 16.1371C21.4707 16.1383 21.5537 16.1349 21.6557 16.1348C21.9085 16.1347 22.1422 16.1313 22.3913 16.1322C22.4481 16.1299 22.4894 16.1232 22.5475 16.1186C22.5913 15.9745 22.6184 15.8283 22.644 15.6902C22.5233 15.6264 22.4343 15.5793 22.3394 15.521C22.3151 15.4958 22.2967 15.4818 22.2717 15.4573C22.2454 15.4212 22.2256 15.3957 22.2007 15.3517C22.1592 15.1534 22.1228 14.9735 22.0896 14.7704C22.0919 14.4799 22.091 14.2126 22.0953 13.9254C22.1 13.3507 22.0994 12.7958 22.1028 12.2184C22.104 12.0885 22.1012 11.9812 22.1029 11.8579C22.1085 11.8191 22.1095 11.7964 22.1171 11.7711C22.1236 11.7684 22.1295 11.7533 22.1484 11.7559C22.4756 11.752 22.784 11.7453 23.103 11.7431C23.1359 11.7442 23.1581 11.7408 23.1871 11.7425C23.2084 11.7428 23.223 11.7381 23.256 11.7357C23.464 11.717 23.6557 11.7111 23.8429 11.6721C24.4482 11.546 24.9985 11.289 25.3812 10.6281C25.4917 10.4006 25.611 10.1927 25.6866 9.9631C26.0031 9.002 26.0052 8.0064 25.8653 7.00219C25.7629 6.26715 25.5358 5.6088 25.056 5.1162Z" fill="#E5B92E"/>
<path d="M19.4315 4.39563C19.5526 4.56841 19.558 4.81544 19.4142 4.90361C19.0165 5.14747 18.9072 5.61398 18.8244 6.07198C18.4883 7.92956 18.1715 9.79243 17.8532 11.6548C17.6312 12.9536 17.4175 14.2545 17.2026 15.555C17.1756 15.7181 17.1592 15.8844 17.1455 16.0501C17.1334 16.1969 17.0692 16.251 16.9556 16.2506C16.4381 16.2488 15.9207 16.2471 15.4033 16.2516C15.2534 16.2529 15.2017 16.1383 15.1715 15.9919C15.0777 15.5388 14.9896 15.0838 14.8937 14.6314C14.6729 13.5889 14.4494 12.5473 14.2257 11.5058C14.1164 10.997 14.0045 10.489 13.8925 9.98114C13.8843 9.94391 13.8652 9.91028 13.8329 9.82892C13.7791 10.1048 13.7344 10.3344 13.6895 10.5639C13.3428 12.334 12.9966 14.1043 12.6472 15.8737C12.629 15.9663 12.5827 16.0506 12.5331 16.1412C12.5166 16.1437 12.5112 16.137 12.5147 16.1177C12.7832 14.7408 13.046 13.3826 13.314 12.0259C13.4855 11.1578 13.6646 10.292 13.8458 9.428C13.8513 9.43078 13.8623 9.42526 13.8666 9.44363C14.2126 11.031 14.5549 12.5997 14.8954 14.1691C15.0348 14.812 15.1702 15.4562 15.3093 16.11C15.3112 16.1201 15.3244 16.1332 15.3244 16.1332C15.3244 16.1332 15.3411 16.1306 15.3574 16.1357C15.4181 16.1374 15.4626 16.1341 15.5229 16.1354C15.5817 16.137 15.6248 16.1338 15.6868 16.1342C16.1164 16.1359 16.5268 16.1339 16.9471 16.136C16.9637 16.139 16.9705 16.1378 16.994 16.139C17.0273 16.1101 17.0546 16.0809 17.0589 16.0472C17.0959 15.7588 17.1168 15.4665 17.1649 15.1811C17.5564 12.8579 17.9493 10.5351 18.3495 8.21419C18.4959 7.36514 18.6473 6.51635 18.8282 5.67778C18.9133 5.28337 19.0756 4.91544 19.4245 4.7754C19.4245 4.63894 19.4245 4.52214 19.4263 4.40296C19.4281 4.40057 19.4315 4.39563 19.4315 4.39563Z" fill="#E5B92E"/>
<path d="M13.5835 4.39864C13.646 4.36488 13.7078 4.30429 13.7711 4.30197C14.0568 4.29149 14.3429 4.30203 14.6287 4.29598C14.8184 4.29196 14.9019 4.39701 14.9439 4.62606C15.2877 6.49905 15.6381 8.37021 15.9929 10.2401C16.084 10.72 16.1969 11.1937 16.3022 11.6694C16.3227 11.7622 16.3543 11.8513 16.4303 11.9416C16.5011 11.5649 16.5775 11.1896 16.6417 10.8112C16.7763 10.0187 16.9088 9.22558 17.0341 8.43077C17.1799 7.50528 17.3208 6.57855 17.4555 5.65052C17.4942 5.38378 17.5056 5.12112 17.2591 4.95397C17.091 4.83994 17.1141 4.60964 17.1641 4.43657C17.1861 4.3604 17.3392 4.30471 17.4337 4.30282C18.0258 4.291 18.6181 4.29492 19.2103 4.29982C19.2798 4.3004 19.349 4.33888 19.4249 4.37768C19.4314 4.39558 19.428 4.40052 19.4075 4.40131C18.6767 4.40211 17.9665 4.40211 17.2515 4.40211C17.2314 4.6566 17.201 4.89155 17.4581 4.96325C17.4596 4.9593 17.4529 4.95638 17.4576 4.97111C17.4763 4.99712 17.4903 5.00841 17.5027 5.01567C17.5011 5.01163 17.4948 5.01621 17.5012 5.0331C17.527 5.20238 17.5815 5.36248 17.5606 5.50597C17.3532 6.92737 17.1428 8.34835 16.9135 9.76459C16.7718 10.6391 16.5958 11.5053 16.436 12.3767C16.4367 12.3781 16.4355 12.3746 16.4204 12.3789C16.3825 12.3383 16.3484 12.297 16.3384 12.2481C15.9381 10.2877 15.5362 8.3277 15.1439 6.36482C15.0164 5.72692 14.9148 5.08122 14.7942 4.39864C14.3984 4.39864 13.9909 4.39864 13.5835 4.39864Z" fill="#E5B92E"/>
<path d="M31.0004 1.73451C31.0122 1.81249 31.0422 1.89424 31.0321 1.96771C31.0085 2.13998 30.9653 2.30817 30.9314 2.47843C30.9286 2.49242 30.9365 2.5096 30.9446 2.55356C31.0757 2.38465 31.1976 2.22593 31.3211 2.06911C31.5853 1.73354 31.9005 1.65717 32.257 1.7944C32.5285 1.89891 32.5981 2.09538 32.4487 2.38816C32.03 3.20913 31.6036 4.02418 31.182 4.84297C31.0855 5.03038 30.9564 5.1065 30.7727 5.10366C30.1532 5.09408 29.5334 5.09684 28.9138 5.10319C28.7241 5.10513 28.5342 5.12834 28.3453 5.15186C28.1815 5.17224 28.0716 5.08124 27.988 4.92239C27.556 4.10209 27.1235 3.28225 26.6933 2.46062C26.582 2.2481 26.6077 2.13862 26.7859 2.0146C27.2588 1.6856 27.9112 1.9201 28.2638 2.54829C28.3329 2.67132 28.3945 2.80065 28.4596 2.92708C28.4792 2.92296 28.4989 2.91885 28.5186 2.91473C28.4934 2.63589 28.4563 2.35766 28.4468 2.078C28.4391 1.85236 28.4647 1.625 28.4914 1.39198C28.5073 1.38556 28.5102 1.38928 28.5074 1.41189C28.5083 1.57635 28.5026 1.71964 28.517 1.8598C28.5783 2.45525 28.6455 3.04977 28.7008 3.64385C28.6911 3.64307 28.6716 3.6418 28.6647 3.62638C28.4868 3.25209 28.3238 2.88706 28.1425 2.53627C27.9935 2.24801 27.7625 2.08345 27.4944 2.01339C27.1986 1.93608 26.916 1.95517 26.6872 2.27313C27.1625 3.16569 27.6326 4.05349 28.1107 4.93471C28.1418 4.99207 28.235 5.02619 28.2987 5.02505C29.1553 5.00974 30.0118 4.98847 30.8682 4.96047C30.937 4.95822 31.0322 4.91927 31.0677 4.85673C31.2228 4.58366 31.3603 4.29558 31.5148 4.00195C31.8467 3.36849 32.1681 2.74603 32.4861 2.13011C32.2127 1.79834 31.8251 1.74542 31.5411 1.99194C31.182 2.30364 30.9332 2.72131 30.7742 3.23769C30.7356 3.25862 30.7073 3.27122 30.6833 3.26646C30.7881 2.74922 30.8885 2.24934 30.9918 1.74575C30.9947 1.74203 31.0004 1.73451 31.0004 1.73451Z" fill="#E5B92E"/>
<path d="M7.98742 15.0977C7.8249 15.2932 7.68534 15.5359 7.49554 15.6755C6.92793 16.0929 6.29043 16.2379 5.63772 16.2459C4.46009 16.2602 3.28226 16.2509 2.10452 16.2496C1.97234 16.2494 1.81955 16.2894 1.77575 16.0566C1.7248 15.7857 1.78787 15.6457 1.97541 15.5249C2.04382 15.4808 2.11417 15.3768 2.12956 15.2862C2.16397 15.0837 2.17662 14.8725 2.17684 14.6648C2.17996 11.6371 2.17752 8.60938 2.18343 5.58169C2.18397 5.304 2.11962 5.12279 1.89945 5.01978C1.74499 4.94751 1.72073 4.67973 1.84209 4.40945C1.86015 4.40631 1.86725 4.41494 1.86868 4.43307C1.89043 4.68391 1.81394 4.983 2.1346 5.03047C2.18214 5.128 2.24218 5.20548 2.25641 5.29407C2.28449 5.46898 2.28719 5.65004 2.29497 5.84966C2.27923 8.88938 2.26642 11.908 2.26174 14.9266C2.26116 15.3017 2.22643 15.6175 1.87011 15.6747C1.87011 15.8372 1.87011 15.9749 1.87011 16.1412C2.69185 16.1412 3.50072 16.1473 4.3095 16.1391C4.85344 16.1335 5.39723 16.1076 5.95786 16.0933C6.01905 16.0886 6.06347 16.0813 6.11922 16.0771C6.14433 16.0725 6.1581 16.0648 6.18811 16.0608C6.88048 15.9749 7.48628 15.701 7.96033 15.0681C7.97537 15.0845 7.98139 15.0911 7.98742 15.0977Z" fill="#E5B92E"/>
<path d="M13.5779 4.40254C13.9912 4.39856 14.3987 4.39856 14.7945 4.39856C14.9151 5.08115 15.0167 5.72685 15.1442 6.36474C15.5365 8.32762 15.9384 10.2876 16.3387 12.2481C16.3487 12.2969 16.3828 12.3383 16.4188 12.395C16.2743 12.5617 16.2823 12.3494 16.2652 12.2749C16.0795 11.463 15.889 10.6521 15.7257 9.83316C15.4171 8.28432 15.1256 6.73031 14.8266 5.17856C14.7871 4.97395 14.7966 4.67689 14.6915 4.58963C14.5635 4.48334 14.3383 4.54963 14.1551 4.54868C13.6959 4.5463 13.7002 4.5491 13.6035 5.10525C13.3962 6.29683 13.2052 7.49349 12.9682 8.67618C12.7199 9.91508 12.427 11.1405 12.1482 12.37C12.131 12.4458 12.0672 12.5057 12.0269 12.5536C12.1354 12.0953 12.2499 11.659 12.3476 11.2171C12.8446 8.97061 13.3241 6.71919 13.559 4.40229C13.559 4.40229 13.572 4.40652 13.5779 4.40254Z" fill="#E5B92E"/>
<path d="M13.5468 4.41406C13.3243 6.71922 12.8447 8.97064 12.3478 11.2171C12.25 11.659 12.1356 12.0954 12.0284 12.5541C12.028 12.5739 12.0257 12.5718 12.0141 12.5738C11.9871 12.5743 11.9717 12.5728 11.9559 12.5738C11.9557 12.5764 11.9599 12.5765 11.957 12.5566C11.7559 11.2899 11.5544 10.044 11.3605 8.79631C11.1934 7.72081 11.0312 6.64409 10.8749 5.56612C10.8273 5.23753 10.9192 5.05999 11.1639 4.93862C11.1676 4.94306 11.1751 4.95188 11.1751 4.95188C10.8656 5.2669 10.9641 5.67323 11.0235 6.05885C11.295 7.82181 11.5745 9.5829 11.8508 11.3448C11.8914 11.6038 11.9298 11.8634 11.9692 12.1228C11.9865 12.1269 12.0038 12.131 12.0211 12.1351C12.0584 12.0001 12.104 11.8676 12.1317 11.7296C12.4706 10.0441 12.8145 8.35989 13.1403 6.67047C13.2717 5.98921 13.3612 5.2958 13.4726 4.6086C13.4829 4.54514 13.5134 4.48662 13.5468 4.41406Z" fill="#E5B92E"/>
<path d="M33.6086 15.4693C33.5231 15.6006 33.4552 15.7611 33.349 15.8585C32.7621 16.3963 32.085 16.6836 31.3691 16.7877C30.6962 16.8856 30.0149 16.9501 29.3382 16.9405C28.5377 16.9292 27.7325 16.8483 26.9662 16.5258C26.1171 16.1685 25.3902 15.5897 24.9873 14.563C24.7488 13.9551 24.6648 13.291 24.7296 12.6105C24.7489 12.4073 24.7763 12.2052 24.8215 12.0017C24.8491 12.0083 24.8551 12.0158 24.8558 12.0432C24.8382 12.3887 24.8148 12.7143 24.8157 13.0398C24.8192 14.2412 25.223 15.1828 26.0416 15.8513C26.6206 16.3242 27.2637 16.5608 27.9468 16.6768C29.2037 16.8903 30.4569 16.9183 31.7041 16.5969C32.3343 16.4345 32.9342 16.1754 33.4456 15.6377C33.5083 15.5761 33.5585 15.5227 33.6086 15.4693Z" fill="#E5B92E"/>
<path d="M31.4883 5.5592C31.4918 5.74666 31.4953 5.93413 31.4747 6.13671C30.1992 6.14872 28.9476 6.14561 27.696 6.1425C27.696 6.1425 27.6957 6.14665 27.6938 6.12451C27.6951 5.92326 27.6983 5.74416 27.7015 5.56506C27.7015 5.56506 27.6983 5.56467 27.7166 5.56223C28.986 5.5596 30.2372 5.5594 31.4883 5.5592ZM30.1209 5.7029C29.4206 5.70294 28.7203 5.70633 28.0201 5.70058C27.8537 5.69921 27.7763 5.76286 27.8207 5.97939C27.8429 5.98782 27.8618 6.00128 27.8808 6.00131C29.0025 6.00308 30.1243 6.00564 31.2461 5.99856C31.299 5.99823 31.3515 5.91122 31.4042 5.86458C31.3504 5.81089 31.2977 5.71289 31.2426 5.71072C30.8826 5.69654 30.5221 5.70313 30.1209 5.7029Z" fill="#E5B92E"/>
<path d="M24.834 11.9895C25.0369 11.8006 25.2446 11.6147 25.4614 11.4466C26.1966 10.8768 26.4495 10.0004 26.5027 8.99592C26.5204 8.66285 26.5225 8.32827 26.5479 7.99625C26.5552 7.90092 26.6 7.78233 26.6597 7.7252C27.0084 7.39178 27.3635 7.06813 27.7243 6.75459C27.7959 6.69229 27.9011 6.66199 27.991 6.66146C29.0537 6.65517 30.117 6.63717 31.179 6.67314C31.411 6.681 31.6596 6.8496 31.8639 7.01318C32.4153 7.45449 32.8798 8.01859 33.2644 8.67666C33.3264 8.78278 33.3632 8.9112 33.4086 9.05204C33.4056 9.07475 33.3981 9.08313 33.3874 9.07252C32.8812 8.14033 32.2699 7.37074 31.4584 6.86697C31.382 6.81955 31.2935 6.77467 31.2105 6.77441C30.1213 6.77092 29.0321 6.77504 27.9429 6.78039C27.8919 6.78064 27.8316 6.79413 27.7913 6.82888C27.5192 7.06353 27.2514 7.30558 26.9692 7.55166C26.6945 7.73577 26.5652 7.98793 26.6237 8.37106C26.6458 8.51572 26.6294 8.67127 26.6199 8.82086C26.5617 9.74507 26.4143 10.6254 25.791 11.2734C25.768 11.2848 25.7596 11.2973 25.7429 11.3205C25.4403 11.5586 25.1507 11.7909 24.8611 12.0231C24.855 12.0157 24.849 12.0082 24.834 11.9895Z" fill="#E5B92E"/>
<path d="M10.8443 16.1523C10.7783 16.0269 10.6777 15.9111 10.6522 15.7743C10.5419 15.1803 10.4532 14.5802 10.3571 13.9821C10.1504 12.6962 9.95161 11.4083 9.73546 10.1248C9.52907 8.89914 9.31449 7.67527 9.08256 6.45664C9.01049 6.07792 8.87716 5.71529 8.75707 5.35269C8.71494 5.22548 8.63947 5.10705 8.55981 5.00823C8.41802 4.83232 8.38935 4.65491 8.50628 4.40717C8.52252 4.40286 8.52519 4.40907 8.52443 4.43052C8.5088 4.68225 8.59821 4.84454 8.6953 5.04184C8.8965 5.45071 9.06422 5.90384 9.1626 6.3655C9.34667 7.22933 9.47497 8.11135 9.62043 8.98731C9.95088 10.9772 10.2751 12.9687 10.6081 14.958C10.6748 15.3565 10.7693 15.748 10.8493 16.1452C10.8476 16.1475 10.8443 16.1523 10.8443 16.1523Z" fill="#E5B92E"/>
<path d="M7.37337 5.19861C7.44212 5.24523 7.53101 5.27191 7.57661 5.34144C8.27897 6.41237 8.35668 7.60244 7.98296 8.8569C7.83181 9.36428 7.48218 9.67896 7.14017 9.98758C7.10294 10.0212 7.06445 10.0527 6.9884 10.1178C7.19644 10.2182 7.37646 10.2958 7.54936 10.3926C7.63192 10.4388 7.70096 10.5215 7.77552 10.6104C7.77493 10.6331 7.76697 10.6445 7.75335 10.6384C7.43378 10.4947 7.12741 10.3584 6.82233 10.2178C6.7784 10.1976 6.74072 10.1569 6.70703 10.1141C6.71686 10.0936 6.7198 10.0848 6.72089 10.0758C6.71904 10.0757 6.71898 10.0803 6.73488 10.0792C6.92091 9.96397 7.09105 9.84987 7.25677 9.7333C7.25235 9.73083 7.26028 9.73771 7.27293 9.73116C7.37457 9.62398 7.46356 9.52334 7.55961 9.42106C7.57571 9.4122 7.57951 9.40201 7.58995 9.37971C7.65245 9.29112 7.70304 9.21169 7.75184 9.13071C7.75004 9.12915 7.75102 9.13442 7.7624 9.12382C7.93404 8.79385 8.05256 8.45907 8.04295 8.06117C8.16953 6.97816 8.03518 5.99739 7.36292 5.21307C7.3664 5.20824 7.37337 5.19861 7.37337 5.19861Z" fill="#E5B92E"/>
<path d="M1.85645 4.4019C1.91544 4.36399 1.97781 4.30165 2.04045 4.30123C2.93863 4.29527 3.83773 4.2681 4.73476 4.3084C5.33522 4.33537 5.93651 4.43306 6.53009 4.55362C6.85612 4.61983 7.16048 4.81209 7.37023 5.18185C7.37321 5.19864 7.36624 5.20827 7.35028 5.20577C6.98262 4.81752 6.56242 4.57458 6.10247 4.55169C4.69147 4.48149 3.27896 4.4571 1.86704 4.4149C1.86704 4.4149 1.85995 4.40627 1.85645 4.4019Z" fill="#E5B92E"/>
<path d="M33.4092 9.07056C33.5555 9.32112 33.7461 9.55391 33.8315 9.83492C34.0493 10.5515 34.2673 11.2771 34.3983 12.0222C34.5774 13.0412 34.5022 14.0513 34.0314 14.9612C33.9376 15.1426 33.7878 15.2802 33.6554 15.4229C33.7088 15.3085 33.7704 15.2091 33.8434 15.1001C33.9572 14.866 34.0766 14.6506 34.159 14.4155C34.4502 13.5842 34.4139 12.7219 34.2867 11.8573C34.1401 10.861 33.8209 9.94657 33.3979 9.08312C33.3979 9.08312 33.4054 9.07474 33.4092 9.07056Z" fill="#E5B92E"/>
<path d="M7.77905 10.6274C8.09987 10.6919 8.23321 11.0133 8.3548 11.3111C8.45615 11.5593 8.53061 11.8467 8.5438 12.122C8.57201 12.7107 8.58785 13.3069 8.54193 13.8921C8.50556 14.3556 8.27359 14.7408 7.9988 15.0883C7.98147 15.0911 7.97545 15.0846 7.96656 15.0529C8.19868 14.6279 8.45604 14.2331 8.47195 13.7145C8.48755 13.2065 8.48718 12.6953 8.45998 12.1883C8.42576 11.5503 8.20894 11.0162 7.76709 10.6445C7.76709 10.6445 7.77505 10.6331 7.77905 10.6274Z" fill="#E5B92E"/>
<path d="M27.6992 6.16189C28.9472 6.14551 30.1988 6.14862 31.4694 6.15253C31.4268 6.18759 31.3654 6.2514 31.3038 6.25173C30.1634 6.25769 29.023 6.25721 27.8827 6.25289C27.8227 6.25266 27.7628 6.20628 27.6992 6.16189Z" fill="#E5B92E"/>
<path d="M31.4829 5.54036C30.2367 5.55944 28.9856 5.55964 27.7163 5.56427C27.7554 5.52988 27.8126 5.4575 27.87 5.45717C29.0182 5.45051 30.1665 5.4512 31.3148 5.45505C31.3692 5.45524 31.4236 5.49836 31.4829 5.54036Z" fill="#E5B92E"/>
<path d="M28.5059 1.38355C28.5573 1.33739 28.6082 1.25895 28.6633 1.25411C29.442 1.18568 30.2006 1.31561 30.938 1.6298C30.96 1.63916 30.974 1.67652 30.9961 1.71763C31.0003 1.73444 30.9946 1.74196 30.9765 1.74163C30.1611 1.42697 29.3469 1.28977 28.5101 1.38921C28.5101 1.38921 28.5072 1.38548 28.5059 1.38355Z" fill="#E5B92E"/>
<path d="M8.521 4.3999C8.57467 4.36366 8.62976 4.30181 8.68517 4.30137C9.46116 4.29519 10.2372 4.2963 11.0132 4.30013C11.0625 4.30037 11.1116 4.33763 11.1665 4.37697C11.1721 4.39626 11.1711 4.40022 11.1521 4.40045C10.2638 4.40347 9.3945 4.40626 8.52524 4.40906C8.52524 4.40906 8.52256 4.40284 8.521 4.3999Z" fill="#E5B92E"/>
<path d="M12.5196 16.1472C12.4738 16.1837 12.4256 16.2447 12.3769 16.2454C11.9123 16.2526 11.4476 16.2512 10.983 16.2469C10.9412 16.2465 10.8997 16.2085 10.8513 16.1702C10.8446 16.1523 10.8478 16.1475 10.8684 16.1448C11.4297 16.1404 11.9706 16.1387 12.5115 16.137C12.5115 16.137 12.5169 16.1437 12.5196 16.1472Z" fill="#E5B92E"/>
<path d="M33.8321 15.1097C33.7705 15.2091 33.7088 15.3085 33.6401 15.4231C33.6236 15.4388 33.6165 15.444 33.61 15.4615C33.5583 15.5226 33.5081 15.576 33.4386 15.6233C33.4143 15.6077 33.4095 15.5984 33.4097 15.5735C33.5489 15.4026 33.6831 15.2472 33.821 15.0963C33.8247 15.1008 33.8321 15.1097 33.8321 15.1097Z" fill="#E5B92E"/>
<path d="M11.1731 4.39465C11.3027 4.57345 11.3144 4.79526 11.189 4.94721C11.1747 4.9519 11.1672 4.94307 11.17 4.91794C11.1722 4.72859 11.1716 4.56438 11.1711 4.40017C11.1711 4.40017 11.172 4.39621 11.1731 4.39465Z" fill="#E5B92E"/>
<path d="M27.6852 5.56824C27.698 5.74412 27.6948 5.92323 27.6952 6.1243C27.5786 6.01997 27.566 5.77504 27.6852 5.56824Z" fill="#E5B92E"/>
<path d="M22.3759 16.1278C22.1422 16.1312 21.9084 16.1346 21.6427 16.1263C21.5248 16.1205 21.4389 16.1264 21.3529 16.1324C20.8646 16.1324 20.3763 16.1324 19.8765 16.1324C19.8765 15.9764 19.8765 15.8295 19.8765 15.6806C20.2795 15.5466 20.3295 15.4596 20.3335 14.9375C20.3571 11.8935 20.3827 8.84954 20.4074 5.80556C20.4096 5.53627 20.4085 5.26768 20.2455 5.02905C20.2426 5.00833 20.2503 4.9979 20.2644 5.00122C20.4764 5.14002 20.4943 5.37768 20.4924 5.61316C20.4835 6.67499 20.4644 7.73669 20.4558 8.79852C20.4392 10.8541 20.4272 12.9097 20.4133 14.9653C20.4127 15.049 20.4188 15.1339 20.4096 15.2162C20.3851 15.4356 20.3037 15.6145 20.1346 15.7115C20.0499 15.76 19.922 15.7792 19.9783 15.9348C20.0014 15.9987 20.1178 16.0419 20.1921 16.0428C20.8378 16.0508 21.4836 16.0507 22.1293 16.044C22.2696 16.0426 22.4097 16.0049 22.5543 15.9833C22.561 15.841 22.6033 15.7116 22.4398 15.6846C22.3998 15.678 22.3682 15.5956 22.3358 15.5441C22.3389 15.5401 22.3452 15.5322 22.3452 15.5322C22.4342 15.5792 22.5232 15.6263 22.644 15.6901C22.6184 15.8282 22.5913 15.9744 22.5368 16.113C22.4649 16.1129 22.4204 16.1204 22.3759 16.1278Z" fill="#E5B92E"/>
<path d="M25.0578 5.1123C25.5357 5.60871 25.7629 6.26707 25.8653 7.00211C26.0051 8.00631 26.0031 9.00192 25.6865 9.96301C25.6109 10.1926 25.4916 10.4005 25.378 10.6246C25.3636 10.6309 25.3574 10.6241 25.3573 10.6055C25.4665 10.2827 25.5939 9.98616 25.6817 9.6729C25.9183 8.82925 25.8976 7.95749 25.789 7.09508C25.6835 6.25752 25.4445 5.48424 24.792 5.04174C24.3213 4.7225 23.8118 4.55329 23.2624 4.53732C23.2333 4.49901 23.2121 4.47118 23.1909 4.44336C23.8471 4.48113 24.4793 4.61955 25.0422 5.10925C25.0549 5.11519 25.0596 5.10847 25.0578 5.1123Z" fill="#E5B92E"/>
<path d="M23.1801 11.7374C23.1579 11.7408 23.1357 11.7441 23.0819 11.7392C22.7434 11.7383 22.4363 11.7458 22.1293 11.7532C22.1293 11.7532 22.1234 11.7684 22.1111 11.7714C22.0989 11.7744 22.0889 11.7813 22.0884 11.7809C22.0879 11.7804 22.087 11.7794 22.09 11.7599C22.1597 11.7041 22.2258 11.6383 22.2932 11.6363C22.6676 11.6252 23.0435 11.6518 23.4167 11.6232C23.9788 11.5802 24.5249 11.4474 24.9835 10.9996C25.1095 10.8766 25.2328 10.7494 25.3573 10.6241C25.3573 10.6241 25.3634 10.631 25.3665 10.6344C24.9983 11.2889 24.448 11.546 23.8427 11.672C23.6555 11.711 23.4638 11.7169 23.2413 11.7343C23.199 11.7329 23.1896 11.7352 23.1801 11.7374Z" fill="#E5B92E"/>
<path d="M22.0982 11.8739C22.101 11.9811 22.1039 12.0884 22.0976 12.2372C22.0889 12.8342 22.0894 13.3897 22.09 13.9452C22.0909 14.2125 22.0917 14.4798 22.0764 14.7705C22.0427 14.7937 22.0252 14.7936 22.0073 14.77C22.0071 13.8519 22.0051 12.9573 22.0112 12.0627C22.0118 11.968 22.0606 11.8738 22.0871 11.7794C22.0871 11.7794 22.088 11.7804 22.0866 11.7927C22.0896 11.8279 22.0939 11.8509 22.0982 11.8739Z" fill="#E5B92E"/>
<path d="M20.5739 4.41813C20.5928 4.41589 20.6117 4.41365 20.6484 4.42052C20.6663 4.42964 20.6826 4.43195 20.6826 4.43195L20.6963 4.4208C20.8085 4.41883 20.9206 4.41685 21.0614 4.42625C21.1353 4.43354 21.1806 4.42944 21.2259 4.42534C21.246 4.42271 21.2662 4.42008 21.3134 4.42868C21.411 4.43585 21.4816 4.43178 21.5521 4.42771C21.5723 4.42494 21.5925 4.42216 21.6328 4.43333C21.6645 4.46321 21.6761 4.47915 21.6689 4.49687C21.4539 4.51064 21.2576 4.53325 21.0615 4.53218C20.7558 4.53051 20.4502 4.50792 20.1446 4.50712C20.0996 4.507 20.0259 4.57 20.0171 4.61803C20.0074 4.67092 20.0492 4.74853 20.0835 4.80044C20.1318 4.8735 20.1938 4.93281 20.25 4.998C20.25 4.998 20.2423 5.00843 20.2385 5.01366C20.1384 4.96578 20.0423 4.91268 19.9316 4.85158C19.9316 4.72427 19.9316 4.57838 19.9316 4.40881C20.0505 4.40881 20.1742 4.40881 20.3271 4.42066C20.4288 4.42771 20.5014 4.42292 20.5739 4.41813Z" fill="#E5B92E"/>
<path d="M21.6877 4.49508C21.6761 4.47914 21.6645 4.4632 21.6475 4.4389C22.1476 4.43063 22.6532 4.43073 23.1747 4.43712C23.2119 4.47125 23.233 4.49908 23.2457 4.53741C23.1819 4.54787 23.1266 4.54782 23.0652 4.53088C22.9463 4.43861 22.8359 4.39664 22.72 4.54788C22.3633 4.53027 22.0255 4.51268 21.6877 4.49508Z" fill="#E5B92E"/>
<path d="M22.0951 13.9254C22.0893 13.3897 22.0888 12.8342 22.0935 12.2598C22.0992 12.7958 22.0998 13.3507 22.0951 13.9254Z" fill="#E5B92E"/>
<path d="M22.0078 14.7936C22.0253 14.7937 22.0428 14.7938 22.0734 14.7938C22.1228 14.9735 22.1592 15.1534 22.1904 15.3591C22.1786 15.3903 22.172 15.3957 22.1554 15.3883C22.0996 15.1815 22.0537 14.9875 22.0078 14.7936Z" fill="#E5B92E"/>
<path d="M22.1484 11.7559C22.4366 11.7458 22.7436 11.7384 23.0715 11.7347C22.784 11.7452 22.4757 11.7519 22.1484 11.7559Z" fill="#E5B92E"/>
<path d="M21.3701 16.1371C21.4386 16.1265 21.5245 16.1206 21.6234 16.123C21.5534 16.1348 21.4705 16.1383 21.3701 16.1371Z" fill="#E5B92E"/>
<path d="M21.5362 4.4215C21.482 4.43172 21.4114 4.43579 21.3286 4.43318C21.3842 4.42278 21.452 4.41906 21.5362 4.4215Z" fill="#E5B92E"/>
<path d="M20.5572 4.41312C20.5016 4.42286 20.429 4.42765 20.3442 4.42427C20.4014 4.41346 20.4708 4.41082 20.5572 4.41312Z" fill="#E5B92E"/>
<path d="M21.211 4.4194C21.1809 4.42935 21.1356 4.43345 21.0801 4.43051C21.1119 4.42016 21.1539 4.41685 21.211 4.4194Z" fill="#E5B92E"/>
<path d="M22.3911 16.1322C22.4202 16.1205 22.4647 16.113 22.5199 16.1111C22.4892 16.1232 22.4479 16.1299 22.3911 16.1322Z" fill="#E5B92E"/>
<path d="M22.1957 15.3774C22.2258 15.3956 22.2455 15.4212 22.2641 15.4654C22.263 15.484 22.2484 15.5014 22.2383 15.494C22.2073 15.4581 22.1864 15.4296 22.1655 15.4011C22.1721 15.3957 22.1787 15.3902 22.1957 15.3774Z" fill="#E5B92E"/>
<path d="M22.1026 11.8578C22.0937 11.8509 22.0893 11.828 22.0869 11.7932C22.0888 11.7814 22.0988 11.7744 22.1045 11.774C22.1092 11.7964 22.1082 11.8191 22.1026 11.8578Z" fill="#E5B92E"/>
<path d="M22.2704 15.476C22.2965 15.4818 22.3149 15.4958 22.3392 15.521C22.345 15.5323 22.3387 15.5402 22.3237 15.5427C22.2885 15.5306 22.2683 15.516 22.248 15.5015C22.248 15.5015 22.2627 15.4841 22.2704 15.476Z" fill="#E5B92E"/>
<path d="M23.187 11.7425C23.1897 11.7352 23.1992 11.733 23.2231 11.7321C23.223 11.7381 23.2084 11.7428 23.187 11.7425Z" fill="#E5B92E"/>
<path d="M20.6872 4.41663C20.6966 4.42074 20.6829 4.43189 20.6829 4.43189C20.6829 4.43189 20.6666 4.42958 20.6626 4.4246C20.6587 4.41962 20.6778 4.41253 20.6872 4.41663Z" fill="#E5B92E"/>
<path d="M12.0265 12.5734C12.0673 12.5057 12.1311 12.4459 12.1483 12.3701C12.427 11.1406 12.72 9.91513 12.9683 8.67623C13.2052 7.49354 13.3963 6.29688 13.6035 5.1053C13.7003 4.54915 13.696 4.54635 14.1552 4.54873C14.3384 4.54968 14.5636 4.48339 14.6916 4.58967C14.7967 4.67694 14.7872 4.97399 14.8266 5.17861C15.1257 6.73035 15.4172 8.28437 15.7258 9.83321C15.889 10.6522 16.0796 11.463 16.2653 12.275C16.2823 12.3495 16.2744 12.5617 16.4339 12.3908C16.4359 12.3746 16.4371 12.3781 16.451 12.3739C16.5525 12.0603 16.669 11.7582 16.7226 11.4401C16.9507 10.0853 17.1622 8.72622 17.3758 7.36777C17.4749 6.73732 17.5709 6.10591 17.6554 5.47235C17.6789 5.29611 17.7218 5.07529 17.4952 5.01618C17.4952 5.01618 17.5015 5.01161 17.4964 5.0029C17.4786 4.98158 17.466 4.96896 17.4533 4.95635C17.4533 4.95635 17.4599 4.95927 17.4593 4.94428C17.4254 4.82666 17.3922 4.72403 17.3589 4.6214C17.4535 4.59672 17.5479 4.5521 17.6428 4.5507C18.133 4.54347 18.6233 4.54579 19.1136 4.54892C19.1876 4.54939 19.2614 4.57169 19.3354 4.5839C19.329 4.64015 19.3306 4.6588 19.3245 4.67206C19.3147 4.69322 19.3029 4.7175 19.2866 4.72892C18.9397 4.97203 18.7804 5.38418 18.6893 5.82344C18.5233 6.62424 18.3851 7.4341 18.2466 8.24311C17.9752 9.82889 17.7108 11.4165 17.4451 13.0037C17.2876 13.9443 17.1357 14.8862 16.9722 15.8252C16.9604 15.8932 16.8764 15.9881 16.8224 15.9918C16.3973 16.021 15.9713 16.0295 15.5456 16.0477C15.4255 16.0529 15.3622 15.9983 15.3312 15.8463C15.1639 15.0284 14.9894 14.2127 14.8163 13.3966C14.5539 12.1593 14.293 10.9215 14.0234 9.68661C14.002 9.58884 13.9177 9.51183 13.8626 9.42518C13.8626 9.42518 13.8516 9.4307 13.8317 9.43171C13.7698 9.51343 13.709 9.58772 13.6891 9.67595C13.5944 10.0944 13.5065 10.5153 13.4241 10.9376C13.1085 12.5543 12.795 14.1716 12.4837 15.7895C12.4557 15.9352 12.399 16.0025 12.2739 16.0011C11.8655 15.9964 11.4569 15.9976 11.0484 16.0006C10.9293 16.0015 10.8656 15.9554 10.8405 15.7953C10.7544 15.2464 10.6497 14.7019 10.5609 14.1535C10.3596 12.9089 10.169 11.6617 9.96383 10.4182C9.75989 9.18218 9.54563 7.94874 9.33159 6.71532C9.21447 6.04042 9.04266 5.39255 8.6862 4.83959C8.654 4.78965 8.63307 4.67627 8.65647 4.63754C8.68828 4.58488 8.76772 4.55208 8.82696 4.5516C9.51462 4.54595 10.2023 4.54557 10.89 4.55203C10.9541 4.55263 11.0179 4.60946 11.0818 4.64018C11.0504 4.73252 11.0376 4.8475 10.9844 4.91303C10.8124 5.12477 10.7367 5.35672 10.7843 5.65948C10.9619 6.79074 11.1289 7.92453 11.3052 9.05612C11.4738 10.1386 11.6468 11.2202 11.8255 12.3003C11.8419 12.3994 11.9137 12.4848 11.9598 12.5765C11.9598 12.5765 11.9556 12.5764 11.9573 12.5874C11.9701 12.6132 11.9813 12.6281 11.9925 12.6429C12.0035 12.6192 12.0146 12.5955 12.0256 12.5719C12.0256 12.5719 12.028 12.5739 12.0265 12.5734Z" fill="#E5B92E"/>
<path d="M11.957 12.5566C11.9138 12.4848 11.8419 12.3994 11.8255 12.3003C11.6468 11.2202 11.4739 10.1386 11.3052 9.05611C11.1289 7.92453 10.962 6.79074 10.7843 5.65948C10.7368 5.35672 10.8124 5.12477 10.9844 4.91303C11.0376 4.8475 11.0505 4.73252 11.0818 4.64018C11.0179 4.60946 10.9541 4.55263 10.89 4.55203C10.2024 4.54557 9.51466 4.54595 8.827 4.5516C8.76776 4.55208 8.68832 4.58488 8.65651 4.63754C8.63311 4.67627 8.65404 4.78965 8.68624 4.83959C9.0427 5.39255 9.21451 6.04042 9.33163 6.71532C9.54567 7.94874 9.75993 9.18218 9.96387 10.4182C10.1691 11.6617 10.3596 12.9089 10.561 14.1535C10.6497 14.7019 10.7544 15.2464 10.8406 15.7953C10.8657 15.9554 10.9294 16.0015 11.0484 16.0006C11.4569 15.9976 11.8655 15.9964 12.274 16.0011C12.399 16.0025 12.4557 15.9352 12.4837 15.7895C12.795 14.1716 13.1085 12.5543 13.4241 10.9376C13.5066 10.5153 13.5944 10.0943 13.6891 9.67595C13.7091 9.58772 13.7698 9.51343 13.8262 9.42893C13.665 10.292 13.4859 11.1577 13.3144 12.0258C13.0464 13.3825 12.7835 14.7407 12.515 16.1176C11.9707 16.1386 11.4298 16.1403 10.8701 16.1424C10.7696 15.748 10.6751 15.3564 10.6084 14.9579C10.2754 12.9686 9.95119 10.9771 9.62074 8.98724C9.47528 8.11128 9.34698 7.22926 9.1629 6.36543C9.06453 5.90377 8.89681 5.45064 8.69561 5.04177C8.59852 4.84447 8.50911 4.68219 8.52473 4.43045C9.39477 4.40621 10.264 4.40341 11.1523 4.40039C11.172 4.56438 11.1725 4.72859 11.1666 4.91351C10.9191 5.06 10.8273 5.23754 10.8749 5.56614C11.0311 6.6441 11.1933 7.72082 11.3605 8.79633C11.5544 10.044 11.7559 11.29 11.957 12.5566Z" fill="#E5B92E"/>
<path d="M13.8667 9.44357C13.9174 9.51186 14.0018 9.58887 14.0231 9.68663C14.2927 10.9216 14.5537 12.1594 14.816 13.3967C14.9891 14.2128 15.1637 15.0284 15.3309 15.8463C15.362 15.9983 15.4252 16.0529 15.5454 16.0478C15.971 16.0295 16.397 16.021 16.8221 15.9919C16.8761 15.9882 16.9601 15.8932 16.9719 15.8252C17.1354 14.8863 17.2874 13.9443 17.4448 13.0037C17.7105 11.4165 17.975 9.82891 18.2464 8.24314C18.3848 7.43413 18.523 6.62427 18.6891 5.82346C18.7801 5.38421 18.9395 4.97206 19.2864 4.72894C19.3027 4.71752 19.3145 4.69324 19.3242 4.67208C19.3304 4.65882 19.3287 4.64017 19.3352 4.58392C19.2612 4.57171 19.1873 4.54941 19.1133 4.54894C18.6231 4.54581 18.1327 4.54349 17.6425 4.55072C17.5477 4.55212 17.4533 4.59674 17.3587 4.62142C17.3919 4.72405 17.4252 4.82668 17.4576 4.94826C17.2012 4.89154 17.2315 4.65659 17.2516 4.4021C17.9667 4.4021 18.6769 4.4021 19.4058 4.40369C19.4245 4.52209 19.4245 4.63889 19.4245 4.77534C19.0756 4.91538 18.9133 5.28331 18.8283 5.67772C18.6474 6.51629 18.496 7.36508 18.3496 8.21413C17.9493 10.535 17.5564 12.8579 17.1649 15.181C17.1168 15.4664 17.096 15.7587 17.059 16.0472C17.0546 16.0808 17.0274 16.1101 16.9901 16.1335C16.9575 16.1177 16.9469 16.1198 16.9374 16.1318C16.5269 16.1338 16.1164 16.1358 15.6765 16.1263C15.6004 16.12 15.5538 16.1253 15.5072 16.1306C15.4627 16.134 15.4182 16.1374 15.3534 16.1282C15.3259 16.1073 15.3173 16.102 15.3075 16.0998C15.1703 15.4561 15.0349 14.8119 14.8954 14.169C14.555 12.5997 14.2126 11.0309 13.8667 9.44357Z" fill="#E5B92E"/>
<path d="M15.5229 16.1353C15.5538 16.1253 15.6004 16.12 15.6574 16.1226C15.6248 16.1337 15.5818 16.1369 15.5229 16.1353Z" fill="#E5B92E"/>
<path d="M16.9473 16.1359C16.947 16.1198 16.9577 16.1177 16.9735 16.1312C16.9707 16.1378 16.9639 16.1389 16.9473 16.1359Z" fill="#E5B92E"/>
<path d="M15.3096 16.11C15.3175 16.102 15.3261 16.1073 15.3374 16.1231C15.3414 16.1306 15.3246 16.1332 15.3246 16.1332C15.3246 16.1332 15.3114 16.1201 15.3096 16.11Z" fill="#E5B92E"/>
<path d="M17.5015 5.03308C17.7218 5.0753 17.6788 5.29612 17.6553 5.47235C17.5708 6.10591 17.4749 6.73733 17.3757 7.36777C17.1621 8.72623 16.9507 10.0853 16.7225 11.4401C16.6689 11.7582 16.5524 12.0604 16.4502 12.3725C16.5961 11.5053 16.7721 10.6391 16.9138 9.76457C17.1431 8.34833 17.3535 6.92735 17.5609 5.50595C17.5818 5.36246 17.5274 5.20236 17.5015 5.03308Z" fill="#E5B92E"/>
<path d="M17.458 4.97105C17.466 4.96894 17.4787 4.98155 17.498 5.0069C17.4907 5.00836 17.4767 4.99707 17.458 4.97105Z" fill="#E5B92E"/>
<path d="M31.5039 4.01287C31.3601 4.2955 31.2225 4.58358 31.0675 4.85664C31.032 4.91919 30.9367 4.95814 30.868 4.96038C30.0116 4.98839 29.1551 5.00965 28.2985 5.02497C28.2347 5.02611 28.1415 4.99199 28.1104 4.93463C27.6323 4.05341 27.1623 3.16561 26.687 2.27305C26.9158 1.95509 27.1984 1.936 27.4942 2.01331C27.7623 2.08337 27.9933 2.24793 28.1423 2.53619C28.3235 2.88698 28.4866 3.25201 28.6636 3.62734C28.6697 3.6438 28.6679 3.64583 28.6541 3.64184C28.5969 3.57752 28.5457 3.52318 28.5117 3.45579C28.3825 3.20019 28.2687 2.93212 28.131 2.68391C27.8773 2.22637 27.4378 1.99694 27.0757 2.1124C26.8136 2.196 26.7864 2.2814 26.9367 2.5587C27.3063 3.24038 27.6951 3.9079 28.037 4.60989C28.159 4.86048 28.2841 4.91244 28.491 4.90416C29.1642 4.87718 29.8394 4.8257 30.5108 4.86431C30.8956 4.88644 31.1025 4.71054 31.2594 4.32321C31.3101 4.19793 31.4112 4.10345 31.493 3.99938C31.4966 4.00388 31.5039 4.01287 31.5039 4.01287Z" fill="#E5B92E"/>
<path d="M28.5073 1.41185C29.3468 1.2898 30.1611 1.427 30.9736 1.74538C30.8883 2.2493 30.788 2.74918 30.6819 3.26935C30.6763 3.28964 30.6725 3.29431 30.6629 3.27911C30.6677 3.08398 30.6705 2.9012 30.6992 2.72477C30.7478 2.42561 30.8128 2.13045 30.873 1.82286C30.1619 1.5392 29.4576 1.44509 28.7389 1.48872C28.5756 1.49863 28.5897 1.63296 28.6053 1.7777C28.6666 2.34781 28.7252 2.91841 28.7778 3.48981C28.7823 3.53845 28.7348 3.59432 28.7111 3.64631C28.7106 3.6458 28.7104 3.64459 28.7104 3.64459C28.6453 3.04973 28.5781 2.4552 28.5168 1.85976C28.5024 1.71959 28.5081 1.57631 28.5073 1.41185Z" fill="#E5B92E"/>
<path d="M30.7842 3.22923C30.9328 2.72119 31.1817 2.30352 31.5408 1.99182C31.8248 1.7453 32.2123 1.79822 32.4858 2.12998C32.1678 2.7459 31.8464 3.36836 31.5145 4.00183C31.5038 4.01283 31.4965 4.00384 31.4921 3.98029C31.612 3.69189 31.7331 3.42465 31.8615 3.16277C32.0285 2.82197 32.2013 2.48542 32.3696 2.15116C32.1354 1.91074 31.8534 1.87763 31.6166 2.06763C31.3446 2.28585 31.1289 2.5707 30.98 2.93137C30.9333 3.04443 30.8577 3.13947 30.7926 3.23938C30.7898 3.23601 30.7842 3.22923 30.7842 3.22923Z" fill="#E5B92E"/>
<path d="M30.6774 3.28671C30.7069 3.27118 30.7353 3.25858 30.7739 3.23765C30.7842 3.22932 30.7897 3.23609 30.7905 3.25471C30.7611 3.36138 30.7279 3.4235 30.6724 3.29431C30.6724 3.29431 30.6761 3.28964 30.6774 3.28671Z" fill="#E5B92E"/>
<path d="M28.6706 3.64273C28.6714 3.64168 28.6909 3.64296 28.7006 3.64374C28.7104 3.64452 28.7106 3.64573 28.709 3.65559C28.6943 3.6589 28.6811 3.65235 28.668 3.6458C28.668 3.6458 28.6697 3.64377 28.6706 3.64273Z" fill="#E5B92E"/>
<path d="M5.94109 16.0907C5.39723 16.1075 4.85344 16.1334 4.3095 16.139C3.50073 16.1473 2.69185 16.1411 1.87012 16.1411C1.87012 15.9748 1.87012 15.8372 1.87012 15.6747C2.22643 15.6175 2.26116 15.3016 2.26174 14.9265C2.26642 11.9079 2.27923 8.8893 2.29427 5.82569C2.31474 5.65457 2.3305 5.52846 2.35499 5.41992C2.37067 5.51162 2.38369 5.58574 2.38371 5.65987C2.38446 8.45413 2.38464 11.2484 2.38245 14.0427C2.38229 14.2418 2.35142 14.4414 2.35618 14.64C2.36623 15.0585 2.41406 15.4845 2.04399 15.7419C2.00979 15.7657 1.98756 15.8549 1.99241 15.9094C1.99539 15.9428 2.0579 15.9816 2.09839 15.9932C2.15015 16.0081 2.20667 15.9987 2.26114 15.9987C3.48686 15.9989 4.71258 15.9989 5.93857 16.0143C5.93959 16.0499 5.94034 16.0703 5.94109 16.0907Z" fill="#E5B92E"/>
<path d="M1.86865 4.43298C3.27914 4.45705 4.69165 4.48144 6.10265 4.55164C6.56259 4.57453 6.98279 4.81747 7.34698 5.21055C8.0352 5.99737 8.16955 6.97814 8.03674 8.05011C8.00574 8.03733 7.9952 8.02506 7.98456 7.98931C7.98451 7.71529 7.98514 7.46477 7.9845 7.21425C7.98112 5.88792 7.18062 4.7829 6.10656 4.65596C5.58084 4.59383 5.05141 4.56302 4.5232 4.55256C3.68223 4.5359 2.84088 4.54811 2.00879 4.54811C1.87433 4.79198 2.11875 4.84063 2.13694 5.00233C2.13342 5.00668 2.12636 5.01536 2.12636 5.01536C1.81391 4.98291 1.89041 4.68383 1.86865 4.43298Z" fill="#E5B92E"/>
<path d="M5.95801 16.0933C5.94049 16.0704 5.93974 16.05 5.95612 16.0134C6.41649 15.9151 6.87125 15.8719 7.26662 15.5821C7.96376 15.0712 8.41707 14.3663 8.39354 13.3119C8.38424 12.8951 8.37923 12.4772 8.35016 12.0622C8.30564 11.4265 8.06342 10.9326 7.58259 10.6596C7.34949 10.5272 7.09523 10.4521 6.85606 10.3342C6.78731 10.3003 6.73777 10.2076 6.68274 10.1391C6.68605 10.1364 6.70035 10.1257 6.70035 10.1257C6.74092 10.157 6.7786 10.1977 6.82252 10.2179C7.1276 10.3585 7.43398 10.4948 7.75355 10.6385C8.20902 11.0162 8.42584 11.5503 8.46006 12.1883C8.48725 12.6953 8.48763 13.2065 8.47203 13.7145C8.45611 14.2331 8.19876 14.6279 7.95763 15.043C7.48644 15.701 6.88063 15.9749 6.17714 16.0611C6.13586 16.0632 6.12196 16.0686 6.10805 16.074C6.06363 16.0813 6.0192 16.0886 5.95801 16.0933Z" fill="#E5B92E"/>
<path d="M2.3464 5.40237C2.33064 5.52848 2.31488 5.6546 2.29983 5.80461C2.28733 5.64998 2.28463 5.46893 2.25655 5.29402C2.24233 5.20543 2.18228 5.12794 2.13474 5.03041C2.12653 5.01539 2.13359 5.00671 2.15189 5.00366C2.33462 5.06457 2.34464 5.23073 2.3464 5.40237Z" fill="#E5B92E"/>
<path d="M6.11914 16.077C6.12172 16.0685 6.13563 16.0631 6.16066 16.0574C6.15802 16.0648 6.14424 16.0724 6.11914 16.077Z" fill="#E5B92E"/>
<path d="M12.014 12.5739C12.0146 12.5955 12.0035 12.6192 11.9925 12.6429C11.9813 12.628 11.9701 12.6132 11.9575 12.5848C11.9716 12.5728 11.987 12.5743 12.014 12.5739Z" fill="#E5B92E"/>
<path d="M24.856 12.0431C25.1509 11.7908 25.4406 11.5585 25.7462 11.3241C25.7621 11.322 25.7681 11.3291 25.766 11.3462C25.6329 11.5047 25.5201 11.7019 25.3675 11.7766C24.9506 11.9806 24.8768 12.3476 24.9002 12.8464C24.9258 13.3923 24.9401 13.9373 25.1351 14.4352C25.5371 15.4614 26.25 16.0232 27.1067 16.3465C27.8213 16.6162 28.5614 16.6781 29.3019 16.6967C29.7904 16.709 30.2824 16.7017 30.7679 16.642C31.2316 16.585 31.7047 16.508 32.1446 16.3308C32.5835 16.1539 32.9864 15.8418 33.4051 15.589C33.4099 15.5984 33.4147 15.6078 33.4264 15.6314C32.9344 16.1753 32.3345 16.4344 31.7043 16.5968C30.4571 16.9182 29.2039 16.8902 27.947 16.6767C27.2639 16.5607 26.6208 16.3241 26.0418 15.8512C25.2232 15.1827 24.8194 14.2411 24.8159 13.0397C24.815 12.7143 24.8384 12.3887 24.856 12.0431Z" fill="#E5B92E"/>
<path d="M30.1411 5.70292C30.5219 5.70313 30.8824 5.69654 31.2424 5.71072C31.2975 5.71289 31.3501 5.8109 31.4039 5.86458C31.3512 5.91122 31.2987 5.99823 31.2458 5.99856C30.1241 6.00565 29.0023 6.00308 27.8805 6.00132C27.8616 6.00129 27.8426 5.98782 27.8204 5.97939C27.7761 5.76287 27.8535 5.69922 28.0199 5.70058C28.7201 5.70634 29.4204 5.70295 30.1411 5.70292Z" fill="#E5B92E"/>
<path d="M33.3872 9.07248C33.8209 9.94654 34.1401 10.861 34.2867 11.8573C34.4139 12.7219 34.4502 13.5842 34.1589 14.4155C34.0766 14.6505 33.9572 14.866 33.8434 15.1001C33.832 15.1097 33.8247 15.1008 33.8216 15.0781C33.826 15.0236 33.8277 14.9869 33.8418 14.9603C34.347 14.0122 34.3623 12.9588 34.2044 11.9086C33.9389 10.1425 33.2662 8.63903 32.1103 7.50367C31.8117 7.21044 31.5085 6.90217 31.0837 6.90521C30.0688 6.9125 29.0538 6.90165 28.039 6.91545C27.9091 6.91722 27.7722 7.0039 27.6524 7.0829C27.4278 7.23091 27.2134 7.40209 26.9916 7.55902C26.9884 7.55442 26.9819 7.54519 26.9819 7.54519C27.2512 7.30553 27.5191 7.06348 27.7912 6.82883C27.8315 6.79408 27.8917 6.78059 27.9427 6.78035C29.0319 6.77499 30.1212 6.77087 31.2104 6.77436C31.2933 6.77463 31.3819 6.81951 31.4582 6.86692C32.2697 7.37069 32.881 8.14029 33.3872 9.07248Z" fill="#E5B92E"/>
<path d="M25.8008 11.2695C26.4144 10.6253 26.5618 9.74498 26.6201 8.82076C26.6295 8.67118 26.6459 8.51563 26.6238 8.37097C26.5653 7.98783 26.6946 7.73568 26.9693 7.55157C26.9822 7.54514 26.9887 7.55437 26.9896 7.57603C26.973 7.63273 26.9623 7.6845 26.9368 7.70022C26.6871 7.85422 26.6974 8.12876 26.7086 8.40885C26.7382 9.14549 26.6348 9.85562 26.382 10.5231C26.2609 10.8429 26.1209 11.1664 25.8069 11.277C25.8049 11.2745 25.8008 11.2695 25.8008 11.2695Z" fill="#E5B92E"/>
<path d="M25.7588 11.3184C25.7595 11.2974 25.7679 11.2849 25.7909 11.2735C25.8005 11.2696 25.8047 11.2746 25.8015 11.2873C25.79 11.3127 25.7798 11.3224 25.7677 11.3292C25.7677 11.3292 25.7617 11.322 25.7588 11.3184Z" fill="#E5B92E"/>
<path d="M2.35494 5.41994C2.34446 5.23073 2.33444 5.06456 2.15523 4.99931C2.11874 4.84066 1.87431 4.79201 2.00877 4.54814C2.84086 4.54814 3.68221 4.53593 4.52318 4.55259C5.05139 4.56305 5.58083 4.59386 6.10655 4.65599C7.18061 4.78293 7.98111 5.88795 7.98449 7.21428C7.98513 7.4648 7.9845 7.71532 7.98385 8.00989C7.95405 8.2218 7.93025 8.39143 7.89426 8.55706C7.85205 8.75133 7.79924 8.94213 7.75102 9.13443C7.75102 9.13443 7.75004 9.12916 7.73626 9.12928C7.67433 9.21589 7.62619 9.30239 7.57805 9.38888C7.57951 9.40202 7.57571 9.41221 7.54347 9.41992C7.43362 9.52618 7.34695 9.63195 7.26028 9.73772C7.26028 9.73772 7.25235 9.73084 7.24098 9.72896C7.0594 9.84481 6.88919 9.96254 6.71898 10.0803C6.71898 10.0803 6.71904 10.0757 6.71124 10.0776C6.69537 10.1002 6.6873 10.121 6.67923 10.1418C6.73757 10.2076 6.78712 10.3003 6.85586 10.3341C7.09503 10.452 7.34929 10.5272 7.58239 10.6595C8.06322 10.9326 8.30544 11.4264 8.34996 12.0621C8.37903 12.4771 8.38404 12.895 8.39334 13.3119C8.41688 14.3662 7.96356 15.0711 7.26642 15.582C6.87105 15.8718 6.41629 15.915 5.95566 15.9981C4.71254 15.999 3.48681 15.9989 2.26109 15.9987C2.20662 15.9987 2.15011 16.0081 2.09834 15.9932C2.05785 15.9816 1.99535 15.9428 1.99237 15.9094C1.98751 15.8549 2.00975 15.7657 2.04394 15.7419C2.41401 15.4845 2.36619 15.0585 2.35614 14.64C2.35137 14.4414 2.38225 14.2418 2.38241 14.0427C2.38459 11.2484 2.38442 8.45415 2.38366 5.65989C2.38364 5.58576 2.37063 5.51164 2.35494 5.41994ZM6.20923 14.4382C6.32066 14.3144 6.4711 14.2156 6.53655 14.0622C6.779 13.4936 6.79414 12.8775 6.71869 12.2543C6.65389 11.719 6.45544 11.2897 6.05155 11.0367C5.48602 10.6824 4.87686 10.6507 4.26071 10.6933C4.1164 10.7032 4.05523 10.8133 4.056 10.9997C4.06072 12.1377 4.05705 13.2757 4.06248 14.4136C4.06285 14.49 4.11502 14.566 4.15285 14.6788C4.26108 14.7094 4.36828 14.758 4.47773 14.7676C4.97764 14.8112 5.47957 14.8459 5.96546 14.6499C6.04715 14.617 6.10838 14.5074 6.20923 14.4382ZM4.14079 5.93973C4.13818 5.96204 4.13558 5.98434 4.11706 5.9885C4.11191 5.98304 4.10731 5.9763 4.10144 5.97249C4.09561 5.96871 4.08298 5.96541 4.08278 5.96611C4.07416 5.99529 4.05991 6.02493 4.05989 6.05453C4.05905 7.15003 4.05968 8.24554 4.05972 9.34104C4.05972 9.51795 4.14858 9.57177 4.27264 9.57198C4.53128 9.57243 4.79068 9.58456 5.04837 9.56459C5.3745 9.53931 5.68055 9.41922 5.91342 9.1219C6.44941 8.4376 6.42954 7.60528 6.29853 6.75725C6.24354 6.40126 6.03198 6.18289 5.77084 6.04368C5.28898 5.78682 4.77844 5.78163 4.26663 5.80769C4.22427 5.80985 4.18392 5.87173 4.14079 5.93973Z" fill="#E5B92E"/>
<path d="M7.76221 9.1238C7.79905 8.9421 7.85186 8.7513 7.89407 8.55703C7.93006 8.3914 7.95386 8.22177 7.98375 8.03335C7.99499 8.02506 8.00554 8.03733 8.0223 8.06063C8.05237 8.45905 7.93385 8.79383 7.76221 9.1238Z" fill="#E5B92E"/>
<path d="M6.73486 10.0792C6.88918 9.96255 7.05939 9.84482 7.24539 9.73145C7.09104 9.84989 6.9209 9.96399 6.73486 10.0792Z" fill="#E5B92E"/>
<path d="M7.27295 9.73112C7.34697 9.6319 7.43364 9.52613 7.53644 9.42151C7.46359 9.5233 7.37459 9.62393 7.27295 9.73112Z" fill="#E5B92E"/>
<path d="M7.58984 9.37975C7.62608 9.30241 7.67422 9.21592 7.73795 9.13086C7.70293 9.21173 7.65234 9.29116 7.58984 9.37975Z" fill="#E5B92E"/>
<path d="M6.68262 10.1391C6.68738 10.1211 6.69545 10.1003 6.71317 10.0778C6.71987 10.0849 6.71693 10.0937 6.70711 10.1142C6.70023 10.1257 6.68593 10.1364 6.68262 10.1391Z" fill="#E5B92E"/>
<path d="M25.7656 11.3463C25.7798 11.3224 25.79 11.3127 25.8035 11.2899C26.1207 11.1665 26.2607 10.843 26.3818 10.5232C26.6346 9.85575 26.738 9.14561 26.7084 8.40898C26.6972 8.12889 26.6869 7.85434 26.9366 7.70035C26.9621 7.68463 26.9728 7.63286 26.9927 7.58076C27.2135 7.40217 27.4279 7.23099 27.6525 7.08299C27.7723 7.00399 27.9092 6.9173 28.0391 6.91553C29.0539 6.90174 30.0689 6.91258 31.0838 6.9053C31.5086 6.90225 31.8118 7.21052 32.1104 7.50375C33.2663 8.63911 33.939 10.1426 34.2045 11.9086C34.3624 12.9588 34.3471 14.0122 33.8419 14.9604C33.8278 14.987 33.8261 15.0236 33.818 15.0738C33.6831 15.2473 33.5489 15.4026 33.4097 15.5735C32.9861 15.8419 32.5832 16.154 32.1442 16.3308C31.7044 16.508 31.2313 16.585 30.7676 16.6421C30.2821 16.7018 29.7901 16.709 29.3016 16.6968C28.561 16.6781 27.8209 16.6162 27.1064 16.3466C26.2497 16.0232 25.5367 15.4615 25.1348 14.4352C24.9397 13.9373 24.9254 13.3924 24.8999 12.8464C24.8765 12.3476 24.9502 11.9807 25.3672 11.7766C25.5197 11.702 25.6325 11.5047 25.7656 11.3463ZM28.0694 14.4191C28.094 14.4242 28.1186 14.4292 28.1432 14.4699C28.1864 14.5307 28.2201 14.6179 28.2745 14.6477C28.5026 14.7724 28.7319 14.9014 28.9708 14.986C29.1215 15.0393 29.218 15.0858 29.206 15.3075C29.2018 15.3834 29.2575 15.4642 29.2963 15.5803C29.5253 15.5919 29.7543 15.6042 29.9834 15.6123C29.9915 15.6126 30.0006 15.5708 30.032 15.5179C30.0415 15.4618 30.0649 15.403 30.0582 15.3499C30.0304 15.1267 30.1123 15.0408 30.2855 15.0084C30.445 14.9786 30.6027 14.9179 30.7553 14.8504C31.6759 14.4435 31.9787 13.0775 31.6105 12.1837C31.5773 12.1031 31.5049 12.047 31.4493 11.9442C31.394 11.8907 31.3387 11.8373 31.2807 11.7488C31.231 11.6842 31.191 11.591 31.13 11.5599C30.8253 11.4045 30.5205 11.2428 30.2048 11.1295C30.0262 11.0654 29.9548 10.9791 29.9795 10.7539C30.0021 10.5488 30.0063 10.3405 30.0191 10.1337C30.0248 10.0402 30.0317 9.94678 30.038 9.85332C30.0601 9.84175 30.0823 9.83017 30.1044 9.81859C30.1755 9.92723 30.2695 10.0238 30.3124 10.1472C30.3844 10.3547 30.4912 10.4487 30.6722 10.4275C30.7394 10.4197 30.8076 10.4259 30.9125 10.4261C31.0313 10.4314 31.151 10.4484 31.2686 10.4361C31.3172 10.4311 31.3615 10.3632 31.4362 10.3102C31.4521 10.2263 31.4959 10.1324 31.4788 10.0603C31.4246 9.83041 31.3693 9.59381 31.2753 9.38662C31.0486 8.88691 30.6646 8.6473 30.2264 8.53533C30.0859 8.49944 30.0582 8.42059 30.0542 8.26518C30.0516 8.16579 30.0007 8.06832 29.9626 7.93216C29.8032 7.90907 29.6442 7.87579 29.4844 7.86879C29.433 7.86654 29.3796 7.9336 29.2972 7.98015C29.2799 8.12533 29.2627 8.27051 29.2425 8.41846C29.2425 8.41846 29.2396 8.42121 29.2279 8.43346C29.2205 8.44208 29.2138 8.45152 29.1779 8.47686C29.0206 8.52361 28.8521 8.54137 28.7088 8.62453C28.5339 8.726 28.3802 8.88241 28.1877 9.01628C28.1154 9.08596 28.0259 9.14019 27.9735 9.22787C27.6808 9.7175 27.6386 10.2742 27.7165 10.8532C27.7561 11.1474 27.8376 11.432 28.0543 11.596C28.3169 11.7948 28.5823 12.012 28.8714 12.1271C29.1274 12.229 29.2866 12.337 29.2749 12.6957C29.2639 13.0329 29.2725 13.3711 29.2725 13.7379C29.0192 13.664 28.8849 13.5098 28.8228 13.2434C28.7971 13.1333 28.7393 13.0344 28.6911 12.8942C28.386 12.8819 28.0809 12.8684 27.7757 12.8607C27.7614 12.8603 27.7462 12.9104 27.7015 12.9505C27.5612 13.2943 27.7242 14.034 28.022 14.3673C28.0305 14.3788 28.0397 14.3894 28.0694 14.4191Z" fill="#E5B92E"/>
<path d="M22.238 15.494C22.2684 15.516 22.2886 15.5306 22.3207 15.5466C22.3681 15.5957 22.3997 15.6781 22.4396 15.6847C22.6031 15.7117 22.5609 15.8411 22.5542 15.9833C22.4095 16.005 22.2695 16.0426 22.1292 16.0441C21.4835 16.0508 20.8377 16.0509 20.192 16.0428C20.1177 16.0419 20.0013 15.9988 19.9782 15.9349C19.9219 15.7793 20.0498 15.7601 20.1345 15.7115C20.3036 15.6145 20.385 15.4356 20.4095 15.2162C20.4187 15.134 20.4126 15.0491 20.4132 14.9654C20.4271 12.9098 20.4391 10.8542 20.4557 8.79859C20.4643 7.73676 20.4834 6.67506 20.4922 5.61323C20.4942 5.37774 20.4762 5.14009 20.2643 5.00128C20.194 4.93277 20.132 4.87346 20.0837 4.8004C20.0493 4.74849 20.0076 4.67088 20.0173 4.61799C20.026 4.56995 20.0998 4.50696 20.1448 4.50708C20.4504 4.50788 20.756 4.53047 21.0616 4.53214C21.2578 4.53321 21.454 4.51059 21.669 4.49683C22.0256 4.51265 22.3634 4.53024 22.7387 4.54786C22.8746 4.54784 22.973 4.5478 23.0714 4.54775C23.1267 4.54779 23.1821 4.54784 23.2538 4.54787C23.8118 4.55333 24.3213 4.72254 24.792 5.04178C25.4444 5.48428 25.6834 6.25756 25.7889 7.09512C25.8975 7.95753 25.9182 8.82929 25.6817 9.67294C25.5938 9.9862 25.4664 10.2827 25.3572 10.6055C25.2328 10.7494 25.1095 10.8766 24.9836 10.9996C24.525 11.4474 23.9789 11.5802 23.4168 11.6232C23.0435 11.6518 22.6677 11.6252 22.2933 11.6364C22.2259 11.6384 22.1597 11.7041 22.09 11.7599C22.0606 11.8739 22.0118 11.9681 22.0112 12.0628C22.0051 12.9573 22.0071 13.8519 22.0073 14.77C22.0536 14.9875 22.0994 15.1814 22.1553 15.3883C22.1861 15.4296 22.207 15.4581 22.238 15.494ZM22.1065 6.17796C22.094 6.12918 22.0816 6.0804 22.0691 6.03163C22.045 7.3432 22.0439 8.64762 22.0482 9.95201C22.0484 10.0246 22.0937 10.097 22.1283 10.1681C22.1283 10.1681 22.131 10.1803 22.1436 10.2141C22.2458 10.2455 22.3467 10.2936 22.4503 10.3056C23.284 10.4023 24.0343 9.91957 24.1279 8.75243C24.1669 8.26627 24.1635 7.76682 24.1206 7.28124C24.0795 6.81625 23.9175 6.39333 23.5612 6.14139C23.1409 5.84414 22.6787 5.83411 22.2132 5.86247C22.1842 5.86423 22.1575 5.92321 22.1276 5.99723C22.1251 6.0664 22.1225 6.13558 22.1065 6.17796Z" fill="#E5B92E"/>
<path d="M23.0654 4.53092C22.9731 4.54787 22.8747 4.54792 22.7578 4.54796C22.8362 4.39669 22.9466 4.43865 23.0654 4.53092Z" fill="#E5B92E"/>
<path d="M28.6541 3.64184C28.6811 3.65238 28.6942 3.65893 28.7094 3.65614C28.7348 3.59428 28.7823 3.53842 28.7778 3.48977C28.7252 2.91838 28.6666 2.34777 28.6052 1.77766C28.5897 1.63292 28.5755 1.4986 28.7389 1.48868C29.4575 1.44506 30.1619 1.53917 30.873 1.82282C30.8128 2.13042 30.7478 2.42557 30.6992 2.72474C30.6705 2.90117 30.6676 3.08394 30.6628 3.27907C30.728 3.42347 30.7612 3.36134 30.7934 3.25804C30.8578 3.13951 30.9334 3.04447 30.9801 2.93141C31.129 2.57074 31.3447 2.2859 31.6167 2.06767C31.8535 1.87768 32.1355 1.91078 32.3697 2.15121C32.2014 2.48547 32.0286 2.82202 31.8616 3.16282C31.7332 3.4247 31.6121 3.69194 31.4886 3.97584C31.4112 4.10345 31.3101 4.19793 31.2594 4.32321C31.1025 4.71054 30.8957 4.88644 30.5108 4.86431C29.8395 4.8257 29.1643 4.87718 28.491 4.90416C28.2842 4.91244 28.159 4.86048 28.037 4.60989C27.6951 3.9079 27.3063 3.24038 26.9367 2.5587C26.7864 2.2814 26.8136 2.196 27.0758 2.1124C27.4378 1.99694 27.8773 2.22637 28.1311 2.68391C28.2687 2.93212 28.3825 3.20019 28.5117 3.45579C28.5457 3.52318 28.5969 3.57752 28.6541 3.64184Z" fill="#E5B92E"/>
<path d="M4.14276 5.90587C4.18404 5.87174 4.22438 5.80986 4.26674 5.80771C4.77856 5.78164 5.2891 5.78684 5.77095 6.04369C6.0321 6.1829 6.24365 6.40128 6.29865 6.75727C6.42966 7.60529 6.44953 8.43762 5.91354 9.12192C5.68066 9.41923 5.37462 9.53933 5.04849 9.5646C4.7908 9.58457 4.53139 9.57245 4.27275 9.572C4.1487 9.57179 4.05984 9.51797 4.05983 9.34106C4.05979 8.24555 4.05917 7.15005 4.06 6.05454C4.06003 6.02494 4.07428 5.9953 4.08289 5.96613C4.0831 5.96543 4.09573 5.96872 4.10156 5.9725C4.10742 5.97631 4.11202 5.98306 4.12787 6.02075C4.13663 6.48896 4.13471 6.92493 4.12866 7.36629C4.11977 7.38712 4.12245 7.40027 4.13503 7.43451C4.13573 7.92737 4.13399 8.39687 4.1265 8.87549C4.12462 8.91255 4.1285 8.94051 4.13488 8.99147C4.13737 9.1622 4.13737 9.30992 4.13737 9.50903C4.54307 9.47409 4.93356 9.48582 5.30809 9.3965C5.7578 9.28926 6.08934 8.9386 6.17735 8.36573C6.24325 7.9368 6.27168 7.48962 6.25622 7.05381C6.23688 6.50866 5.98512 6.1929 5.55579 6.05357C5.09179 5.903 4.62049 5.85808 4.14276 5.90587Z" fill="#E5B92E"/>
<path d="M4.13285 7.3609C4.13478 6.92493 4.13671 6.48896 4.13589 6.02983C4.13576 5.98436 4.13837 5.96205 4.14191 5.92281C4.62056 5.85808 5.09186 5.90299 5.55587 6.05357C5.98519 6.1929 6.23696 6.50866 6.2563 7.05381C6.27175 7.48962 6.24332 7.9368 6.17743 8.36572C6.08941 8.9386 5.75787 9.28926 5.30816 9.3965C4.93363 9.48582 4.54315 9.47409 4.13744 9.50903C4.13744 9.30992 4.13744 9.16219 4.13842 8.97463C4.13703 8.91198 4.13468 8.88918 4.13232 8.86638C4.13406 8.39687 4.1358 7.92737 4.13812 7.42196C4.13675 7.37768 4.1348 7.36929 4.13285 7.3609ZM4.24626 6.06283C4.24135 6.07838 4.23219 6.09392 4.23214 6.10949C4.2294 7.13795 4.22787 8.16641 4.22479 9.19487C4.22433 9.34698 4.29985 9.37506 4.39947 9.36878C4.6366 9.35383 4.87424 9.34553 5.11066 9.32022C5.65151 9.2623 5.98319 8.93393 6.0943 8.28515C6.15797 7.91332 6.18332 7.52372 6.17587 7.1436C6.16841 6.76239 6.04685 6.3897 5.73337 6.25259C5.26545 6.04793 4.77469 5.95057 4.24626 6.06283Z" fill="#E5B92E"/>
<path d="M4.14326 14.6422C4.11518 14.566 4.06301 14.49 4.06264 14.4136C4.0572 13.2757 4.06087 12.1377 4.05616 10.9997C4.05539 10.8133 4.11656 10.7033 4.26087 10.6933C4.87702 10.6507 5.48618 10.6824 6.05171 11.0367C6.4556 11.2897 6.65405 11.7191 6.71885 12.2543C6.79429 12.8775 6.77916 13.4936 6.53671 14.0622C6.47126 14.2156 6.32082 14.3144 6.19325 14.4342C6.1771 14.4302 6.17491 14.4272 6.18288 14.4137C6.41143 14.2054 6.56727 13.9434 6.59001 13.6153C6.62273 13.1432 6.6439 12.6642 6.61568 12.1931C6.58968 11.759 6.39734 11.4064 6.08319 11.1765C5.47543 10.7318 4.80981 10.8009 4.14591 10.8164C4.14591 12.1138 4.14591 13.3759 4.14521 14.6391C4.14452 14.6401 4.14326 14.6422 4.14326 14.6422Z" fill="#E5B92E"/>
<path d="M6.17797 14.4318C6.10835 14.5075 6.04712 14.617 5.96543 14.65C5.47954 14.846 4.97761 14.8113 4.4777 14.7676C4.36825 14.7581 4.26105 14.7095 4.14794 14.6605C4.14307 14.6422 4.14433 14.6401 4.16279 14.6407C4.27559 14.6516 4.36979 14.6683 4.46428 14.6712C5.04364 14.689 5.62949 14.7715 6.17472 14.4272C6.17472 14.4272 6.17692 14.4302 6.17797 14.4318Z" fill="#E5B92E"/>
<path d="M28.6961 12.9304C28.7393 13.0343 28.797 13.1332 28.8227 13.2434C28.8848 13.5098 29.0192 13.664 29.2725 13.7379C29.2725 13.3711 29.2638 13.0329 29.2748 12.6956C29.2865 12.3369 29.1273 12.2289 28.8714 12.127C28.5823 12.012 28.3169 11.7948 28.0542 11.5959C27.8376 11.432 27.7561 11.1473 27.7165 10.8531C27.6385 10.2741 27.6807 9.71745 27.9734 9.22782C28.0259 9.14014 28.1153 9.08591 28.206 9.02026C28.2243 9.0243 28.2313 9.0336 28.2241 9.04787C27.4544 9.91938 27.6492 11.4147 28.5961 11.9078C28.8383 12.0339 29.1002 12.1026 29.3527 12.2202C29.3523 12.7902 29.3523 13.3376 29.3523 13.8848C29.0389 13.8389 28.8096 13.598 28.7386 13.2418C28.7181 13.1391 28.6925 13.038 28.676 12.9346C28.6827 12.9331 28.6961 12.9304 28.6961 12.9304Z" fill="#E5B92E"/>
<path d="M31.451 11.9795C31.5052 12.047 31.5777 12.1031 31.6108 12.1836C31.9791 13.0774 31.6763 14.4435 30.7557 14.8504C30.6031 14.9179 30.4454 14.9786 30.2858 15.0084C30.1127 15.0407 30.0307 15.1267 30.0586 15.3499C30.0652 15.403 30.0419 15.4618 30.0132 15.5332C29.994 15.5484 29.9781 15.547 29.9814 15.5251C29.9708 15.3306 29.9568 15.1579 29.9419 14.9729C30.5356 14.8773 31.1171 14.7263 31.4445 14.0374C31.7615 13.3705 31.7638 12.6748 31.4397 11.9923C31.4435 11.988 31.451 11.9795 31.451 11.9795Z" fill="#E5B92E"/>
<path d="M30.8753 10.4258C30.8075 10.426 30.7392 10.4197 30.6721 10.4275C30.4911 10.4487 30.3843 10.3547 30.3122 10.1473C30.2694 10.0238 30.1753 9.92726 30.1043 9.81861C30.0822 9.83019 30.06 9.84177 30.0379 9.85335C30.0315 9.9468 30.0247 10.0402 30.0189 10.1337C30.0062 10.3406 30.002 10.5488 29.9794 10.754C29.9546 10.9791 30.026 11.0654 30.2047 11.1296C30.5204 11.2428 30.8252 11.4046 31.1298 11.5599C31.1909 11.591 31.2309 11.6842 31.2799 11.7688C31.2793 11.7888 31.2754 11.7938 31.2623 11.7875C30.8496 11.4213 30.3923 11.2504 29.9047 11.1424C29.9004 10.6419 29.9004 10.1631 29.9004 9.63086C30.0592 9.72474 30.1553 9.78156 30.2589 9.8528C30.3982 10.1645 30.5394 10.443 30.8767 10.3486C30.8761 10.3846 30.8757 10.4052 30.8753 10.4258Z" fill="#E5B92E"/>
<path d="M29.9715 7.96997C30.0008 8.0683 30.0517 8.16578 30.0543 8.26516C30.0584 8.42058 30.0861 8.49942 30.2265 8.53532C30.6647 8.64729 31.0487 8.88689 31.2754 9.3866C31.3695 9.59379 31.4247 9.83039 31.479 10.0603C31.496 10.1324 31.4522 10.2263 31.4214 10.3159C31.4064 10.3217 31.4049 10.3197 31.4057 10.2989C31.3478 9.16096 30.7529 8.72411 29.9688 8.58106C29.9688 8.3568 29.9687 8.16572 29.9695 7.97352C29.9702 7.9724 29.9715 7.96997 29.9715 7.96997Z" fill="#E5B92E"/>
<path d="M29.2861 15.5427C29.2578 15.4641 29.2021 15.3833 29.2062 15.3074C29.2183 15.0858 29.1218 15.0392 28.9711 14.9859C28.7322 14.9014 28.5029 14.7724 28.2748 14.6477C28.2203 14.6179 28.1867 14.5307 28.1445 14.4509C28.1456 14.4318 28.1475 14.4293 28.1606 14.4355C28.5021 14.7843 28.9051 14.8778 29.3111 14.9748C29.3089 15.168 29.3082 15.3417 29.3022 15.5222C29.2968 15.5291 29.2861 15.5427 29.2861 15.5427Z" fill="#E5B92E"/>
<path d="M28.2207 9.01973C28.3801 8.88244 28.5338 8.72602 28.7087 8.62456C28.852 8.54139 29.0205 8.52364 29.1984 8.46312C29.2264 8.44062 29.2333 8.43125 29.2395 8.42123C29.2395 8.42123 29.2424 8.41849 29.2575 8.41702C29.2909 8.415 29.3092 8.41446 29.3341 8.42638C29.345 8.47745 29.3493 8.51606 29.3372 8.55775C28.9301 8.6229 28.5608 8.75904 28.2312 9.03367C28.2312 9.03367 28.2242 9.02437 28.2207 9.01973Z" fill="#E5B92E"/>
<path d="M28.01 14.3495C27.7243 14.034 27.5612 13.2943 27.7171 12.9449C27.7326 12.9393 27.7341 12.9414 27.7325 12.9635C27.7251 13.4651 27.8119 13.911 28.0383 14.3143C28.0226 14.3338 28.0163 14.3417 28.01 14.3495Z" fill="#E5B92E"/>
<path d="M28.6936 12.9123C28.6962 12.9303 28.6827 12.9331 28.6568 12.9362C28.332 12.94 28.033 12.9406 27.734 12.9413C27.734 12.9413 27.7326 12.9392 27.7319 12.9381C27.7461 12.9104 27.7613 12.8602 27.7757 12.8606C28.0809 12.8684 28.386 12.8818 28.6936 12.9123Z" fill="#E5B92E"/>
<path d="M29.3271 7.96899C29.3796 7.93364 29.433 7.86658 29.4844 7.86883C29.6442 7.87583 29.8032 7.90911 29.967 7.95111C29.9714 7.97003 29.9701 7.97246 29.9511 7.96967C29.7317 7.96873 29.5313 7.97059 29.33 7.97152C29.3291 7.9706 29.3271 7.96899 29.3271 7.96899Z" fill="#E5B92E"/>
<path d="M30.8943 10.426C30.8761 10.4052 30.8766 10.3846 30.8908 10.3451C30.923 10.3285 30.9414 10.3308 30.9712 10.3419C31.0426 10.3448 31.1026 10.3389 31.1798 10.3295C31.2663 10.3239 31.3357 10.3218 31.4051 10.3197C31.4051 10.3197 31.4066 10.3217 31.4074 10.3228C31.3618 10.3632 31.3176 10.4311 31.269 10.4361C31.1513 10.4484 31.0317 10.4314 30.8943 10.426Z" fill="#E5B92E"/>
<path d="M29.978 15.5471C29.978 15.5471 29.9939 15.5484 30.0017 15.5485C30.0009 15.5708 29.9918 15.6126 29.9837 15.6123C29.7546 15.6043 29.5256 15.592 29.2914 15.5616C29.2861 15.5428 29.2968 15.5292 29.3158 15.5339C29.5492 15.5415 29.7636 15.5443 29.978 15.5471Z" fill="#E5B92E"/>
<path d="M29.3278 8.41385C29.3095 8.4144 29.2912 8.41494 29.2593 8.41557C29.2629 8.27048 29.2802 8.1253 29.3124 7.97452C29.3274 7.96892 29.3293 7.97053 29.3278 7.99325C29.3268 8.1486 29.3273 8.28123 29.3278 8.41385Z" fill="#E5B92E"/>
<path d="M31.2817 11.7863C31.339 11.8372 31.3943 11.8907 31.4503 11.9618C31.451 11.9795 31.4435 11.9881 31.4286 11.9843C31.3677 11.9183 31.3218 11.8561 31.2759 11.7938C31.2759 11.7938 31.2798 11.7887 31.2817 11.7863Z" fill="#E5B92E"/>
<path d="M28.1445 14.433C28.1188 14.4292 28.0942 14.4241 28.0688 14.3978C28.0742 14.3689 28.0803 14.3614 28.0954 14.3617C28.1187 14.3895 28.133 14.4094 28.1474 14.4294C28.1474 14.4294 28.1455 14.4319 28.1445 14.433Z" fill="#E5B92E"/>
<path d="M29.2336 8.42725C29.2332 8.43114 29.2264 8.44051 29.2134 8.45546C29.2137 8.45143 29.2203 8.44199 29.2336 8.42725Z" fill="#E5B92E"/>
<path d="M28.059 14.3877C28.0399 14.3893 28.0307 14.3787 28.0161 14.3583C28.0163 14.3415 28.0226 14.3337 28.0458 14.3217C28.0722 14.3278 28.0802 14.34 28.0864 14.3538C28.0803 14.3613 28.0742 14.3689 28.059 14.3877Z" fill="#E5B92E"/>
<path d="M22.1311 10.1802C22.1311 10.1802 22.1284 10.168 22.1216 10.1453C22.1118 9.41438 22.1089 8.70611 22.1121 7.98072C22.1164 7.91437 22.1146 7.86515 22.1163 7.79254C22.1199 7.24766 22.12 6.72617 22.1201 6.20469C22.1226 6.13552 22.1252 6.06634 22.1476 5.97273C22.4388 5.96633 22.7126 5.96251 22.981 6.00689C23.5716 6.1045 23.9283 6.4703 24.0124 7.18936C24.0784 7.75283 24.0876 8.34479 24.0254 8.90797C23.94 9.68023 23.4993 10.118 22.8653 10.1794C22.622 10.2029 22.3759 10.1813 22.1311 10.1802ZM23.6419 9.64581C23.7396 9.39287 23.8956 9.14886 23.9222 8.88509C23.9731 8.38299 23.9759 7.86765 23.9506 7.36144C23.9226 6.80089 23.6933 6.36199 23.2371 6.19724C22.9739 6.10215 22.6885 6.09859 22.413 6.05568C22.2647 6.03261 22.203 6.11061 22.2092 6.29818C22.2178 6.55709 22.2112 6.81677 22.2112 7.07612C22.2111 7.98803 22.2082 8.89997 22.2156 9.81179C22.2163 9.89724 22.278 10.0529 22.3177 10.0561C22.782 10.0929 23.2495 10.1161 23.6419 9.64581Z" fill="#E5B92E"/>
<path d="M22.1372 10.1971C22.3757 10.1813 22.6218 10.2029 22.8651 10.1794C23.4991 10.118 23.9398 9.68025 24.0252 8.90798C24.0874 8.34481 24.0782 7.75285 24.0122 7.18938C23.9281 6.47032 23.5714 6.10452 22.9808 6.0069C22.7124 5.96253 22.4387 5.96635 22.1485 5.95192C22.1574 5.92317 22.1841 5.86419 22.2131 5.86243C22.6786 5.83406 23.1408 5.84409 23.5611 6.14135C23.9174 6.39329 24.0794 6.81621 24.1205 7.2812C24.1634 7.76678 24.1668 8.26623 24.1278 8.75239C24.0342 9.91953 23.2839 10.4023 22.4502 10.3056C22.3466 10.2936 22.2457 10.2454 22.1372 10.1971Z" fill="#E5B92E"/>
<path d="M22.1061 7.99789C22.1089 8.70616 22.1118 9.41443 22.1165 10.1461C22.0939 10.0969 22.0486 10.0246 22.0483 9.952C22.044 8.64761 22.0452 7.34318 22.0693 6.03162C22.0817 6.08039 22.0942 6.12917 22.1134 6.19134C22.1201 6.72622 22.12 7.24771 22.1094 7.80926C22.1013 7.89884 22.1037 7.94836 22.1061 7.99789Z" fill="#E5B92E"/>
<path d="M4.12644 8.87549C4.13456 8.88918 4.13691 8.91198 4.1358 8.95162C4.12845 8.94051 4.12457 8.91255 4.12644 8.87549Z" fill="#E5B92E"/>
<path d="M4.12872 7.36633C4.13479 7.36933 4.13673 7.37772 4.13567 7.39865C4.12251 7.40032 4.11983 7.38716 4.12872 7.36633Z" fill="#E5B92E"/>
<path d="M6.18297 14.4137C5.62977 14.7715 5.04392 14.689 4.46456 14.6712C4.37007 14.6683 4.27586 14.6516 4.16376 14.6396C4.146 13.376 4.146 12.1138 4.146 10.8164C4.8099 10.8009 5.47552 10.7318 6.08328 11.1766C6.39743 11.4064 6.58977 11.7591 6.61577 12.1931C6.64399 12.6642 6.62282 13.1432 6.5901 13.6153C6.56736 13.9434 6.41152 14.2054 6.18297 14.4137ZM4.22419 11.8055C4.22426 12.6342 4.2271 13.4628 4.22221 14.2914C4.22115 14.4707 4.26478 14.5493 4.4199 14.5454C4.79221 14.5361 5.16514 14.5548 5.53717 14.5392C6.09742 14.5156 6.44131 14.1454 6.51412 13.465C6.5529 13.1026 6.56326 12.7305 6.54684 12.3655C6.51682 11.698 6.1433 11.1554 5.61562 11.0486C5.21545 10.9676 4.80478 10.9652 4.39887 10.9266C4.26314 10.9137 4.21871 10.9964 4.22304 11.1528C4.22861 11.3534 4.22427 11.5545 4.22419 11.8055Z" fill="#E5B92E"/>
<path d="M28.0952 14.3617C28.0799 14.34 28.072 14.3279 28.055 14.31C27.8117 13.9109 27.7249 13.465 27.7324 12.9634C28.0329 12.9406 28.3319 12.94 28.65 12.9378C28.6925 13.038 28.7181 13.1391 28.7386 13.2418C28.8096 13.598 29.0389 13.8389 29.3522 13.8848C29.3522 13.3376 29.3522 12.7902 29.3559 12.2158C29.3595 12.1888 29.366 12.1801 29.3804 12.1885C29.4078 12.2157 29.4318 12.2344 29.432 12.2534C29.4364 12.7868 29.4446 13.3203 29.4365 13.8535C29.4344 13.994 29.3501 14.0468 29.2306 13.9855C28.95 13.8416 28.7147 13.6497 28.6503 13.249C28.6259 13.0968 28.5652 13.0245 28.4202 13.0559C28.2895 13.0842 28.1505 13.0739 28.0171 13.0577C27.9183 13.0458 27.855 13.0563 27.8525 13.1973C27.8443 13.6619 27.9308 14.1038 28.2604 14.3591C28.5169 14.5577 28.8272 14.6504 29.1118 14.7957C29.1865 14.8339 29.2543 14.8928 29.322 14.9455C29.3188 14.9489 29.3124 14.9554 29.3124 14.9554C28.9047 14.8778 28.5018 14.7843 28.1602 14.4355C28.1328 14.4094 28.1185 14.3895 28.0952 14.3617Z" fill="#E5B92E"/>
<path d="M28.2242 9.04785C28.5609 8.75895 28.9303 8.62281 29.3405 8.56104C29.36 8.56132 29.3662 8.56815 29.3612 8.58523C29.2255 8.65775 29.098 8.73257 28.9636 8.76548C28.0378 8.99229 27.7254 9.878 27.912 10.8886C27.9487 11.0873 28.0465 11.3231 28.1769 11.4304C28.4478 11.6533 28.7597 11.8009 29.0541 11.9809C29.159 12.0451 29.2622 12.1136 29.3661 12.1801C29.3661 12.1801 29.3596 12.1888 29.3564 12.1932C29.1003 12.1026 28.8384 12.0339 28.5962 11.9078C27.6493 11.4147 27.4545 9.91936 28.2242 9.04785Z" fill="#E5B92E"/>
<path d="M31.2625 11.7874C31.3215 11.856 31.3674 11.9183 31.4245 11.9886C31.7634 12.6748 31.7611 13.3705 31.4441 14.0374C31.1167 14.7263 30.5353 14.8773 29.9415 14.9728C29.9565 15.1579 29.9704 15.3305 29.981 15.5251C29.7633 15.5442 29.5489 15.5414 29.3209 15.527C29.3079 15.3417 29.3086 15.168 29.3109 14.9748C29.3125 14.9554 29.3189 14.9489 29.3362 14.9537C29.3812 15.1068 29.409 15.2551 29.4369 15.4045C29.5827 15.4125 29.7261 15.4204 29.8712 15.4284C29.8544 14.8904 29.8544 14.8906 30.2668 14.7958C30.3268 14.782 30.3868 14.7672 30.4458 14.7482C31.0576 14.5505 31.4689 14.1174 31.5565 13.3098C31.6214 12.7115 31.5072 11.9755 30.9928 11.7065C30.7074 11.5573 30.4057 11.4557 30.1136 11.3252C30.0363 11.2907 29.9671 11.2289 29.8979 11.1757C29.9017 11.1718 29.9092 11.1641 29.9092 11.1641C30.3924 11.2503 30.8497 11.4213 31.2625 11.7874Z" fill="#E5B92E"/>
<path d="M29.3343 8.42633C29.3272 8.28123 29.3267 8.1486 29.3286 7.99417C29.5314 7.97052 29.7318 7.96867 29.9505 7.97072C29.9687 8.16571 29.9687 8.35679 29.9687 8.58105C30.7529 8.7241 31.3478 9.16095 31.4057 10.2989C31.3355 10.3218 31.2661 10.3238 31.1628 10.3256C31.0725 10.3279 31.016 10.3304 30.9595 10.333C30.9411 10.3308 30.9228 10.3285 30.8908 10.3297C30.5397 10.4429 30.3984 10.1645 30.2628 9.84778C30.2589 9.82839 30.2662 9.81847 30.2807 9.82035C30.3373 9.86062 30.405 9.88936 30.4174 9.93899C30.4947 10.2481 30.6886 10.2402 30.8908 10.2229C30.9383 10.2189 30.9861 10.2226 31.0338 10.2223C31.2965 10.221 31.3296 10.1423 31.2479 9.82375C31.0849 9.18884 30.7001 8.89624 30.2039 8.76832C29.877 8.68405 29.8688 8.68876 29.8583 8.2738C29.8534 8.07828 29.7679 8.06542 29.6463 8.06293C29.5165 8.06027 29.4414 8.09762 29.4412 8.28433C29.4412 8.37899 29.3928 8.47357 29.3662 8.56818C29.3662 8.56818 29.36 8.56136 29.3569 8.55798C29.3495 8.516 29.3452 8.4774 29.3343 8.42633Z" fill="#E5B92E"/>
<path d="M30.2555 9.83339C30.1557 9.78153 30.0596 9.72471 29.9009 9.63083C29.9009 10.1631 29.9009 10.6419 29.9052 11.1424C29.9096 11.1641 29.902 11.1718 29.8838 11.1673C29.8484 11.0859 29.8176 11.0095 29.8163 10.9323C29.8111 10.606 29.8034 10.2787 29.8209 9.95371C29.8276 9.82841 29.8991 9.70837 29.9411 9.58594C30.0496 9.66346 30.158 9.74098 30.2665 9.8185C30.2665 9.8185 30.2591 9.82842 30.2555 9.83339Z" fill="#E5B92E"/>
<path d="M30.9707 10.3418C31.0157 10.3305 31.0722 10.3279 31.1455 10.3292C31.1022 10.3389 31.0422 10.3447 30.9707 10.3418Z" fill="#E5B92E"/>
<path d="M22.1121 7.98076C22.1036 7.94836 22.1012 7.89884 22.1058 7.83264C22.1146 7.86519 22.1164 7.91442 22.1121 7.98076Z" fill="#E5B92E"/>
<path d="M30.5805 12.7507C30.7614 12.8237 30.8481 13.1679 30.7353 13.4096C30.5676 13.7688 30.2914 13.9382 29.973 14.0038C29.9291 14.0129 29.8242 13.9019 29.8226 13.8434C29.8102 13.3852 29.8106 12.926 29.8191 12.4675C29.8227 12.2776 29.9194 12.1864 30.068 12.2692C30.2602 12.3762 30.4885 12.4297 30.5679 12.7246C30.3577 12.5918 30.1606 12.4481 29.9187 12.2719C29.9187 12.8769 29.9187 13.3919 29.9187 13.9062C30.2231 13.8358 30.412 13.7166 30.5567 13.4964C30.5528 13.4935 30.5586 13.502 30.5713 13.4917C30.7264 13.2367 30.7088 12.9933 30.5805 12.7507Z" fill="#E5B92E"/>
<path d="M29.3243 10.9768C29.2891 11.0037 29.2519 11.0573 29.2193 11.0533C28.8894 11.0126 28.6435 10.6174 28.6693 10.1809C28.6878 9.86964 29.0051 9.54913 29.2888 9.55715C29.2982 9.55742 29.3071 9.57919 29.3177 9.60868C29.3192 9.62641 29.3143 9.63218 29.3002 9.63503C29.2033 9.67316 29.1169 9.69919 29.0384 9.74534C28.725 9.92952 28.6348 10.4187 28.8818 10.6939C28.9991 10.8247 29.1713 10.8811 29.32 10.9727C29.3214 10.9742 29.3243 10.9768 29.3243 10.9768Z" fill="#E5B92E"/>
<path d="M29.3218 9.62366C29.3506 9.66463 29.399 9.70797 29.3995 9.75217C29.404 10.1284 29.4007 10.5047 29.3962 10.881C29.3959 10.908 29.3685 10.9345 29.339 10.9691C29.3244 10.9769 29.3215 10.9742 29.3183 10.9496C29.3149 10.494 29.3147 10.0631 29.3145 9.6322C29.3145 9.6322 29.3193 9.62643 29.3218 9.62366Z" fill="#E5B92E"/>
<path d="M30.5603 13.4994C30.4118 13.7167 30.2229 13.8359 29.9185 13.9064C29.9185 13.392 29.9185 12.877 29.9185 12.272C30.1604 12.4483 30.3575 12.5919 30.5673 12.7428C30.5799 12.7502 30.5886 12.7408 30.5845 12.7458C30.7086 12.9934 30.7262 13.2369 30.5689 13.4701C30.6345 12.8797 30.4871 12.6092 30.0173 12.5238C30.0173 12.9369 30.0173 13.3445 30.0173 13.7759C30.2042 13.6808 30.3822 13.5901 30.5603 13.4994Z" fill="#E5B92E"/>
<path d="M29.3005 9.63513C29.3148 10.0632 29.315 10.4941 29.3171 10.9482C29.1716 10.8812 28.9994 10.8248 28.8821 10.694C28.6352 10.4188 28.7253 9.92963 29.0387 9.74545C29.1172 9.69929 29.2036 9.67326 29.3005 9.63513ZM29.1707 9.8234C28.9372 9.90785 28.8252 10.0693 28.8362 10.3051C28.8484 10.5662 28.9629 10.7185 29.2014 10.7677C29.2014 10.4499 29.2014 10.136 29.2068 9.81834L29.2072 9.80963C29.2072 9.80963 29.2008 9.82127 29.1707 9.8234Z" fill="#E5B92E"/>
<path d="M30.5563 13.4965C30.382 13.5901 30.204 13.6808 30.0171 13.7759C30.0171 13.3445 30.0171 12.9369 30.0171 12.5238C30.4869 12.6092 30.6343 12.8797 30.5559 13.4804C30.5582 13.5021 30.5524 13.4936 30.5563 13.4965Z" fill="#E5B92E"/>
<path d="M29.2014 9.82195C29.2014 10.1359 29.2014 10.4499 29.2014 10.7676C28.9629 10.7184 28.8484 10.5661 28.8362 10.3051C28.8251 10.0692 28.9372 9.9078 29.1859 9.8225C29.2011 9.82165 29.2014 9.82195 29.2014 9.82195Z" fill="#E5B92E"/>
<path d="M29.2007 9.82143C29.2006 9.82121 29.2069 9.80957 29.2069 9.80957C29.2069 9.80957 29.2065 9.81829 29.2038 9.82011C29.2012 9.82194 29.2008 9.82164 29.2007 9.82143Z" fill="#E5B92E"/>
</svg>
