<svg width="14" height="14" viewBox="0 0 14 14" fill="none" xmlns="http://www.w3.org/2000/svg">
<mask id="mask0_2087_3468" style="mask-type:alpha" maskUnits="userSpaceOnUse" x="0" y="0" width="14" height="14">
<rect width="14" height="14" fill="#D9D9D9"/>
</mask>
<g mask="url(#mask0_2087_3468)">
<path d="M11.3402 11.9583C10.2409 11.9583 9.13654 11.7027 8.02704 11.1915C6.91764 10.6803 5.89831 9.95921 4.96906 9.02821C4.03991 8.09711 3.31973 7.07774 2.80854 5.97008C2.29735 4.86253 2.04175 3.75911 2.04175 2.65981C2.04175 2.48316 2.10008 2.33597 2.21675 2.21823C2.33341 2.10049 2.47925 2.04163 2.65425 2.04163H4.55679C4.70408 2.04163 4.83402 2.0897 4.9466 2.18586C5.05919 2.28191 5.13079 2.40062 5.16142 2.54198L5.49581 4.25829C5.51895 4.41754 5.51409 4.55438 5.48123 4.66881C5.44827 4.78324 5.38916 4.87935 5.30389 4.95713L3.95669 6.26861C4.17349 6.66566 4.42121 7.04128 4.69985 7.39546C4.97839 7.74954 5.27998 8.08773 5.6046 8.41002C5.92466 8.73018 6.26494 9.02748 6.62544 9.30194C6.98594 9.5764 7.37521 9.8318 7.79327 10.0681L9.10227 8.74777C9.19356 8.65279 9.3041 8.58619 9.43389 8.54798C9.56359 8.50987 9.69839 8.50054 9.83829 8.51998L11.4581 8.84986C11.6054 8.88874 11.7256 8.9639 11.8187 9.07531C11.9118 9.18673 11.9584 9.31312 11.9584 9.45448V11.3458C11.9584 11.5208 11.8995 11.6666 11.7818 11.7833C11.6641 11.9 11.5169 11.9583 11.3402 11.9583ZM3.54266 5.44071L4.58377 4.44452C4.60244 4.42955 4.61459 4.40899 4.62023 4.38283C4.62587 4.35668 4.62494 4.33238 4.61746 4.30992L4.36385 3.00631C4.35637 2.97647 4.34329 2.95406 4.32462 2.93908C4.30596 2.92411 4.28165 2.91663 4.25171 2.91663H3.00425C2.98179 2.91663 2.96307 2.92411 2.9481 2.93908C2.93323 2.95406 2.92579 2.97277 2.92579 2.99523C2.95564 3.39384 3.02087 3.79877 3.1215 4.21002C3.22203 4.62137 3.36241 5.0316 3.54266 5.44071ZM8.61766 10.482C9.00432 10.6623 9.4076 10.8001 9.8275 10.8955C10.2475 10.9907 10.6399 11.0474 11.0048 11.0654C11.0273 11.0654 11.046 11.0579 11.061 11.0429C11.0759 11.0279 11.0834 11.0092 11.0834 10.9868V9.75956C11.0834 9.72962 11.0759 9.70531 11.061 9.68665C11.046 9.66798 11.0236 9.6549 10.9937 9.64742L9.76873 9.39833C9.74627 9.39085 9.72663 9.38993 9.70981 9.39556C9.69299 9.4012 9.6752 9.41336 9.65644 9.43202L8.61766 10.482Z" fill="#022C22"/>
</g>
</svg>
