<svg width="38" height="39" viewBox="0 0 38 39" fill="none" xmlns="http://www.w3.org/2000/svg">
<path d="M35.3317 17.0674C35.1964 12.937 33.4898 9.01398 30.5604 6.09907C27.4711 3.0092 23.3653 1.30811 19.0001 1.30811C10.1835 1.30811 2.97949 8.32564 2.66896 17.0674C1.98914 17.3686 1.41124 17.8604 1.0053 18.4833C0.599355 19.1062 0.382786 19.8335 0.381836 20.5771V24.8889C0.382936 25.9071 0.787899 26.8833 1.50787 27.6032C2.22784 28.3232 3.20402 28.7282 4.22221 28.7293C4.88099 28.7285 5.51256 28.4664 5.97839 28.0006C6.44422 27.5348 6.70627 26.9032 6.70705 26.2444V19.2209C6.70705 17.9343 5.72024 16.8851 4.46565 16.7604C4.92877 9.14442 11.2688 3.08936 19.0001 3.08936C22.8903 3.08936 26.5484 4.60579 29.3016 7.35901C31.8298 9.8872 33.3094 13.1825 33.5321 16.761C32.2787 16.8869 31.2936 17.9355 31.2936 19.2209V26.2438C31.2936 27.5412 32.2959 28.5969 33.5653 28.7067V30.4814C33.5642 31.4424 33.182 32.3637 32.5024 33.0431C31.8228 33.7226 30.9015 34.1047 29.9405 34.1057H27.2561C27.0752 33.578 26.7335 33.1203 26.2791 32.7968C25.8247 32.4733 25.2804 32.3002 24.7226 32.3019H21.9557C21.5585 32.3019 21.1773 32.3862 20.8282 32.5489C20.3607 32.7648 19.9648 33.11 19.687 33.5436C19.4093 33.9773 19.2614 34.4813 19.2607 34.9963C19.2607 35.7171 19.5416 36.394 20.0504 36.9004C20.2998 37.1519 20.5967 37.3512 20.9237 37.487C21.2508 37.6228 21.6016 37.6922 21.9557 37.6913H24.7226C25.8697 37.6913 26.8809 36.9497 27.2579 35.8869H29.9405C32.9217 35.8869 35.3466 33.462 35.3466 30.4814V28.3896C36.0224 28.0868 36.5963 27.5952 36.9993 26.9739C37.4023 26.3527 37.6172 25.6282 37.6183 24.8877V20.5759C37.6183 19.0119 36.6766 17.6653 35.3317 17.0674ZM4.92521 19.2209V26.2438C4.92521 26.6315 4.60993 26.9474 4.22162 26.9474C3.6757 26.9468 3.15231 26.7296 2.76629 26.3436C2.38027 25.9576 2.16312 25.4342 2.16249 24.8883V20.5765C2.16312 20.0306 2.38027 19.5072 2.76629 19.1212C3.15231 18.7351 3.6757 18.518 4.22162 18.5174C4.60993 18.5174 4.92521 18.8332 4.92521 19.2209ZM25.6162 35.1875C25.572 35.392 25.4592 35.5752 25.2966 35.7068C25.1339 35.8385 24.9312 35.9106 24.722 35.9113H21.9551C21.7117 35.9113 21.4831 35.8163 21.3086 35.6417C21.2236 35.5574 21.1562 35.457 21.1104 35.3464C21.0645 35.2358 21.041 35.1172 21.0414 34.9975C21.042 34.7554 21.1385 34.5234 21.3097 34.3522C21.481 34.1811 21.713 34.0848 21.9551 34.0843H24.722C24.9655 34.0843 25.1941 34.1787 25.368 34.3533C25.5402 34.5249 25.6352 34.754 25.6352 34.9975C25.6358 35.0628 25.6287 35.1281 25.6162 35.1875ZM35.837 24.8883C35.8364 25.4342 35.6192 25.9576 35.2332 26.3436C34.8472 26.7296 34.3238 26.9468 33.7779 26.9474C33.5913 26.9473 33.4125 26.8731 33.2806 26.7412C33.1486 26.6093 33.0745 26.4304 33.0743 26.2438V19.2209C33.0743 18.8332 33.3896 18.5174 33.7779 18.5174C34.3238 18.518 34.8472 18.7351 35.2332 19.1212C35.6192 19.5072 35.8364 20.0306 35.837 20.5765V24.8883Z" fill="#022C22"/>
<path d="M24.767 25.1953C25.7676 25.1942 26.7269 24.7962 27.4344 24.0887C28.1419 23.3812 28.5398 22.422 28.5409 21.4214V13.7318C28.5409 12.7259 28.1479 11.7783 27.4342 11.0646C26.7205 10.3509 25.7735 9.95789 24.767 9.95789H13.2329C12.2323 9.95899 11.273 10.3569 10.5655 11.0644C9.85804 11.7719 9.46008 12.7312 9.45898 13.7318V21.4214C9.46008 22.422 9.85804 23.3812 10.5655 24.0887C11.273 24.7962 12.2323 25.1942 13.2329 25.1953H13.3035V27.1879C13.3023 27.4312 13.3493 27.6724 13.4416 27.8975C13.534 28.1226 13.6699 28.3272 13.8417 28.4996C14.0134 28.672 14.2175 28.8087 14.4422 28.9019C14.667 28.9952 14.9079 29.043 15.1513 29.0428C15.3944 29.0433 15.6352 28.9948 15.8592 28.9002C16.0832 28.8057 16.2859 28.667 16.4551 28.4924L19.77 25.1953H24.767ZM18.7755 23.6729L15.1881 27.2408C15.172 27.2574 15.1602 27.2699 15.1263 27.255C15.0854 27.2384 15.0854 27.2117 15.0854 27.1879V24.3047C15.0854 24.0685 14.9915 23.8419 14.8245 23.6749C14.6575 23.5079 14.4309 23.414 14.1947 23.414H13.2335C12.7052 23.4134 12.1987 23.2033 11.8251 22.8297C11.4516 22.4562 11.2415 21.9497 11.2408 21.4214V13.7318C11.2415 13.2035 11.4516 12.697 11.8251 12.3235C12.1987 11.9499 12.7052 11.7398 13.2335 11.7391H24.7676C25.2985 11.7391 25.7978 11.9469 26.1754 12.324C26.553 12.7016 26.7603 13.2015 26.7603 13.7318V21.4214C26.7596 21.9497 26.5495 22.4562 26.1759 22.8297C25.8024 23.2033 25.2959 23.4134 24.7676 23.414H19.4037C19.168 23.414 18.9424 23.5073 18.7755 23.6729Z" fill="#022C22"/>
<path d="M14.6733 16.4048C13.949 16.4048 13.3594 16.995 13.3594 17.7188C13.3594 18.4425 13.9496 19.0327 14.6733 19.0327C15.3983 19.0327 15.9885 18.4425 15.9885 17.7188C15.9885 16.995 15.3989 16.4048 14.6733 16.4048ZM18.9994 16.4048C18.275 16.4048 17.6854 16.995 17.6854 17.7188C17.6854 18.4425 18.2756 19.0327 18.9994 19.0327C19.725 19.0327 20.3146 18.4425 20.3146 17.7188C20.3146 16.995 19.725 16.4048 18.9994 16.4048ZM23.3255 16.4048C22.6011 16.4048 22.0115 16.995 22.0115 17.7188C22.0115 18.4425 22.6017 19.0327 23.3255 19.0327C24.0504 19.0327 24.6406 18.4425 24.6406 17.7188C24.6406 16.995 24.0504 16.4048 23.3255 16.4048Z" fill="#022C22"/>
</svg>
