<svg width="10" height="10" viewBox="0 0 10 10" fill="none" xmlns="http://www.w3.org/2000/svg">
<g clip-path="url(#clip0_2087_3473)">
<path d="M9.22961 6.257C9.09203 6.257 8.98056 6.36847 8.98056 6.50605V8.71735C8.98006 9.12983 8.64588 9.46411 8.2334 9.46451H1.24526C0.832754 9.46411 0.498602 9.12983 0.498103 8.71735V2.22731C0.498602 1.81491 0.832779 1.48066 1.24526 1.48016H3.45659C3.59414 1.48016 3.70564 1.36866 3.70564 1.23111C3.70564 1.09363 3.59414 0.982056 3.45659 0.982056H1.24526C0.557826 0.982828 0.00077206 1.53988 0 2.22731V8.71745C0.00077206 9.40486 0.557826 9.96192 1.24526 9.96271H8.2334C8.92081 9.96192 9.47789 9.40486 9.47866 8.71745V6.50605C9.47866 6.36847 9.36716 6.257 9.22961 6.257Z" fill="#022C22"/>
<path d="M9.38011 0.341202C8.94243 -0.0964814 8.2328 -0.0964814 7.79515 0.341202L3.35186 4.78446C3.32145 4.81487 3.29943 4.85264 3.28796 4.89409L2.70366 7.00356C2.69186 7.04603 2.69156 7.09087 2.70277 7.1335C2.71398 7.17613 2.73631 7.21502 2.76748 7.24619C2.79864 7.27737 2.83752 7.29971 2.88015 7.31094C2.92277 7.32216 2.96761 7.32187 3.01009 7.31009L5.11956 6.72569C5.16101 6.71422 5.19878 6.6922 5.22919 6.66179L9.67232 2.21845C10.1093 1.78045 10.1093 1.07145 9.67232 0.633464L9.38011 0.341202ZM3.89452 4.94634L7.531 1.30979L8.70379 2.48257L5.06723 6.11913L3.89452 4.94634ZM3.66026 5.41643L4.5972 6.35349L3.30118 6.71257L3.66026 5.41643ZM9.32019 1.86627L9.05604 2.13036L7.88316 0.957481L8.1474 0.693361C8.39053 0.450237 8.78473 0.450237 9.02783 0.693361L9.32019 0.985598C9.56291 1.22902 9.56291 1.62295 9.32019 1.86627Z" fill="#022C22"/>
</g>
<defs>
<clipPath id="clip0_2087_3473">
<rect width="10" height="10" fill="white"/>
</clipPath>
</defs>
</svg>
