<svg width="20" height="18" viewBox="0 0 20 18" fill="none" xmlns="http://www.w3.org/2000/svg">
<path d="M17.3331 0.771635C17.0318 0.766455 16.7339 0.83524 16.4654 0.971963C16.1969 1.10869 15.966 1.30917 15.793 1.55586L11.6357 7.532C11.3475 7.94301 11.0759 8.59495 10.8822 9.2965C10.7802 9.63723 10.7231 9.98978 10.7121 10.3453C10.7074 10.6925 10.7546 11.1319 11.168 11.42C11.5814 11.7082 12.0066 11.5996 12.3325 11.4744C12.6585 11.3515 12.9656 11.1626 13.2608 10.95C13.8514 10.5248 14.3639 10.0453 14.6545 9.63192L18.8118 3.65577C19.0878 3.25498 19.1945 2.76147 19.1087 2.28247C19.0228 1.80347 18.7515 1.37768 18.3535 1.09761C18.0538 0.888974 17.6983 0.77539 17.3331 0.771635ZM4.0297 0.986587C3.34469 0.986587 2.77778 1.55586 2.77778 2.23851V4.73998H1.52586C1.35985 4.73998 1.20063 4.80593 1.08324 4.92332C0.965851 5.04071 0.899902 5.19993 0.899902 5.36594C0.899902 5.53196 0.965851 5.69117 1.08324 5.80856C1.20063 5.92595 1.35985 5.9919 1.52586 5.9919H2.77778V8.49574H1.52586C1.35985 8.49574 1.20063 8.56169 1.08324 8.67908C0.965851 8.79647 0.899902 8.95568 0.899902 9.1217C0.899902 9.28771 0.965851 9.44693 1.08324 9.56432C1.20063 9.68171 1.35985 9.74766 1.52586 9.74766H2.77778V12.2515H1.52586C1.35985 12.2515 1.20063 12.3174 1.08324 12.4348C0.965851 12.5522 0.899902 12.7114 0.899902 12.8775C0.899902 13.0435 0.965851 13.2027 1.08324 13.3201C1.20063 13.4375 1.35985 13.5034 1.52586 13.5034H2.77778V16.0073C2.77778 16.6923 3.34469 17.2592 4.0297 17.2592H17.8008C18.4811 17.2592 19.0527 16.6923 19.0527 16.0073V6.63912C19.0527 6.4731 18.9868 6.31389 18.8694 6.1965C18.752 6.07911 18.5928 6.01316 18.4268 6.01316C18.2608 6.01316 18.1015 6.07911 17.9842 6.1965C17.8668 6.31389 17.8008 6.4731 17.8008 6.63912V16.012H4.0297V13.5034H5.28162C5.44795 13.5034 5.60746 13.4373 5.72507 13.3197C5.84269 13.2021 5.90876 13.0426 5.90876 12.8763C5.90876 12.7099 5.84269 12.5504 5.72507 12.4328C5.60746 12.3152 5.44795 12.2491 5.28162 12.2491H4.0297V9.74766H5.28162C5.36382 9.74766 5.44522 9.73147 5.52116 9.70001C5.59711 9.66855 5.66611 9.62245 5.72424 9.56432C5.78237 9.50619 5.82847 9.43719 5.85993 9.36124C5.89139 9.2853 5.90758 9.2039 5.90758 9.1217C5.90758 9.0395 5.89139 8.9581 5.85993 8.88216C5.82847 8.80621 5.78237 8.7372 5.72424 8.67908C5.66611 8.62095 5.59711 8.57485 5.52116 8.54339C5.44522 8.51193 5.36382 8.49574 5.28162 8.49574H4.0297V5.9919H5.28162C5.44763 5.9919 5.60685 5.92595 5.72424 5.80856C5.84163 5.69117 5.90758 5.53196 5.90758 5.36594C5.90758 5.19993 5.84163 5.04071 5.72424 4.92332C5.60685 4.80593 5.44763 4.73998 5.28162 4.73998H4.0297V2.23614H13.4167C13.5827 2.23614 13.742 2.17019 13.8594 2.0528C13.9767 1.93541 14.0427 1.7762 14.0427 1.61018C14.0427 1.44417 13.9767 1.28495 13.8594 1.16756C13.742 1.05017 13.5827 0.984225 13.4167 0.984225L4.0297 0.986587ZM17.1961 2.02119C17.2728 2.0078 17.3514 2.00989 17.4272 2.02733C17.5031 2.04478 17.5747 2.07722 17.6378 2.12276C17.9118 2.31646 17.978 2.66605 17.7843 2.94242L17.489 3.3676L16.5111 2.71329L16.8182 2.27158C16.8616 2.207 16.9173 2.15164 16.9822 2.10867C17.047 2.0657 17.1197 2.03597 17.1961 2.02119ZM15.7954 3.74553L16.7733 4.39511L13.6293 8.9162C13.3019 9.29521 12.9326 9.63595 12.5286 9.9319C12.3584 10.0558 12.1765 10.1627 11.9853 10.2508C11.9947 10.0854 12.0231 9.87285 12.0892 9.62719C12.2475 9.05556 12.5664 8.38472 12.6632 8.24536L15.7954 3.74553Z" fill="#022C22"/>
</svg>
