<svg width="25" height="24" viewBox="0 0 25 24" fill="none" xmlns="http://www.w3.org/2000/svg">
<g clip-path="url(#clip0_4302_605)">
<path d="M20.7188 23.2492H4.78125C3.59231 23.2492 2.625 22.282 2.625 21.093V9.74829C2.625 9.3341 2.96077 8.99829 3.375 8.99829C3.78923 8.99829 4.125 9.3341 4.125 9.74829V21.093C4.125 21.4549 4.41938 21.7492 4.78125 21.7492H20.7188C21.0806 21.7492 21.375 21.4549 21.375 21.093V9.74829C21.375 9.3341 21.7108 8.99829 22.125 8.99829C22.5392 8.99829 22.875 9.3341 22.875 9.74829V21.093C22.875 22.2819 21.9077 23.2492 20.7188 23.2492Z" fill="black"/>
<path d="M24 12.3731C23.9015 12.3732 23.8039 12.3539 23.7129 12.3162C23.6219 12.2785 23.5392 12.2231 23.4697 12.1534L14.1421 2.82587C13.3745 2.05825 12.1255 2.05825 11.3579 2.82587L2.03033 12.1534C1.73746 12.4464 1.26257 12.4464 0.969691 12.1534C0.67677 11.8606 0.67677 11.3857 0.969691 11.0928L10.2973 1.76518C11.6497 0.412745 13.8503 0.412745 15.2027 1.76518L24.5303 11.0927C24.8232 11.3857 24.8232 11.8605 24.5303 12.1534C24.4607 12.2231 24.3781 12.2785 24.2871 12.3162C24.1961 12.3539 24.0985 12.3732 24 12.3731ZM15.75 23.2493H9.74999C9.33575 23.2493 8.99999 22.9134 8.99999 22.4993V15.843C8.99999 14.5507 10.0514 13.4993 11.3437 13.4993H14.1562C15.4486 13.4993 16.5 14.5507 16.5 15.843V22.4993C16.5 22.9134 16.1642 23.2493 15.75 23.2493ZM10.5 21.7493H15V15.843C15 15.3778 14.6215 14.9993 14.1562 14.9993H11.3437C10.8785 14.9993 10.5 15.3778 10.5 15.843V21.7493Z" fill="black"/>
</g>
<defs>
<clipPath id="clip0_4302_605">
<rect width="24" height="24" fill="white" transform="translate(0.75)"/>
</clipPath>
</defs>
</svg>
