<svg width="20" height="20" viewBox="0 0 20 20" fill="none" xmlns="http://www.w3.org/2000/svg">
<g clip-path="url(#clip0_4121_8226)">
<path d="M16.875 13.8145H3.12501C3.05988 13.8145 2.99638 13.7941 2.94339 13.7563C2.8904 13.7184 2.85055 13.665 2.82943 13.6033L0.773892 7.60824C0.747088 7.52981 0.752501 7.44394 0.788941 7.36949C0.825381 7.29504 0.889872 7.23809 0.968258 7.21113C1.01834 7.19411 1.07057 7.18985 1.119 7.19841C1.17633 7.20176 1.23161 7.22088 1.27876 7.25367C1.3259 7.28646 1.36307 7.33163 1.38615 7.38422C1.64025 7.96123 2.54415 9.82409 3.59861 9.82409C3.61166 9.82409 3.62493 9.82377 3.6383 9.82304C4.27436 9.7948 5.26908 9.06077 6.39619 5.72624C6.41713 5.66436 6.45694 5.6106 6.51001 5.5725C6.56308 5.53441 6.62676 5.51389 6.69208 5.51384C6.75746 5.51383 6.8212 5.53432 6.87432 5.57242C6.92745 5.61052 6.9673 5.66432 6.98826 5.72624C7.37301 6.86333 8.6628 9.80569 10.0021 9.80569C10.0057 9.80569 10.0091 9.80551 10.0128 9.80551C10.6478 9.79782 11.6242 9.08526 12.6697 5.73325C12.6895 5.66963 12.7292 5.61403 12.7829 5.57455C12.8366 5.53507 12.9015 5.51378 12.9681 5.51379H12.9711C13.0383 5.51443 13.1035 5.53671 13.157 5.57733C13.2105 5.61795 13.2495 5.67475 13.2682 5.73929C13.5877 6.83975 14.721 9.72201 16.1111 9.84236C16.9233 9.90924 17.8238 8.99014 18.7129 7.17465C18.7477 7.10314 18.8086 7.04765 18.883 7.0195C18.9574 6.99134 19.0397 6.99266 19.1132 7.02318C19.1866 7.05365 19.2457 7.11092 19.2784 7.18336C19.3111 7.2558 19.315 7.33797 19.2894 7.41319L17.1708 13.6033C17.1496 13.665 17.1098 13.7184 17.0567 13.7563C17.0037 13.7942 16.9401 13.8145 16.875 13.8145ZM3.34808 13.1896H16.6515L17.8758 9.61224C17.2841 10.2385 16.6834 10.5177 16.0568 10.4651C14.5172 10.3312 13.4608 8.1127 12.9695 6.80862C12.1019 9.23047 11.1333 10.4173 10.02 10.4303C10.0139 10.4303 10.0082 10.4307 10.0021 10.4307C8.44628 10.4307 7.24515 8.04545 6.70106 6.72975C5.77262 9.1797 4.7763 10.3978 3.66604 10.4475C3.09686 10.4694 2.60119 10.1859 2.17437 9.76513L3.34808 13.1896Z" fill="black"/>
<path d="M16.875 16.3146H3.12501C3.08397 16.3146 3.04332 16.3065 3.0054 16.2908C2.96748 16.2751 2.93302 16.2521 2.90401 16.2231C2.87499 16.194 2.85198 16.1596 2.8363 16.1216C2.82061 16.0837 2.81255 16.0431 2.81259 16.002V13.502C2.81259 13.3293 2.95225 13.1896 3.12501 13.1896C3.29777 13.1896 3.43757 13.3292 3.43757 13.502V15.6896H16.5625V13.502C16.5625 13.3293 16.7023 13.1896 16.8751 13.1896C17.0478 13.1896 17.1875 13.3292 17.1875 13.502V16.002C17.1875 16.043 17.1794 16.0837 17.1638 16.1216C17.1481 16.1595 17.1251 16.194 17.0961 16.223C17.067 16.2521 17.0326 16.2751 16.9947 16.2908C16.9568 16.3065 16.9161 16.3146 16.8751 16.3146H16.875ZM6.82122 6.13881C6.23162 6.13881 5.75189 5.65907 5.75189 5.06929C5.75189 4.47978 6.23162 4 6.82122 4C7.41096 4 7.8907 4.47996 7.8907 5.06947C7.8907 5.65898 7.41096 6.13881 6.82122 6.13881ZM6.82122 4.62512C6.57623 4.62512 6.37687 4.82452 6.37687 5.06947C6.37687 5.31465 6.57623 5.51382 6.82122 5.51382C7.06636 5.51382 7.26557 5.31447 7.26557 5.06947C7.26557 4.82434 7.06636 4.62512 6.82122 4.62512ZM12.8758 6.13881C12.2863 6.13881 11.8065 5.65907 11.8065 5.06929C11.8065 4.47978 12.2863 4 12.8759 4C13.4656 4 13.9453 4.47996 13.9453 5.06947C13.9453 5.65898 13.4656 6.13881 12.8758 6.13881ZM12.8758 4.62512C12.6309 4.62512 12.4315 4.82452 12.4315 5.06947C12.4315 5.31465 12.6309 5.51382 12.8758 5.51382C13.121 5.51382 13.3204 5.31465 13.3204 5.06947C13.3204 4.82452 13.121 4.62512 12.8759 4.62512H12.8758ZM18.9307 7.65245C18.3409 7.65245 17.8612 7.17271 17.8612 6.58311C17.8612 5.99361 18.3409 5.51382 18.9307 5.51382C19.5202 5.51382 20 5.99356 20 6.58316C20 7.17271 19.5202 7.65245 18.9307 7.65245ZM18.9307 6.13881C18.6855 6.13881 18.4863 6.33798 18.4863 6.58316C18.4863 6.82829 18.6855 7.02751 18.9307 7.02751C19.1756 7.02751 19.375 6.82829 19.375 6.58316C19.375 6.33798 19.1756 6.13881 18.9307 6.13881ZM1.06934 7.65245C0.479736 7.65245 0 7.17271 0 6.58311C0 5.99361 0.479736 5.51382 1.06934 5.51382C1.65903 5.51382 2.13881 5.99356 2.13881 6.58316C2.13881 7.17271 1.65884 7.65249 1.06929 7.65249L1.06934 7.65245ZM1.06934 6.13881C0.82434 6.13881 0.624939 6.33798 0.624939 6.58316C0.624939 6.82829 0.82434 7.02751 1.06929 7.02751C1.31447 7.02751 1.51382 6.82829 1.51382 6.58316C1.51382 6.33798 1.31447 6.13881 1.06934 6.13881Z" fill="black"/>
</g>
<defs>
<clipPath id="clip0_4121_8226">
<rect width="20" height="20" fill="white"/>
</clipPath>
</defs>
</svg>
