<svg width="25" height="24" viewBox="0 0 25 24" fill="none" xmlns="http://www.w3.org/2000/svg">
<path d="M19.0653 16.0769H5.77603V17.6923H19.0653V16.0769ZM18.4245 8.13785L18.796 11.4171L20.4006 11.2351L20.0302 7.95692L18.4245 8.13785ZM6.04526 11.4171L6.4168 8.13785L4.8111 7.95692L4.44064 11.2351L6.04526 11.4171ZM4.91126 14.048C5.54126 13.3071 5.93433 12.3895 6.04526 11.4171L4.44064 11.2351C4.36797 11.8862 4.10332 12.5009 3.68033 13.0012L4.91126 14.048ZM18.796 11.4171C18.9046 12.3871 19.2994 13.303 19.93 14.048L21.1609 13.0012C20.7379 12.501 20.4732 11.8862 20.4006 11.2351L18.796 11.4171ZM5.77603 16.0769C4.82079 16.0769 4.21449 14.8686 4.91126 14.048L3.68033 13.0012C2.1511 14.7997 3.35079 17.6923 5.77603 17.6923V16.0769ZM19.0653 17.6923C21.4905 17.6923 22.6891 14.8008 21.1609 13.0012L19.93 14.048C20.6279 14.8686 20.0205 16.0769 19.0653 16.0769V17.6923ZM20.0302 7.95692C19.5822 4.01 16.3277 1 12.4206 1V2.61538C15.4683 2.61538 18.0659 4.97062 18.4245 8.13785L20.0302 7.95692ZM6.4168 8.13785C6.77541 4.97062 9.37295 2.61538 12.4206 2.61538V1C8.51356 1 5.2591 4.01 4.8111 7.95692L6.4168 8.13785ZM16.4074 19.3217C16.4484 19.2216 16.4689 19.1143 16.4677 19.0062C16.4665 18.8981 16.4436 18.7913 16.4003 18.6921C16.357 18.593 16.2943 18.5036 16.2158 18.4292C16.1373 18.3548 16.0447 18.2969 15.9434 18.259C15.8422 18.221 15.7343 18.2038 15.6263 18.2083C15.5182 18.2129 15.4122 18.239 15.3144 18.2853C15.2167 18.3316 15.1292 18.3971 15.0572 18.4778C14.9853 18.5585 14.9302 18.6528 14.8954 18.7552L16.4074 19.3217ZM9.94587 18.7552C9.91105 18.6528 9.85602 18.5585 9.78404 18.4778C9.71206 18.3971 9.62461 18.3316 9.52687 18.2853C9.42912 18.239 9.32308 18.2129 9.21503 18.2083C9.10697 18.2038 8.99911 18.221 8.89784 18.259C8.79656 18.2969 8.70394 18.3548 8.62546 18.4292C8.54698 18.5036 8.48425 18.593 8.44097 18.6921C8.3977 18.7913 8.37478 18.8981 8.37356 19.0062C8.37234 19.1143 8.39285 19.2216 8.43387 19.3217L9.94587 18.7552ZM14.8954 18.7552C14.5476 19.6814 13.5891 20.3846 12.4206 20.3846V22C14.2353 22 15.8151 20.9048 16.4074 19.3217L14.8954 18.7552ZM12.4206 20.3846C11.2522 20.3846 10.2937 19.6825 9.94587 18.7552L8.43387 19.3217C9.02618 20.9048 10.606 22 12.4206 22V20.3846Z" fill="black"/>
</svg>
