<svg width="20" height="20" viewBox="0 0 20 20" fill="none" xmlns="http://www.w3.org/2000/svg">
<path d="M12.9186 16.4876H2.33426C1.94051 16.4876 1.59051 16.2813 1.39676 15.9376C1.20301 15.5907 1.21238 15.1844 1.42176 14.8501L2.15613 13.6719C2.43147 13.2281 2.57757 12.7162 2.57801 12.1938V7.91882C2.57801 6.57195 3.10301 5.3032 4.05301 4.34695C4.57176 3.82507 5.21238 3.41882 5.90613 3.17195C5.91863 3.1657 5.93113 3.15945 5.94676 3.1532C7.01863 2.7782 8.23113 2.7782 9.30301 3.1532C9.31551 3.15945 9.33113 3.16257 9.34363 3.17195C9.70926 3.3032 10.0686 3.48132 10.4061 3.7032C10.5499 3.79695 10.5905 3.9907 10.4968 4.13445C10.403 4.2782 10.2093 4.31882 10.0655 4.22507C9.75613 4.02507 9.43113 3.86257 9.09988 3.74695C9.08738 3.7407 9.07176 3.73757 9.05926 3.73132C8.14363 3.41882 7.10926 3.41882 6.19363 3.73132C6.18113 3.73757 6.16863 3.74382 6.15613 3.74695C5.53426 3.96257 4.96238 4.32195 4.49988 4.78757C4.08843 5.19842 3.7623 5.68659 3.54027 6.22398C3.31823 6.76137 3.20468 7.33737 3.20613 7.91882V12.1907C3.20613 12.8282 3.02801 13.4563 2.69051 14.0001L1.95613 15.1782C1.86863 15.3188 1.86551 15.4876 1.94676 15.6344C2.02801 15.7782 2.17176 15.8626 2.33738 15.8626H12.9218C13.0874 15.8626 13.2311 15.7751 13.3124 15.6313C13.3905 15.4876 13.3874 15.3188 13.2999 15.1813L12.5686 14.0001C12.5296 13.9298 12.5191 13.8472 12.5393 13.7694C12.5594 13.6916 12.6087 13.6245 12.6769 13.582C12.7451 13.5395 12.827 13.5248 12.9057 13.541C12.9844 13.5571 13.0539 13.6029 13.0999 13.6688L13.8311 14.8501C14.0405 15.1844 14.0499 15.5907 13.8593 15.9344C13.6624 16.2813 13.3124 16.4876 12.9186 16.4876Z" fill="#022C22"/>
<path d="M7.97495 19.1032H7.27183C5.6562 19.1032 4.34058 17.7875 4.34058 16.1719C4.34058 16 4.4812 15.8594 4.65308 15.8594H10.5937C10.7656 15.8594 10.9062 16 10.9062 16.1719C10.9062 17.7907 9.59058 19.1032 7.97495 19.1032ZM4.98745 16.4844C5.14058 17.6094 6.1062 18.4782 7.27183 18.4782H7.97495C9.14058 18.4782 10.1062 17.6094 10.2593 16.4844H4.98745ZM9.19995 3.76255C9.02808 3.76255 8.88745 3.62192 8.88745 3.45005V2.77817C8.88745 2.4438 8.7562 2.12505 8.51558 1.88755C8.27877 1.65225 7.95878 1.51976 7.62495 1.5188C7.29066 1.5188 6.97001 1.65138 6.73333 1.88747C6.49666 2.12356 6.36328 2.44388 6.36245 2.77817V3.45005C6.36245 3.62192 6.22183 3.76255 6.04995 3.76255C5.87808 3.76255 5.73745 3.62192 5.73745 3.45005V2.77817C5.73745 1.74067 6.58433 0.893799 7.62495 0.893799C8.12183 0.893799 8.60933 1.0938 8.95933 1.4438C9.13507 1.61867 9.27444 1.82663 9.36937 2.05565C9.46431 2.28468 9.51294 2.53025 9.51245 2.77817V3.45005C9.51245 3.62505 9.37183 3.76255 9.19995 3.76255ZM12.9937 13.1907C12.9198 13.191 12.8481 13.1651 12.7915 13.1177C12.7349 13.0702 12.6969 13.0041 12.6843 12.9313L12.5218 11.9532C12.4937 11.9438 12.4656 11.9344 12.4375 11.9219L11.675 12.5563C11.5531 12.6563 11.3781 12.65 11.2625 12.5438L9.7812 11.1688C9.72573 11.1172 9.69099 11.0472 9.68351 10.9718C9.67603 10.8964 9.69632 10.8209 9.74058 10.7594L10.3156 9.95005C10.3031 9.92192 10.2906 9.8938 10.2781 9.8688L9.2937 9.77817C9.13745 9.76255 9.01558 9.63442 9.00933 9.47817L8.93433 7.4563C8.92808 7.30005 9.04058 7.16255 9.1937 7.13755L10.1687 6.97505C10.1781 6.94692 10.1875 6.92192 10.2 6.8938L9.5687 6.1313C9.4687 6.00942 9.47495 5.83442 9.5812 5.7188L10.9562 4.23755C11.0625 4.12192 11.2406 4.1063 11.3656 4.1938L12.175 4.7688C12.2 4.7563 12.2281 4.7438 12.2531 4.73442L12.3437 3.74692C12.3593 3.59067 12.4875 3.4688 12.6437 3.46255L14.6656 3.38755C14.7412 3.38427 14.8155 3.40886 14.8742 3.45667C14.933 3.50447 14.9722 3.57217 14.9843 3.64692L15.15 4.62505C15.1781 4.63442 15.2062 4.6438 15.2312 4.6563L15.9937 4.02505C16.1156 3.92505 16.2906 3.9313 16.4062 4.03755L17.8875 5.41255C18.0031 5.5188 18.0218 5.6938 17.9281 5.82192L17.3531 6.62817C17.3656 6.6563 17.3781 6.6813 17.3906 6.70942L18.3781 6.80005C18.5343 6.81567 18.6562 6.9438 18.6625 7.10005L18.7375 9.12192C18.7437 9.27817 18.6312 9.41567 18.4781 9.44067L17.5031 9.60317C17.4937 9.6313 17.4812 9.65942 17.4718 9.68755L18.1031 10.45C18.2031 10.5719 18.1968 10.7469 18.0906 10.8625L16.7156 12.3438C16.6093 12.4594 16.4343 12.4782 16.3062 12.3875L15.4968 11.8125C15.4687 11.825 15.4406 11.8375 15.4156 11.85L15.325 12.8344C15.3093 12.9907 15.1812 13.1125 15.025 13.1188L13.0031 13.1938C13.0031 13.1907 13 13.1907 12.9937 13.1907ZM12.3843 11.2469C12.4281 11.2469 12.4718 11.2563 12.5125 11.275C12.6312 11.3282 12.7531 11.375 12.8843 11.4125C13 11.4469 13.0843 11.5438 13.1062 11.6594L13.2562 12.5532L14.7281 12.5L14.8093 11.6C14.8218 11.4813 14.9 11.3782 15.0125 11.3375C15.1389 11.2893 15.2621 11.233 15.3812 11.1688C15.4321 11.1422 15.4894 11.1302 15.5468 11.134C15.6041 11.1379 15.6593 11.1575 15.7062 11.1907L16.4437 11.7125L17.4468 10.6344L16.8687 9.93755C16.7937 9.84692 16.775 9.72192 16.8218 9.61255C16.8781 9.47817 16.925 9.35317 16.9625 9.2313C16.9968 9.11567 17.0937 9.0313 17.2093 9.00942L18.1031 8.85942L18.0468 7.38755L17.1468 7.30317C17.0281 7.29067 16.925 7.21255 16.8843 7.10317C16.8372 6.97828 16.7808 6.85711 16.7156 6.74067C16.6593 6.63442 16.6656 6.5063 16.7343 6.40942L17.2593 5.67192L16.1812 4.67192L15.4843 5.25005C15.3937 5.32505 15.2687 5.3438 15.1593 5.29692C15.0406 5.2438 14.9156 5.19692 14.7781 5.1563C14.6656 5.12192 14.5843 5.02505 14.5625 4.90942L14.4093 4.01567L12.9375 4.07192L12.8562 4.97505C12.8437 5.0938 12.7656 5.19692 12.6562 5.23755C12.5312 5.28442 12.4125 5.33755 12.2906 5.40317C12.2396 5.42976 12.1823 5.44179 12.125 5.43793C12.0677 5.43407 12.0125 5.41448 11.9656 5.3813L11.2281 4.85942L10.225 5.93755L10.8031 6.63442C10.8781 6.72505 10.8968 6.85005 10.85 6.9563C10.7875 7.10005 10.7437 7.2188 10.7093 7.33442C10.675 7.45005 10.5781 7.53442 10.4625 7.5563L9.57183 7.7063L9.62495 9.17817L10.525 9.26255C10.6437 9.27505 10.7468 9.35317 10.7875 9.46567C10.8312 9.5813 10.8875 9.7063 10.9562 9.83442C11.0125 9.93755 11.0031 10.0657 10.9343 10.1594L10.4125 10.8969L11.4906 11.8969L12.1875 11.3188C12.2437 11.2719 12.3125 11.2469 12.3843 11.2469Z" fill="#022C22"/>
<path d="M13.8342 10.9188C13.1698 10.9198 12.5298 10.6685 12.0436 10.2157C11.7896 9.98097 11.5846 9.69834 11.4403 9.38405C11.296 9.06976 11.2154 8.73002 11.203 8.38442C11.1498 6.93442 12.2842 5.70942 13.7373 5.6563C15.1873 5.60005 16.4123 6.73755 16.4655 8.19067C16.5186 9.64067 15.3842 10.8657 13.9311 10.9188H13.8342ZM13.8373 6.27817H13.7623C12.6561 6.3188 11.7905 7.25317 11.8311 8.35942C11.8498 8.89692 12.078 9.39067 12.4717 9.7563C12.8655 10.1219 13.3748 10.3157 13.9123 10.2907C15.0186 10.25 15.8842 9.31567 15.8436 8.20942C15.803 7.1313 14.9092 6.27817 13.8373 6.27817Z" fill="#022C22"/>
</svg>
