<svg width="280" height="280" viewBox="0 0 280 280" fill="none" xmlns="http://www.w3.org/2000/svg">
<path d="M140 259.644C208.802 259.644 264.578 227.442 264.578 187.718C264.578 147.994 208.802 115.791 140 115.791C71.1977 115.791 15.4224 147.994 15.4224 187.718C15.4224 227.442 71.1977 259.644 140 259.644Z" fill="#ECFDF5"/>
<path d="M104.16 193.446L117.04 200.878C117.473 201.099 117.953 201.215 118.44 201.215C118.926 201.215 119.406 201.099 119.84 200.878L171.813 170.839C172.58 170.397 172.575 169.686 171.813 169.243L158.827 161.84C158.393 161.619 157.913 161.504 157.427 161.504C156.94 161.504 156.461 161.619 156.027 161.84L104.16 191.845C103.415 192.287 103.415 193.004 104.16 193.446Z" fill="#E0E0E0"/>
<path d="M218.618 212.968C234.172 212.968 246.781 205.687 246.781 196.706C246.781 187.724 234.172 180.443 218.618 180.443C203.065 180.443 190.456 187.724 190.456 196.706C190.456 205.687 203.065 212.968 218.618 212.968Z" fill="#E0E0E0"/>
<path d="M62.1263 212.968C77.6799 212.968 90.2887 205.687 90.2887 196.706C90.2887 187.724 77.6799 180.443 62.1263 180.443C46.5726 180.443 33.9639 187.724 33.9639 196.706C33.9639 205.687 46.5726 212.968 62.1263 212.968Z" fill="#E0E0E0"/>
<path d="M52.5452 181.266C52.5452 181.266 51.7444 174.21 48.2388 168.734C44.7332 163.257 39.906 159.846 35.4092 159.488C30.9124 159.13 27.278 163.274 32.0884 166.113C36.8988 168.952 45.4556 171.858 49.3924 182.487L52.5452 181.266Z" fill="#022C22"/>
<path opacity="0.15" d="M52.5452 181.266C52.5452 181.266 51.7444 174.21 48.2388 168.734C44.7332 163.257 39.906 159.846 35.4092 159.488C30.9124 159.13 27.278 163.274 32.0884 166.113C36.8988 168.952 45.4556 171.858 49.3924 182.487L52.5452 181.266Z" fill="black"/>
<path d="M51.229 179.43H51.2738C51.3032 179.418 51.3301 179.4 51.3528 179.378C51.3755 179.356 51.3936 179.33 51.4061 179.301C51.4186 179.272 51.4252 179.24 51.4256 179.209C51.4259 179.177 51.42 179.145 51.4082 179.116C46.6594 167.423 37.621 162.546 33.4882 161.594C33.4266 161.58 33.3622 161.591 33.3088 161.625C33.2554 161.658 33.2173 161.711 33.2026 161.773C33.1951 161.804 33.1938 161.836 33.1988 161.867C33.2037 161.899 33.2149 161.929 33.2315 161.956C33.2482 161.983 33.27 162.006 33.2958 162.025C33.3216 162.043 33.3508 162.057 33.3818 162.064C37.4138 162.994 46.2618 167.787 50.949 179.295C50.9692 179.349 51.0097 179.394 51.0619 179.419C51.1141 179.444 51.174 179.448 51.229 179.43Z" fill="white"/>
<path d="M27.1994 179.57C27.6082 180.488 28.6106 180.964 29.5402 181.345C30.4698 181.726 31.4834 182.123 31.9874 182.991C33.0066 184.744 31.3378 187.208 32.4298 188.916C32.6836 189.259 33.0048 189.546 33.3737 189.759C33.7425 189.973 34.1512 190.109 34.5746 190.159C35.269 190.288 35.9746 190.288 36.6802 190.35C37.0156 190.343 37.3504 190.317 37.6826 190.271C38.6572 190.054 39.6762 190.162 40.5834 190.579C41.9778 191.363 42.4034 193.122 43.2546 194.499C43.7773 195.3 44.4675 195.979 45.2777 196.487C46.0879 196.996 46.9987 197.322 47.9474 197.445C48.5746 197.523 49.7394 197.641 50.3778 197.282L50.5066 197.198C50.5906 197.098 50.7026 196.974 50.7474 196.907C50.7502 196.892 50.7502 196.877 50.7474 196.862C50.9938 195.955 50.5906 195.009 50.5738 194.062C50.5738 194.006 50.5738 193.95 50.5738 193.894C50.613 192.802 50.6466 191.716 50.669 190.624C50.7213 188.619 50.7418 186.614 50.7306 184.61C50.7306 183.305 50.8706 181.877 50.3218 180.65C49.7114 179.301 48.1938 179.273 47.617 177.946C47.3874 177.419 47.2698 176.826 47.057 176.322C46.7154 175.535 46.1636 174.857 45.4622 174.363C44.7608 173.869 43.937 173.578 43.081 173.522C40.4322 173.387 38.041 175.532 35.409 175.336C34.7246 175.246 34.0459 175.117 33.3762 174.95C31.2314 174.552 28.7506 175.162 27.5466 176.977C27.2821 177.348 27.1121 177.778 27.0516 178.23C26.9911 178.682 27.0419 179.142 27.1994 179.57Z" fill="#022C22"/>
<path d="M51.0048 192.64C51.0619 192.624 51.1105 192.587 51.1399 192.535C51.1693 192.484 51.1771 192.423 51.1616 192.366C47.5216 178.64 33.04 176.658 29.68 176.904C29.6506 176.906 29.6219 176.914 29.5955 176.927C29.5691 176.941 29.5456 176.959 29.5264 176.981C29.5071 177.004 29.4925 177.03 29.4833 177.058C29.4741 177.086 29.4706 177.115 29.4728 177.145C29.475 177.174 29.4829 177.203 29.4962 177.229C29.5094 177.256 29.5278 177.279 29.5502 177.298C29.5725 177.318 29.5985 177.332 29.6266 177.341C29.6546 177.351 29.6842 177.354 29.7136 177.352C33.0232 177.117 47.1856 179.032 50.764 192.5C50.7833 192.546 50.8173 192.585 50.8608 192.611C50.9043 192.636 50.9549 192.646 51.0048 192.64Z" fill="white"/>
<path d="M34.9273 185.702C34.9715 185.692 35.0123 185.671 35.0449 185.64C36.3795 184.477 37.9544 183.623 39.6571 183.139C41.3599 182.655 43.1486 182.553 44.8953 182.84C44.9548 182.849 45.0153 182.834 45.0636 182.798C45.1119 182.762 45.144 182.709 45.1529 182.65C45.1619 182.59 45.1468 182.53 45.1111 182.481C45.0754 182.433 45.022 182.401 44.9625 182.392C43.145 182.094 41.2839 182.202 39.5131 182.708C37.7422 183.215 36.1054 184.107 34.7201 185.321C34.699 185.342 34.6822 185.367 34.6707 185.394C34.6592 185.421 34.6533 185.451 34.6533 185.48C34.6533 185.51 34.6592 185.54 34.6707 185.567C34.6822 185.594 34.699 185.619 34.7201 185.64C34.7477 185.665 34.7807 185.684 34.8166 185.695C34.8525 185.705 34.8904 185.708 34.9273 185.702Z" fill="white"/>
<path d="M230.311 183.742C230.216 180.382 231.151 174.742 234.466 169.114C238.011 163.089 242.693 159.034 246.624 160.283C250.292 161.403 249.486 166.393 243.975 171.808C240.111 175.61 236.197 180.432 234.41 185.937L231.314 193.032L230.311 183.742Z" fill="#022C22"/>
<path d="M230.311 183.742C230.216 180.382 231.151 174.742 234.466 169.114C238.011 163.089 242.693 159.034 246.624 160.283C250.292 161.403 249.486 166.393 243.975 171.808C240.111 175.61 236.197 180.432 234.41 185.937L231.314 193.032L230.311 183.742Z" fill="#022C22"/>
<g opacity="0.15">
<path d="M230.311 183.742C230.216 180.382 231.151 174.742 234.466 169.114C238.011 163.089 242.693 159.034 246.624 160.283C250.292 161.403 249.486 166.393 243.975 171.808C240.111 175.61 236.197 180.432 234.41 185.937L231.314 193.032L230.311 183.742Z" fill="black"/>
</g>
<path d="M230.922 186.25C230.97 186.244 231.016 186.224 231.053 186.192C231.089 186.16 231.116 186.118 231.129 186.071C233.487 176.467 239.467 166.359 245.039 162.551C245.091 162.515 245.126 162.46 245.137 162.399C245.149 162.337 245.136 162.273 245.101 162.221C245.084 162.194 245.062 162.171 245.036 162.154C245.01 162.136 244.98 162.124 244.949 162.118C244.918 162.112 244.886 162.113 244.856 162.12C244.825 162.127 244.796 162.141 244.771 162.159C239.115 166.012 233.05 176.238 230.664 185.942C230.65 186.004 230.661 186.068 230.693 186.123C230.725 186.177 230.777 186.217 230.838 186.234L230.922 186.25Z" fill="white"/>
<path d="M230.278 194.634C232.134 196.279 234.389 197.408 236.818 197.91C241.013 198.834 242.978 196.918 242.978 196.918C242.978 196.918 241.545 192.853 239.21 191.598C241.785 192.331 244.217 193.497 246.4 195.048C246.4 195.048 248.982 195.238 250.247 191.358C250.247 191.358 248.858 188.894 243.796 187.303C243.796 187.303 246.971 186.704 251.401 188.121C251.731 188.278 253.473 183.266 254.05 180.936C254.626 178.606 253.68 178.584 251.877 177.985C250.074 177.386 243.846 176.702 242.637 177.643C241.427 178.584 240.643 181.994 240.643 181.994C240.643 181.994 239.658 179.978 240.027 178.254C238.765 177.81 237.398 177.761 236.107 178.114C234.007 178.713 234.08 179.721 233.99 181.222C233.892 182.724 234.009 184.232 234.338 185.702C234.338 185.702 232.988 184.386 233.218 179.85C233.218 179.85 230.289 182.09 229.051 184.044C227.814 185.998 227.774 191.419 230.278 194.634Z" fill="#022C22"/>
<path d="M230.261 194.88C230.305 194.883 230.35 194.874 230.389 194.853C230.429 194.832 230.462 194.801 230.485 194.762C234.321 187.858 247.52 180.376 252.106 179.76C252.168 179.752 252.224 179.719 252.261 179.67C252.299 179.621 252.316 179.558 252.308 179.497C252.304 179.465 252.295 179.435 252.279 179.407C252.264 179.379 252.243 179.355 252.218 179.336C252.193 179.317 252.164 179.302 252.133 179.295C252.102 179.287 252.07 179.285 252.039 179.29C247.369 179.911 233.968 187.516 230.07 194.516C230.054 194.543 230.044 194.573 230.04 194.604C230.036 194.635 230.038 194.667 230.047 194.697C230.055 194.728 230.069 194.756 230.089 194.781C230.108 194.805 230.132 194.826 230.16 194.841C230.19 194.862 230.224 194.875 230.261 194.88Z" fill="white"/>
<path d="M170.901 95.2C170.445 94.1129 169.662 93.1948 168.661 92.5736L165.788 90.8936C165.592 89.0568 164.842 85.736 162.07 83.748C161.89 83.6196 161.703 83.5018 161.51 83.3952L151.43 77.5712C148.926 75.8912 146.283 76.9384 144.603 78.008L140.683 75.768C139.858 75.2548 138.899 75.0012 137.928 75.04V56.9128C137.928 53.2224 136.707 50.6184 134.781 49.4816L124.32 43.428C122.69 42.4312 120.546 42.4928 118.194 43.8536C113.098 46.7936 108.97 54.684 108.97 61.4712V104.087C108.97 122.808 104.462 138.074 104.563 153.787C104.614 161.885 108.153 172.39 108.153 175.655V192.64L118.692 198.716L168.308 170.072V151.76C168.308 146.104 168.963 141.378 170.923 125.882C172.883 110.387 172.855 99.3104 170.901 95.2Z" fill="#022C22"/>
<path opacity="0.15" d="M170.901 95.2C170.445 94.1129 169.662 93.1948 168.661 92.5736L165.788 90.8936C165.592 89.0568 164.842 85.736 162.07 83.748C161.89 83.6196 161.703 83.5018 161.51 83.3952L151.43 77.5712C148.926 75.8912 146.283 76.9384 144.603 78.008L140.683 75.768C139.858 75.2548 138.899 75.0012 137.928 75.04V56.9128C137.928 53.2224 136.707 50.6184 134.781 49.4816L124.32 43.428C122.69 42.4312 120.546 42.4928 118.194 43.8536C113.098 46.7936 108.97 54.684 108.97 61.4712V104.087C108.97 122.808 104.462 138.074 104.563 153.787C104.614 161.885 108.153 172.39 108.153 175.655V192.64L118.692 198.716L168.308 170.072V151.76C168.308 146.104 168.963 141.378 170.923 125.882C172.883 110.387 172.855 99.3104 170.901 95.2Z" fill="black"/>
<path opacity="0.15" d="M168.526 92.5288C167.701 92.0953 166.738 92.0009 165.844 92.2656C165.849 91.8222 165.826 91.379 165.777 90.9384L168.526 92.5288Z" fill="black"/>
<path opacity="0.15" d="M142.571 83.6192C140.813 85.0614 139.253 86.7275 137.928 88.5752V80.9424L142.571 83.6192Z" fill="black"/>
<path opacity="0.15" d="M144.542 78.0584L150.987 81.76C151.633 82.1507 152.171 82.6952 152.555 83.3448C152.946 84.011 153.21 84.7439 153.334 85.5064C154.208 84.6648 155.212 83.969 156.307 83.4456L145.785 77.3696C145.355 77.5704 144.94 77.8005 144.542 78.0584Z" fill="black"/>
<path d="M118.669 198.71V181.737C118.669 178.472 115.13 167.966 115.08 159.897C114.979 144.178 119.487 128.912 119.487 110.197V67.5807C119.487 60.7879 123.614 52.9031 128.71 49.9631C133.801 47.0231 137.928 50.1423 137.928 56.9351V88.5975C137.928 88.5975 142.665 81.7319 147.722 81.1999C152.779 80.6679 153.322 85.5399 153.322 85.5399C153.322 85.5399 157.903 80.8527 162.041 83.8151C166.029 86.6767 165.827 92.2879 165.827 92.2879C165.827 92.2879 168.929 91.1679 170.867 95.2391C172.805 99.3103 172.821 110.432 170.867 125.927C168.913 141.422 168.252 146.149 168.252 151.805V170.089L118.669 198.71Z" fill="#022C22"/>
<path d="M121.811 193.228C121.674 193.227 121.543 193.171 121.447 193.073C121.35 192.976 121.296 192.844 121.296 192.707V179.922C121.296 178.242 120.848 176.187 119.991 172.424C119.039 168.224 117.751 162.473 117.706 158.026C117.656 150.814 118.653 143.573 119.706 135.906C120.887 127.294 122.108 118.395 122.108 108.36V65.9792C122.108 61.3648 124.751 56.0504 128.122 53.8832C129.83 52.7632 131.516 52.584 132.866 53.3232C134.417 54.1688 135.307 56.1232 135.307 58.7272L136.186 99.3328C136.844 96.568 137.823 93.8898 139.104 91.3528C140.146 89.2752 143.024 85.708 146.311 85.0024C147.588 84.7224 148.904 85.3832 149.57 85.7976C150.003 86.0893 150.403 86.4272 150.763 86.8056C151.068 87.1146 151.402 87.394 151.76 87.64C152.734 88.2784 154.196 87.8192 155.602 87.3712C156.366 87.1018 157.178 86.9932 157.986 87.0519C158.795 87.1107 159.583 87.3357 160.3 87.7128C161.473 88.3864 162.356 89.4691 162.781 90.7536C162.975 91.35 163.113 91.963 163.195 92.5848C163.273 93.1734 163.408 93.753 163.598 94.3152C163.749 94.7883 164.028 95.2107 164.403 95.5357C164.779 95.8608 165.237 96.076 165.726 96.1576C166.958 96.3144 167.916 97.104 168.582 98.4928C169.87 101.186 170.486 110.09 168.347 127.002L167.961 130.094C166.281 143.483 165.693 148.014 165.693 153.614V167.703C165.679 167.831 165.619 167.95 165.523 168.036C165.428 168.122 165.304 168.17 165.175 168.17C165.046 168.17 164.922 168.122 164.826 168.036C164.73 167.95 164.67 167.831 164.657 167.703V153.602C164.657 147.924 165.217 143.405 166.93 129.976L167.322 126.874C169.428 110.18 168.874 101.5 167.647 98.9408C167.138 97.8712 166.466 97.3 165.592 97.188C164.917 97.0874 164.283 96.801 163.76 96.361C163.238 95.921 162.849 95.3445 162.635 94.696C162.415 94.0659 162.262 93.4147 162.176 92.7528C162.1 92.1945 161.976 91.6437 161.806 91.1064C161.466 90.0594 160.753 89.1743 159.802 88.62C159.206 88.3121 158.554 88.1303 157.885 88.0859C157.217 88.0416 156.546 88.1357 155.915 88.3624C154.353 88.8552 152.555 89.4152 151.189 88.508C150.784 88.225 150.409 87.9024 150.069 87.5448C149.761 87.2213 149.42 86.9321 149.05 86.6824C148.618 86.4136 147.515 85.8088 146.558 86.016C143.758 86.6096 141.086 89.768 140.062 91.8176C138.242 95.4688 137.222 98.7728 136.304 104.014C136.281 104.143 136.211 104.258 136.107 104.338C136.004 104.418 135.874 104.456 135.744 104.446C135.615 104.436 135.494 104.378 135.405 104.284C135.316 104.19 135.265 104.066 135.262 103.936L134.282 58.7384C134.282 56.4984 133.594 54.8912 132.39 54.2584C131.382 53.6984 130.071 53.8944 128.699 54.7792C125.647 56.7448 123.166 61.7792 123.166 65.9792V108.36C123.166 118.468 121.94 127.4 120.753 136.035C119.7 143.674 118.714 150.881 118.759 158.021C118.787 162.355 120.075 168.045 120.999 172.194C121.873 176.03 122.326 178.119 122.326 179.922V192.707C122.326 192.844 122.272 192.976 122.176 193.073C122.079 193.171 121.948 193.227 121.811 193.228Z" fill="white"/>
<path d="M118.462 151.71H118.412C118.276 151.695 118.152 151.629 118.064 151.525C117.976 151.42 117.932 151.286 117.942 151.15C118.429 146.11 121.486 137.385 123.715 131.023C124.421 129.013 125.031 127.277 125.423 126.028C127.103 120.658 128.654 119.398 133.235 116.222C137.816 113.047 144.788 106.742 144.861 106.702C144.94 106.632 145.038 106.587 145.144 106.574C145.249 106.561 145.355 106.581 145.449 106.63C145.611 106.714 149.335 108.769 147.745 115.774C146.266 122.27 138.953 130.536 130.732 134.994C130.672 135.026 130.607 135.046 130.539 135.053C130.471 135.06 130.403 135.053 130.338 135.033C130.273 135.013 130.212 134.981 130.16 134.938C130.107 134.894 130.064 134.841 130.032 134.781C129.999 134.721 129.978 134.656 129.97 134.588C129.963 134.521 129.969 134.452 129.988 134.387C130.007 134.322 130.04 134.261 130.083 134.209C130.126 134.156 130.179 134.113 130.239 134.081C138.225 129.752 145.314 121.761 146.731 115.545C147.896 110.426 146.009 108.349 145.253 107.744C143.853 108.998 137.922 114.257 133.829 117.096C129.276 120.249 128.022 121.285 126.414 126.364C126.011 127.63 125.401 129.371 124.695 131.404C122.483 137.71 119.454 146.345 118.978 151.278C118.957 151.4 118.893 151.509 118.799 151.588C118.705 151.667 118.585 151.71 118.462 151.71Z" fill="white"/>
<path d="M131.6 147.722C131.511 147.722 131.425 147.699 131.348 147.655C131.228 147.588 131.139 147.476 131.102 147.344C131.064 147.212 131.08 147.07 131.146 146.95C133.676 142.231 134.876 136.914 134.618 131.566C134.606 131.43 134.648 131.295 134.735 131.19C134.822 131.085 134.947 131.019 135.083 131.006C135.219 130.995 135.353 131.038 135.458 131.125C135.562 131.212 135.629 131.336 135.643 131.471C135.952 137.031 134.707 142.567 132.048 147.459C132.003 147.538 131.938 147.604 131.859 147.651C131.78 147.697 131.691 147.722 131.6 147.722Z" fill="white"/>
<path d="M134.546 116.435H134.512C134.444 116.43 134.377 116.412 134.315 116.381C134.254 116.35 134.2 116.307 134.155 116.255C134.11 116.203 134.076 116.143 134.055 116.078C134.033 116.012 134.025 115.944 134.03 115.875C134.03 115.819 134.417 110.533 135.251 103.858C135.278 103.729 135.351 103.615 135.458 103.539C135.564 103.463 135.696 103.429 135.826 103.446C135.956 103.462 136.075 103.527 136.16 103.627C136.244 103.727 136.288 103.855 136.282 103.986C135.447 110.628 135.066 115.892 135.066 115.948C135.058 116.08 134.999 116.204 134.902 116.295C134.806 116.385 134.678 116.435 134.546 116.435Z" fill="white"/>
<path d="M135.66 139.233C135.284 139.233 134.909 139.199 134.54 139.132C134.415 139.096 134.309 139.015 134.241 138.905C134.173 138.795 134.148 138.663 134.172 138.536C134.196 138.409 134.266 138.295 134.369 138.216C134.473 138.138 134.601 138.101 134.73 138.113C138.006 138.723 141.45 136.024 142.425 132.098C142.733 130.838 143.545 126.862 144.799 120.288C144.825 120.154 144.903 120.035 145.017 119.958C145.13 119.882 145.269 119.853 145.404 119.879C145.538 119.905 145.657 119.983 145.733 120.097C145.81 120.21 145.839 120.35 145.813 120.484C144.547 127.075 143.746 131.068 143.433 132.35C142.447 136.366 139.104 139.233 135.66 139.233Z" fill="white"/>
<path d="M147.325 110.32H147.229C147.162 110.308 147.098 110.283 147.041 110.245C146.984 110.208 146.934 110.16 146.896 110.104C146.857 110.048 146.83 109.985 146.816 109.918C146.803 109.851 146.802 109.782 146.815 109.715C148.142 102.682 149.189 97.0367 149.189 97.0367C149.201 96.9698 149.226 96.9059 149.262 96.8487C149.299 96.7915 149.346 96.7421 149.402 96.7035C149.458 96.6649 149.521 96.6378 149.587 96.6239C149.653 96.61 149.722 96.6094 149.789 96.6223C149.856 96.6338 149.921 96.6586 149.979 96.6954C150.037 96.7321 150.087 96.7801 150.126 96.8364C150.165 96.8928 150.192 96.9563 150.207 97.0234C150.221 97.0905 150.222 97.1598 150.209 97.2271C150.209 97.2271 149.161 102.872 147.834 109.906C147.81 110.023 147.746 110.128 147.653 110.203C147.56 110.279 147.444 110.32 147.325 110.32Z" fill="white"/>
<path d="M145.169 137.34C144.397 137.352 143.65 137.07 143.08 136.55C142.64 136.117 142.32 135.577 142.149 134.984C141.978 134.391 141.963 133.763 142.105 133.162C142.118 133.095 142.143 133.031 142.18 132.974C142.217 132.917 142.265 132.867 142.321 132.829C142.377 132.79 142.441 132.763 142.508 132.749C142.574 132.736 142.643 132.735 142.71 132.748C142.842 132.782 142.956 132.863 143.032 132.975C143.108 133.088 143.141 133.224 143.125 133.358C143.017 133.786 143.021 134.233 143.136 134.659C143.251 135.084 143.472 135.473 143.78 135.789C144.073 136.038 144.426 136.207 144.804 136.277C145.182 136.348 145.572 136.319 145.936 136.192C149.856 135.072 151.245 132.026 151.95 129.825C153.283 125.647 157.993 108.489 159.409 101.17C159.444 101.038 159.524 100.924 159.637 100.848C159.749 100.771 159.885 100.739 160.02 100.755C160.155 100.782 160.274 100.862 160.35 100.976C160.427 101.09 160.455 101.23 160.429 101.366C159.006 108.718 154.269 125.95 152.936 130.138C151.721 133.946 149.52 136.254 146.216 137.189C145.875 137.287 145.523 137.338 145.169 137.34Z" fill="white"/>
<path d="M154.823 134.333C154.45 134.344 154.079 134.272 153.736 134.123C153.393 133.974 153.088 133.751 152.841 133.47C151.951 132.468 151.721 130.67 152.236 128.89C152.283 128.767 152.374 128.666 152.491 128.608C152.608 128.549 152.743 128.537 152.869 128.574C152.995 128.611 153.103 128.694 153.17 128.806C153.237 128.919 153.26 129.052 153.233 129.181C152.819 130.581 152.975 132.065 153.614 132.782C153.82 133.001 154.082 133.162 154.372 133.245C154.661 133.329 154.968 133.333 155.26 133.258C156.94 132.983 159.119 131.488 160.3 128.778C161.532 125.899 165.508 110.858 165.547 110.684C165.559 110.612 165.585 110.543 165.625 110.482C165.664 110.421 165.716 110.369 165.777 110.329C165.838 110.289 165.907 110.263 165.978 110.251C166.05 110.239 166.124 110.243 166.194 110.261C166.264 110.28 166.33 110.313 166.387 110.358C166.444 110.404 166.491 110.461 166.524 110.525C166.558 110.59 166.577 110.661 166.582 110.734C166.586 110.806 166.575 110.879 166.55 110.947C166.387 111.569 162.512 126.241 161.252 129.186C159.852 132.468 157.248 133.98 155.451 134.282C155.243 134.316 155.033 134.333 154.823 134.333Z" fill="white"/>
<path d="M139.883 167.686L139.507 171.27C139.476 171.486 139.406 171.695 139.3 171.886C139.206 172.066 139.065 172.217 138.891 172.323L136.931 173.443C136.876 173.483 136.809 173.505 136.741 173.505C136.673 173.505 136.606 173.483 136.551 173.443C136.492 173.391 136.446 173.326 136.418 173.253C136.39 173.18 136.379 173.101 136.388 173.023V172.956L136.758 169.473L134.255 170.918L133.885 174.502C133.854 174.719 133.782 174.928 133.672 175.118C133.58 175.299 133.438 175.451 133.263 175.554L131.309 176.674C131.252 176.714 131.185 176.735 131.116 176.735C131.047 176.735 130.979 176.714 130.923 176.674C130.866 176.621 130.822 176.556 130.795 176.483C130.768 176.41 130.758 176.332 130.766 176.254V176.187L131.135 172.704L129.455 173.662C129.388 173.712 129.305 173.74 129.22 173.74C129.135 173.74 129.053 173.712 128.985 173.662C128.914 173.598 128.86 173.519 128.826 173.43C128.792 173.342 128.779 173.246 128.789 173.152V171.069C128.796 170.809 128.863 170.554 128.985 170.324C129.084 170.095 129.247 169.901 129.455 169.764L131.539 168.56L132.059 163.733L130.099 164.853C130.032 164.904 129.949 164.931 129.864 164.931C129.779 164.931 129.697 164.904 129.629 164.853C129.558 164.789 129.504 164.71 129.47 164.622C129.436 164.533 129.423 164.438 129.433 164.343V162.344C129.439 162.085 129.506 161.832 129.629 161.605C129.73 161.378 129.893 161.184 130.099 161.045L132.479 159.673L132.877 156.106C132.915 155.9 132.981 155.7 133.073 155.512C133.159 155.329 133.297 155.175 133.471 155.07L135.453 153.922C135.51 153.882 135.577 153.86 135.646 153.86C135.715 153.86 135.783 153.882 135.839 153.922C135.897 153.974 135.942 154.04 135.97 154.112C135.998 154.185 136.009 154.264 136.002 154.342V154.442L135.627 157.858L138.107 156.43L138.499 152.863C138.537 152.656 138.605 152.456 138.701 152.27C138.784 152.084 138.923 151.929 139.099 151.827L141.081 150.707C141.136 150.667 141.203 150.646 141.271 150.646C141.34 150.646 141.406 150.667 141.462 150.707C141.52 150.76 141.564 150.825 141.593 150.898C141.621 150.971 141.632 151.049 141.624 151.127V151.2L141.255 154.616L142.935 153.658C143.002 153.607 143.085 153.58 143.17 153.58C143.255 153.58 143.337 153.607 143.405 153.658C143.476 153.721 143.531 153.801 143.565 153.889C143.599 153.978 143.611 154.074 143.601 154.168V156.24C143.598 156.501 143.531 156.757 143.405 156.985C143.302 157.203 143.139 157.388 142.935 157.517L140.829 158.732L140.331 163.548L142.291 162.428C142.358 162.377 142.441 162.35 142.526 162.35C142.611 162.35 142.693 162.377 142.761 162.428C142.832 162.491 142.887 162.57 142.921 162.659C142.955 162.748 142.967 162.843 142.957 162.938V165.021C142.954 165.281 142.887 165.537 142.761 165.766C142.658 165.984 142.495 166.169 142.291 166.298L139.883 167.686ZM134.703 166.813L137.178 165.379L137.699 160.552L135.195 161.997L134.703 166.813Z" fill="white"/>
<path d="M145.309 154.246C145.249 154.167 145.206 154.077 145.182 153.981C145.158 153.884 145.153 153.784 145.169 153.686C145.198 153.421 145.288 153.166 145.432 152.942L150.808 144.189C150.942 143.982 151.077 143.774 151.217 143.573C151.334 143.391 151.491 143.238 151.676 143.125L153.608 142.005C153.676 141.954 153.758 141.926 153.843 141.926C153.928 141.926 154.01 141.954 154.078 142.005C154.149 142.068 154.204 142.147 154.238 142.236C154.272 142.324 154.285 142.42 154.274 142.514V163.856C154.272 164.117 154.205 164.373 154.078 164.601C153.977 164.828 153.814 165.022 153.608 165.161L151.603 166.314C151.535 166.365 151.453 166.393 151.368 166.393C151.283 166.393 151.201 166.365 151.133 166.314C151.06 166.251 151.005 166.171 150.97 166.081C150.934 165.992 150.921 165.895 150.931 165.799V149.447L147.414 155.12C147.307 155.322 147.139 155.485 146.933 155.585C146.857 155.619 146.772 155.63 146.69 155.615C146.608 155.6 146.532 155.56 146.473 155.501L145.309 154.246Z" fill="white"/>
<path d="M230.888 192.965C231.105 194.18 231.221 195.41 231.235 196.644C231.28 198.884 231.689 199.674 231.745 201.505C231.806 203.605 231.442 204.389 230.597 205.565C229.751 206.741 227.511 207.805 226.57 205.822C225.63 203.84 225.747 202.524 226.05 200.469C226.352 198.414 226.402 197.17 226.582 195.546C226.738 194.118 226.929 193.038 226.929 193.038L230.888 192.965Z" fill="#263238"/>
<path d="M224.56 175.392L231.918 175.258C231.812 180.174 231.028 188.35 230.905 192.965C230.877 193.833 230.905 199.685 230.597 201.494C230.104 204.176 226.923 203.812 226.75 202.21C226.576 200.609 226.957 193.743 226.946 193.038C226.946 190.081 225.59 182.358 224.862 177.055C224.812 176.792 224.56 175.644 224.56 175.392Z" fill="#FFA8A7"/>
<path d="M213.724 189.14C213.724 189.14 214.105 189.14 214.166 189.47C214.22 189.993 214.301 190.513 214.407 191.027C214.654 191.979 214.743 192.964 214.67 193.945C214.542 194.628 212.99 195.653 211.904 195.832C210.818 196.011 209.322 197.07 208.482 197.859C207.135 198.973 205.468 199.628 203.722 199.73C201.93 199.73 200.687 199.136 200.099 198.178C199.511 197.221 200.659 197.103 202.681 195.776L204.266 194.751C207.502 192.634 208.69 191.503 209.602 189.386L213.724 189.14Z" fill="#263238"/>
<path d="M209.58 187.986C209.631 186.48 208.88 175.28 208.88 175.28L215.214 175.991C213.719 184.951 213.595 187.975 213.763 189.274C213.797 189.397 213.81 189.523 213.803 189.65C213.803 191.386 211.843 192.321 210.314 193.48C209.709 193.934 208.158 195.345 206.338 195.961C205.162 196.364 202.978 196.521 202.709 195.798C204.568 194.382 207.099 192.522 208.578 190.904C209.255 190.109 209.524 189.51 209.58 187.986Z" fill="#FFA8A7"/>
<path d="M230.16 125.227C233.615 132.77 230.065 158.698 230.065 158.698C230.171 159.919 231.571 162.333 232.092 167.72C232.708 174.087 230.972 191.128 230.972 191.128C230.972 191.128 229.292 192.388 226.85 191.218C226.85 191.218 222.37 166.174 221.592 159.858C220.897 154.336 219.559 142.19 219.559 142.19L215.757 159.83C216.311 161.611 216.714 163.435 216.961 165.284C217.325 169.008 213.696 187.684 213.696 187.684C213.043 187.955 212.342 188.088 211.635 188.074C210.929 188.061 210.233 187.901 209.591 187.606C209.591 187.606 207.984 163.458 207.648 158.973C207.088 151.441 209.328 128.173 210.257 123.222L230.16 125.227Z" fill="#455A64"/>
<path d="M219.548 142.173L218.428 135.162C218.428 135.162 213.685 134.182 211.529 132.16C213.012 133.899 214.952 135.189 217.129 135.884L218.389 141.282L216.188 157.618L219.548 142.173Z" fill="#37474F"/>
<path d="M184.447 100.24C186.262 97.6304 187.202 98.3528 187.908 100.738C188.191 101.747 188.615 102.71 189.168 103.6C189.146 103.082 189.199 102.563 189.325 102.06C189.382 101.793 189.535 101.557 189.755 101.395C189.975 101.233 190.246 101.157 190.518 101.181C190.747 101.237 190.574 101.797 190.775 102.738C191.033 103.936 191.537 104.535 191.481 105.868C191.466 106.368 191.631 106.857 191.946 107.246C193.525 109.239 198.038 112.644 201.23 115.086C203.218 112.532 207.665 106.82 209.798 104.093C212.722 100.352 213.668 98.9016 217.078 98.5376C216.05 99.0017 215.151 99.709 214.458 100.598C213.136 102.189 214.833 109.659 214.833 109.659C214.833 109.659 204.753 119.98 203.683 120.982C203.526 121.128 203.37 121.262 203.207 121.386C202.692 121.781 202.059 121.992 201.409 121.983C200.76 121.973 200.132 121.745 199.629 121.335C196.666 118.944 192.091 114.055 189.504 111.513C188.319 110.285 187.222 108.975 186.222 107.593C183.428 103.886 183.31 101.881 184.447 100.24Z" fill="#FFA8A7"/>
<path d="M224 98.7616C228.48 99.0696 228.788 101.226 229.908 103.589C230.727 105.408 230.803 107.476 230.121 109.351L227.001 118.367C227.001 118.367 228.463 121.895 230.154 125.227C222.314 129.59 212.57 127.299 210.218 124.107C210.117 123.43 210.722 118.149 211.097 114.699C209.72 111.244 209.356 109.054 209.933 106.77C211.013 102.53 215.202 98.4032 217.056 98.5488L224 98.7616Z" fill="#022C22"/>
<path opacity="0.15" d="M222.012 126.073C222.625 125.932 223.203 125.67 223.713 125.303C224.222 124.935 224.654 124.47 224.982 123.934C225.31 123.398 225.528 122.802 225.623 122.181C225.718 121.559 225.688 120.926 225.535 120.316C225.507 120.221 225.479 120.137 225.456 120.07C225.348 119.742 225.133 119.46 224.846 119.269C224.558 119.078 224.215 118.989 223.871 119.017C224.373 118.684 224.803 118.255 225.139 117.756C225.474 117.256 225.708 116.695 225.826 116.105L226.235 114.85C227.179 112.001 227.228 108.931 226.375 106.053V105.974L229.701 104.082L230.261 104.485C230.737 106.079 230.694 107.783 230.138 109.351L227.019 118.367C227.019 118.367 228.48 121.895 230.171 125.227C227.628 126.596 224.82 127.405 221.938 127.598C219.055 127.791 216.165 127.365 213.461 126.347C216.303 126.795 219.204 126.702 222.012 126.073Z" fill="black"/>
<path d="M240.979 90.552C237.272 99.2824 232.21 104.474 229.88 110.074C226.823 109.866 224.443 102.491 226.716 99.3384C226.716 99.3384 235.458 89.2584 236.27 85.4672C236.987 82.1072 238.543 76.7088 238.459 73.8584C238.433 73.3825 238.234 72.9326 237.899 72.5928C236.959 71.5792 236.959 70.7672 236.354 69.6528C235.883 68.7848 235.374 68.46 235.519 68.264C235.712 68.0561 235.976 67.9289 236.259 67.9081C236.542 67.8873 236.822 67.9745 237.043 68.152C237.477 68.4705 237.865 68.8474 238.196 69.272C238.037 68.2071 237.728 67.17 237.278 66.192C236.242 63.8456 236.494 62.6472 239.663 63.4816C241.651 64.008 242.895 65.66 243.191 70.4312C243.333 72.4164 243.344 74.4086 243.225 76.3952C242.883 80.0688 242.508 83.5856 242.055 86.632C241.862 87.9786 241.501 89.2956 240.979 90.552Z" fill="#FFA8A7"/>
<path d="M248.673 63.532C248.501 62.8336 248.136 62.1973 247.621 61.6952C247.577 60.7498 247.304 59.8291 246.825 59.0128C245.963 57.3944 245.005 57.2656 245.005 57.2656C244.851 56.4164 244.441 55.6347 243.829 55.0256C242.777 53.9056 241.785 54.2024 241.785 54.2024V47.6C241.775 46.878 241.595 46.1686 241.26 45.5286C240.926 44.8887 240.446 44.3361 239.859 43.9152C239.675 43.7842 239.459 43.7064 239.233 43.6906C239.008 43.6748 238.783 43.7215 238.582 43.8256L236.437 45.0632L236.353 45.108C236.14 45.292 235.974 45.5253 235.87 45.7878C235.767 46.0502 235.729 46.334 235.76 46.6144V55.524C235.76 59.444 234.813 61.5384 234.836 64.848C234.836 66.528 235.586 69.6024 235.586 70.28V73.8304L245.957 79.8168L248.158 78.5456V74.7264C248.158 73.5448 248.293 72.7104 248.718 69.9496C249.144 67.1888 249.082 64.8592 248.673 63.532Z" fill="#022C22"/>
<path opacity="0.15" d="M248.673 63.532C248.501 62.8336 248.136 62.1973 247.621 61.6952C247.577 60.7498 247.304 59.8291 246.825 59.0128C245.963 57.3944 245.005 57.2656 245.005 57.2656C244.851 56.4164 244.441 55.6347 243.829 55.0256C242.777 53.9056 241.785 54.2024 241.785 54.2024V47.6C241.775 46.878 241.595 46.1686 241.26 45.5286C240.926 44.8887 240.446 44.3361 239.859 43.9152C239.675 43.7842 239.459 43.7064 239.233 43.6906C239.008 43.6748 238.783 43.7215 238.582 43.8256L236.437 45.0632L236.353 45.108C236.14 45.292 235.974 45.5253 235.87 45.7878C235.767 46.0502 235.729 46.334 235.76 46.6144V55.524C235.76 59.444 234.813 61.5384 234.836 64.848C234.836 66.528 235.586 69.6024 235.586 70.28V73.8304L245.957 79.8168L248.158 78.5456V74.7264C248.158 73.5448 248.293 72.7104 248.718 69.9496C249.144 67.1888 249.082 64.8592 248.673 63.532Z" fill="black"/>
<path opacity="0.15" d="M244.048 78.148L245.929 79.828L248.13 78.5568V74.7376C248.13 73.556 248.265 72.7216 248.69 69.9608C249.116 67.2 249.099 64.8704 248.69 63.5432C248.693 63.5322 248.693 63.5207 248.69 63.5096L244.613 65.8672L244.048 78.148Z" fill="black"/>
<path opacity="0.15" d="M247.621 61.6896C247.584 60.8823 247.376 60.092 247.011 59.3712L244.608 60.76L243.432 62.076L245.42 62.9664L247.621 61.6952V61.6896Z" fill="black"/>
<path opacity="0.15" d="M241.528 57.456L242.805 58.5368L245.005 57.2656C244.925 56.7354 244.734 56.228 244.445 55.776L241.528 57.456Z" fill="black"/>
<path opacity="0.15" d="M241.786 54.1912L239.585 55.4568V48.8432L241.786 47.572V54.1912Z" fill="black"/>
<path d="M235.559 73.8303V70.2799C235.559 69.6023 234.819 66.5503 234.808 64.8479C234.808 61.5383 235.732 59.4327 235.732 55.5239V46.6143C235.732 45.1975 236.595 44.5423 237.659 45.1583C238.245 45.5793 238.725 46.1319 239.06 46.7718C239.394 47.4117 239.574 48.1211 239.585 48.8431V55.4399C239.585 55.4399 240.576 55.1487 241.629 56.2575C242.239 56.8675 242.649 57.6488 242.805 58.4975C242.805 58.4975 243.763 58.6263 244.625 60.2447C245.104 61.0611 245.377 61.9817 245.42 62.9271C245.935 63.4293 246.3 64.0655 246.473 64.7639C246.887 66.0911 246.887 68.4151 246.473 71.1815C246.059 73.9479 245.913 74.7767 245.913 75.9583V79.7775L235.559 73.8303Z" fill="#022C22"/>
<path d="M245.28 78.6688C245.266 78.6696 245.251 78.6674 245.238 78.6624C245.224 78.6574 245.212 78.6497 245.201 78.6397C245.191 78.6298 245.182 78.6178 245.177 78.6045C245.171 78.5912 245.168 78.5769 245.168 78.5624V75.6C245.212 74.1264 245.371 72.6584 245.644 71.2096L245.728 70.6496C246.17 67.6704 246.047 65.7048 245.79 64.8648C245.684 64.5102 245.517 64.1767 245.297 63.8792C245.037 63.5471 244.847 63.1663 244.737 62.7592C244.697 62.5951 244.667 62.4287 244.647 62.2608C244.627 62.1102 244.599 61.9606 244.563 61.8128C244.466 61.4197 244.314 61.0425 244.11 60.6928C243.877 60.2922 243.582 59.9312 243.236 59.6232C242.865 59.3464 242.551 59.0002 242.312 58.604C242.234 58.4584 242.161 58.3016 242.094 58.156C242.026 58.0104 241.948 57.848 241.864 57.7024C241.714 57.4045 241.526 57.1277 241.304 56.8792C240.688 56.3192 240.184 56.3752 240.016 56.4984C239.586 56.9289 239.317 57.4945 239.254 58.1C239.249 58.1263 239.234 58.1495 239.212 58.1651C239.19 58.1806 239.163 58.1874 239.137 58.184C239.111 58.1826 239.087 58.1714 239.069 58.1526C239.051 58.1339 239.041 58.109 239.042 58.0832L238.834 48.3952C238.829 47.9272 238.71 47.4674 238.489 47.055C238.268 46.6426 237.95 46.2897 237.563 46.0264C237.463 45.969 237.349 45.9388 237.233 45.9388C237.117 45.9388 237.003 45.969 236.902 46.0264C236.762 46.1444 236.653 46.295 236.585 46.4648C236.517 46.6347 236.491 46.8187 236.51 47.0008V55.8992C236.494 57.6466 236.326 59.3892 236.006 61.1072C235.747 62.4624 235.608 63.8379 235.592 65.2176C235.667 66.3994 235.824 67.5745 236.062 68.7344C236.204 69.3686 236.298 70.0126 236.342 70.6608V73.36C236.346 73.3764 236.346 73.3935 236.342 73.4099C236.339 73.4263 236.331 73.4416 236.321 73.4548C236.31 73.4679 236.297 73.4785 236.282 73.4858C236.267 73.4931 236.25 73.4969 236.233 73.4969C236.216 73.4969 236.2 73.4931 236.185 73.4858C236.169 73.4785 236.156 73.4679 236.146 73.4548C236.135 73.4416 236.128 73.4263 236.124 73.4099C236.12 73.3935 236.12 73.3764 236.124 73.36V70.6888C236.078 70.054 235.986 69.4234 235.85 68.8016C235.609 67.6287 235.45 66.4405 235.374 65.2456C235.391 63.8546 235.532 62.4679 235.794 61.1016C236.113 59.3949 236.281 57.6635 236.298 55.9272V47.04C236.275 46.8209 236.309 46.5997 236.395 46.397C236.481 46.1943 236.617 46.0168 236.79 45.8808C236.922 45.8041 237.072 45.7637 237.224 45.7637C237.377 45.7637 237.527 45.8041 237.658 45.8808C238.081 46.1623 238.429 46.5424 238.672 46.9883C238.914 47.4341 239.045 47.9324 239.053 48.44L239.243 57.372C239.355 56.9877 239.574 56.6436 239.876 56.3808C240.111 56.1792 240.75 56.1064 241.45 56.7672C241.694 57.0297 241.903 57.3235 242.071 57.6408C242.155 57.792 242.234 57.9544 242.306 58.1056C242.379 58.2568 242.446 58.4024 242.519 58.5424C242.745 58.9153 243.042 59.2406 243.393 59.5C243.76 59.8186 244.071 60.1973 244.311 60.62C244.522 60.9695 244.684 61.3464 244.793 61.74C244.832 61.9024 244.854 62.0592 244.877 62.2104C244.895 62.371 244.925 62.5301 244.966 62.6864C245.067 63.0582 245.24 63.4064 245.476 63.7112C245.716 64.029 245.896 64.3876 246.008 64.7696C246.277 65.632 246.4 67.6312 245.952 70.6496L245.874 71.2096C245.599 72.6487 245.439 74.1075 245.398 75.572V78.5176C245.406 78.5356 245.41 78.5556 245.408 78.5755C245.406 78.5954 245.398 78.6143 245.386 78.6301C245.374 78.6459 245.357 78.6579 245.339 78.6647C245.32 78.6716 245.299 78.673 245.28 78.6688Z" fill="#FAFAFA"/>
<path d="M240.369 64.1816C239.51 64.1226 238.683 63.8366 237.972 63.3528C237.96 63.346 237.949 63.3366 237.94 63.3254C237.932 63.3141 237.926 63.3012 237.923 63.2875C237.92 63.2738 237.919 63.2595 237.922 63.2457C237.925 63.2319 237.93 63.2188 237.938 63.2072C237.945 63.1951 237.954 63.1844 237.966 63.1759C237.977 63.1673 237.989 63.161 238.003 63.1574C238.016 63.1537 238.031 63.1528 238.044 63.1546C238.058 63.1565 238.072 63.161 238.084 63.168C239.204 63.8456 240.268 64.12 240.884 63.8792C241.009 63.8342 241.122 63.7598 241.212 63.6624C241.303 63.565 241.369 63.4473 241.405 63.3192C241.534 62.5768 241.395 61.8126 241.013 61.1632C240.189 60.9533 239.382 60.6819 238.599 60.3512C237.619 59.8976 237.44 59.8696 237.149 60.4576C237.065 60.6256 236.936 60.844 236.785 61.096C236.218 61.9282 235.817 62.8617 235.603 63.8456C235.607 63.862 235.607 63.8791 235.603 63.8955C235.599 63.9119 235.592 63.9272 235.581 63.9404C235.571 63.9535 235.558 63.9641 235.542 63.9714C235.527 63.9787 235.511 63.9825 235.494 63.9825C235.477 63.9825 235.46 63.9787 235.445 63.9714C235.43 63.9641 235.417 63.9535 235.406 63.9404C235.396 63.9272 235.388 63.9119 235.385 63.8955C235.381 63.8791 235.381 63.862 235.385 63.8456C235.601 62.831 236.014 61.8685 236.6 61.012C236.745 60.76 236.874 60.5472 236.953 60.3848C237.345 59.5952 237.742 59.7408 238.689 60.1776C239.474 60.5062 240.282 60.7758 241.108 60.984C241.122 60.9874 241.135 60.9937 241.147 61.0023C241.158 61.011 241.168 61.0219 241.175 61.0344C241.209 61.0848 241.942 62.3392 241.612 63.4032C241.566 63.5614 241.483 63.7064 241.37 63.8262C241.257 63.946 241.117 64.0371 240.962 64.092C240.771 64.1558 240.57 64.1861 240.369 64.1816Z" fill="#FAFAFA"/>
<path d="M238.263 66.2929C238.24 66.2917 238.218 66.2835 238.2 66.2694C238.182 66.2552 238.168 66.2358 238.162 66.2137C238.155 66.1917 238.155 66.1681 238.162 66.1461C238.169 66.1242 238.183 66.1051 238.202 66.0913C239.036 65.5313 238.891 63.7841 238.891 63.7673C238.887 63.7509 238.887 63.7338 238.891 63.7174C238.894 63.701 238.902 63.6857 238.912 63.6725C238.923 63.6594 238.936 63.6488 238.951 63.6415C238.966 63.6342 238.983 63.6304 239 63.6304C239.017 63.6304 239.033 63.6342 239.048 63.6415C239.063 63.6488 239.077 63.6594 239.087 63.6725C239.098 63.6857 239.105 63.701 239.109 63.7174C239.113 63.7338 239.113 63.7509 239.109 63.7673C239.109 63.8457 239.266 65.6713 238.319 66.2929C238.301 66.2979 238.282 66.2979 238.263 66.2929Z" fill="#FAFAFA"/>
<path d="M238.879 60.48C238.851 60.4772 238.826 60.4642 238.807 60.4435C238.788 60.4228 238.778 60.3958 238.778 60.368C238.778 60.368 238.862 59.3432 239.036 58.128C239.038 58.1139 239.043 58.1004 239.05 58.0883C239.057 58.0761 239.067 58.0656 239.079 58.0572C239.09 58.0489 239.103 58.0429 239.117 58.0397C239.131 58.0364 239.145 58.036 239.159 58.0384C239.174 58.0396 239.187 58.0439 239.2 58.051C239.213 58.0581 239.224 58.0678 239.232 58.0795C239.241 58.0912 239.246 58.1046 239.249 58.1187C239.252 58.1329 239.252 58.1475 239.249 58.1616C239.075 59.3488 238.997 60.3568 238.997 60.368C238.998 60.3834 238.995 60.3989 238.989 60.4132C238.984 60.4276 238.975 60.4406 238.964 60.4512C238.953 60.4619 238.939 60.47 238.925 60.475C238.91 60.4799 238.894 60.4816 238.879 60.48Z" fill="#FAFAFA"/>
<path d="M240.24 66.2256C239.837 66.2256 239.322 65.8448 238.834 65.1896C238.824 65.1802 238.815 65.1685 238.809 65.1555C238.803 65.1425 238.8 65.1283 238.8 65.114C238.8 65.0997 238.803 65.0856 238.809 65.0725C238.815 65.0595 238.824 65.0479 238.834 65.0384C238.844 65.0284 238.856 65.0205 238.869 65.0151C238.882 65.0097 238.896 65.0069 238.91 65.0069C238.924 65.0069 238.938 65.0097 238.951 65.0151C238.964 65.0205 238.976 65.0284 238.986 65.0384C239.546 65.7944 240.033 66.0184 240.274 65.9792C240.335 65.9674 240.392 65.9378 240.437 65.8939C240.482 65.8501 240.512 65.7941 240.526 65.7328C240.593 65.5424 240.761 64.9096 241.024 63.84C241.027 63.8264 241.033 63.8136 241.042 63.8022C241.05 63.7909 241.06 63.7813 241.072 63.7741C241.084 63.7668 241.097 63.7619 241.111 63.7598C241.125 63.7577 241.139 63.7583 241.153 63.7616C241.166 63.7649 241.179 63.7708 241.191 63.7791C241.202 63.7873 241.211 63.7978 241.219 63.8097C241.226 63.8217 241.231 63.835 241.233 63.8488C241.235 63.8627 241.235 63.8768 241.231 63.8904C240.968 64.9656 240.8 65.6096 240.733 65.8C240.705 65.8989 240.651 65.9884 240.576 66.0585C240.501 66.1286 240.408 66.1767 240.307 66.1976L240.24 66.2256Z" fill="#FAFAFA"/>
<path d="M241.55 62.272C241.537 62.2687 241.524 62.2628 241.512 62.2545C241.501 62.2463 241.492 62.2359 241.484 62.2239C241.477 62.2119 241.472 62.1986 241.47 62.1848C241.468 62.171 241.468 62.1568 241.472 62.1432L241.965 60.0656C241.972 60.0377 241.991 60.0139 242.016 59.9993C242.041 59.9846 242.071 59.9803 242.099 59.9872C242.113 59.9905 242.125 59.9964 242.137 60.0047C242.148 60.013 242.158 60.0234 242.165 60.0353C242.172 60.0473 242.177 60.0606 242.179 60.0744C242.181 60.0883 242.181 60.1024 242.177 60.116C242.177 60.116 241.959 61.04 241.679 62.1936C241.676 62.2072 241.67 62.2201 241.662 62.2314C241.653 62.2427 241.643 62.2523 241.631 62.2596C241.619 62.2669 241.606 62.2717 241.592 62.2738C241.578 62.276 241.564 62.2754 241.55 62.272Z" fill="#FAFAFA"/>
<path d="M242.166 68.0569C241.802 68.0073 241.465 67.8332 241.214 67.5641C240.97 67.3586 240.776 67.1009 240.645 66.8101C240.514 66.5193 240.45 66.2028 240.458 65.8841C240.466 65.8573 240.484 65.8344 240.507 65.8199C240.531 65.8054 240.56 65.8003 240.587 65.8057C240.601 65.809 240.615 65.8151 240.627 65.8236C240.639 65.8321 240.649 65.843 240.657 65.8554C240.665 65.8679 240.67 65.8818 240.672 65.8963C240.675 65.9109 240.674 65.9257 240.671 65.9401C240.677 66.2158 240.742 66.4872 240.861 66.7362C240.979 66.9852 241.149 67.2063 241.36 67.3849C241.729 67.7041 242.032 67.8553 242.233 67.8161C242.299 67.7983 242.36 67.7645 242.41 67.7176C242.46 67.6707 242.497 67.6122 242.519 67.5473C243.135 66.195 243.656 64.8008 244.076 63.3753C244.084 63.3485 244.101 63.3256 244.125 63.3111C244.149 63.2966 244.177 63.2915 244.205 63.2969C244.219 63.3001 244.232 63.3062 244.244 63.3148C244.256 63.3235 244.266 63.3344 244.273 63.347C244.28 63.3596 244.285 63.3736 244.287 63.3881C244.288 63.4026 244.287 63.4173 244.283 63.4312C243.859 64.8715 243.335 66.2806 242.715 67.6481C242.676 67.7416 242.616 67.8248 242.539 67.8909C242.462 67.9571 242.371 68.0043 242.273 68.0289L242.166 68.0569Z" fill="#FAFAFA"/>
<path d="M244.042 69.664C243.697 69.6108 243.381 69.4408 243.146 69.1824C242.909 68.9675 242.732 68.694 242.634 68.3893C242.536 68.0846 242.519 67.7594 242.586 67.4464C242.592 67.4335 242.6 67.4218 242.61 67.4121C242.62 67.4023 242.632 67.3946 242.645 67.3894C242.658 67.3842 242.672 67.3816 242.686 67.3818C242.7 67.3819 242.714 67.3848 242.726 67.3904C242.739 67.3959 242.751 67.4039 242.761 67.4139C242.77 67.4239 242.778 67.4358 242.783 67.4488C242.789 67.4618 242.791 67.4757 242.791 67.4897C242.791 67.5037 242.788 67.5175 242.782 67.5304C242.734 67.8042 242.756 68.0858 242.848 68.3485C242.939 68.6112 243.096 68.8462 243.303 69.0312C243.499 69.259 243.772 69.4066 244.07 69.4456C244.11 69.4434 244.149 69.4334 244.184 69.4161C244.22 69.3988 244.252 69.3745 244.278 69.3448C244.695 68.5392 245.058 67.7067 245.364 66.8528C245.373 66.8261 245.392 66.804 245.417 66.7914C245.443 66.7788 245.472 66.7767 245.498 66.7856C245.526 66.7957 245.548 66.8159 245.56 66.842C245.573 66.8681 245.575 66.8981 245.566 66.9256C245.249 67.8024 244.875 68.6574 244.446 69.4848C244.35 69.5892 244.217 69.6532 244.076 69.664H244.042Z" fill="#FAFAFA"/>
<path d="M239.993 72.4641L239.915 73.1249C239.913 73.1403 239.909 73.1553 239.901 73.1688C239.893 73.1823 239.883 73.194 239.87 73.2033C239.858 73.2112 239.843 73.2155 239.828 73.2155C239.813 73.2155 239.799 73.2112 239.786 73.2033L239.377 72.9681C239.34 72.9483 239.311 72.9168 239.293 72.8785C239.272 72.8389 239.26 72.7947 239.26 72.7497L239.338 72.1113L238.817 71.8089L238.739 72.4697C238.735 72.5005 238.719 72.5285 238.694 72.5481C238.682 72.556 238.667 72.5603 238.652 72.5603C238.637 72.5603 238.623 72.556 238.61 72.5481L238.201 72.3129C238.165 72.2916 238.136 72.2605 238.117 72.2233C238.096 72.1837 238.084 72.1395 238.084 72.0945L238.162 71.4561L237.815 71.2545C237.775 71.2249 237.743 71.1866 237.72 71.1425C237.693 71.0944 237.678 71.0407 237.675 70.9857V70.5545C237.673 70.5335 237.676 70.5124 237.684 70.4929C237.691 70.4734 237.704 70.4561 237.72 70.4425C237.734 70.4328 237.75 70.4277 237.767 70.4277C237.784 70.4277 237.801 70.4328 237.815 70.4425L238.252 70.6889L238.358 69.8097L237.949 69.5745C237.91 69.5449 237.877 69.5066 237.854 69.4625C237.827 69.4144 237.812 69.3607 237.809 69.3057V68.8689C237.808 68.8489 237.811 68.8288 237.819 68.8104C237.827 68.7919 237.839 68.7755 237.854 68.7625C237.868 68.752 237.885 68.7464 237.902 68.7464C237.919 68.7464 237.936 68.752 237.949 68.7625L238.448 69.0537L238.532 68.4041C238.537 68.3745 238.55 68.3471 238.571 68.3257C238.583 68.3161 238.598 68.3109 238.613 68.3109C238.628 68.3109 238.643 68.3161 238.655 68.3257L239.069 68.5609C239.105 68.5833 239.133 68.6167 239.148 68.6561C239.169 68.6937 239.181 68.736 239.181 68.7793L239.109 69.4009L239.624 69.7033L239.708 69.0537C239.713 69.0241 239.726 68.9967 239.747 68.9753C239.759 68.9657 239.774 68.9605 239.789 68.9605C239.804 68.9605 239.819 68.9657 239.831 68.9753L240.245 69.2105C240.28 69.2342 240.307 69.2672 240.324 69.3057C240.345 69.3433 240.357 69.3856 240.357 69.4289L240.285 70.0561L240.632 70.2521C240.672 70.2816 240.704 70.3199 240.727 70.3641C240.752 70.4124 240.766 70.4662 240.766 70.5209V70.9577C240.769 70.9772 240.766 70.9971 240.76 71.0156C240.753 71.0341 240.742 71.0508 240.727 71.0641C240.713 71.0745 240.697 71.0802 240.679 71.0802C240.662 71.0802 240.646 71.0745 240.632 71.0641L240.189 70.8065L240.083 71.6969L240.492 71.9321C240.536 71.9582 240.571 71.9973 240.593 72.0441C240.619 72.0902 240.632 72.1423 240.632 72.1953V72.6321C240.635 72.6517 240.633 72.6717 240.626 72.6903C240.619 72.7089 240.608 72.7255 240.593 72.7385C240.578 72.7494 240.56 72.7553 240.542 72.7553C240.524 72.7553 240.506 72.7494 240.492 72.7385L239.993 72.4641ZM238.907 71.0305L239.428 71.3329L239.534 70.4481L239.013 70.1457L238.907 71.0305Z" fill="#FAFAFA"/>
<path d="M241.125 70.9632C241.102 70.9161 241.093 70.864 241.097 70.812C241.096 70.7926 241.101 70.7734 241.111 70.7566C241.121 70.7398 241.135 70.7261 241.153 70.7168L242.273 70.1568H242.357C242.371 70.149 242.388 70.1449 242.404 70.1449C242.421 70.1449 242.437 70.149 242.452 70.1568L242.855 70.392C242.899 70.4182 242.934 70.4573 242.956 70.504C242.982 70.5501 242.995 70.6023 242.995 70.6552V75.1352C242.997 75.1548 242.995 75.1747 242.988 75.1932C242.981 75.2117 242.97 75.2283 242.956 75.2416C242.941 75.2525 242.924 75.2584 242.905 75.2584C242.887 75.2584 242.869 75.2525 242.855 75.2416L242.435 74.9952C242.391 74.97 242.358 74.9305 242.34 74.8832C242.312 74.8375 242.297 74.7854 242.295 74.732V71.3216L241.561 71.6632C241.546 71.6721 241.529 71.6767 241.511 71.6767C241.493 71.6767 241.476 71.6721 241.461 71.6632C241.419 71.6286 241.386 71.5844 241.365 71.5344L241.125 70.9632Z" fill="#FAFAFA"/>
<path d="M210.129 97.3169H219.946C222.459 97.3169 224.869 96.3186 226.646 94.5416C228.423 92.7647 229.421 90.3546 229.421 87.8417V85.8593C229.421 83.2052 228.367 80.6598 226.49 78.7831C224.613 76.9064 222.068 75.8521 219.414 75.8521C216.954 75.852 214.595 76.828 212.854 78.5656C211.114 80.3032 210.133 82.6605 210.129 85.1201V97.3169Z" fill="#263238"/>
<path d="M213.36 81.2448C212.862 81.508 211.523 84.0448 211.68 89.6448C211.787 94.3712 213.315 95.5359 214.088 95.8719C214.861 96.2079 216.328 96.0063 217.779 95.7655V98.5599C217.779 98.5599 215.791 100.873 215.914 102.172C216.037 103.471 218.792 103.779 220.657 102.514C221.864 101.642 222.9 100.556 223.715 99.3103V92.4783C223.866 92.664 224.053 92.8177 224.265 92.9305C224.476 93.0433 224.708 93.1129 224.947 93.1353C225.185 93.1577 225.426 93.1324 225.655 93.061C225.884 92.9896 226.096 92.8734 226.279 92.7192C227.87 91.6608 227.931 89.0456 227.007 88.1048C226.083 87.164 224.084 87.4663 223.715 88.7655C223.715 88.7655 221.379 89.1743 218.249 87.1583C214.816 84.9855 213.775 83.2496 213.36 81.2448Z" fill="#FFA8A7"/>
<path d="M212.559 86.5312L213.881 85.8983C213.844 85.8101 213.79 85.7301 213.722 85.6635C213.654 85.5968 213.572 85.5449 213.483 85.5108C213.394 85.4767 213.299 85.4612 213.204 85.4652C213.108 85.4693 213.015 85.4928 212.929 85.5344C212.751 85.6217 212.614 85.7737 212.545 85.9591C212.477 86.1445 212.481 86.3493 212.559 86.5312Z" fill="#263238"/>
<path d="M218.025 86.1113L219.263 86.8897C219.317 86.8118 219.356 86.7236 219.375 86.6305C219.395 86.5373 219.395 86.4412 219.376 86.3479C219.357 86.2546 219.32 86.1661 219.265 86.0879C219.211 86.0096 219.142 85.9433 219.061 85.8929C218.893 85.7892 218.692 85.754 218.499 85.7947C218.306 85.8354 218.136 85.9487 218.025 86.1113Z" fill="#263238"/>
<path d="M223.72 87.4608L223.636 90.3504C223.446 90.3543 223.258 90.3196 223.082 90.2486C222.906 90.1775 222.746 90.0716 222.612 89.9371C222.478 89.8026 222.373 89.6424 222.302 89.466C222.232 89.2897 222.198 89.101 222.203 88.9112C222.221 88.521 222.389 88.1528 222.672 87.8828C222.954 87.6129 223.329 87.4618 223.72 87.4608Z" fill="#263238"/>
<path d="M225.12 78.1872L226.363 75.5776C226.539 75.6503 226.698 75.7581 226.831 75.8944C226.964 76.0306 227.068 76.1925 227.136 76.3702C227.204 76.5479 227.235 76.7376 227.227 76.9277C227.22 77.1178 227.173 77.3044 227.091 77.476C226.917 77.8253 226.615 78.094 226.248 78.2265C225.881 78.3589 225.477 78.3449 225.12 78.1872Z" fill="#263238"/>
<path d="M225.758 78.0248L228.637 77.7728C228.663 77.9607 228.651 78.1521 228.602 78.3352C228.552 78.5184 228.466 78.6896 228.348 78.8383C228.23 78.9871 228.083 79.1103 227.916 79.2005C227.749 79.2908 227.566 79.3461 227.377 79.3632C226.986 79.3918 226.6 79.2686 226.299 79.0192C225.997 78.7698 225.803 78.4135 225.758 78.0248Z" fill="#263238"/>
<path d="M217.431 88.2616C217.43 88.378 217.463 88.4921 217.527 88.5898C217.59 88.6874 217.681 88.7643 217.788 88.8107C217.894 88.8572 218.013 88.8713 218.127 88.8512C218.242 88.8311 218.348 88.7778 218.433 88.6977C218.517 88.6177 218.576 88.5146 218.603 88.4013C218.629 88.2879 218.622 88.1692 218.581 88.0601C218.541 87.9509 218.469 87.8561 218.375 87.7874C218.281 87.7186 218.169 87.6791 218.053 87.6736C217.973 87.6713 217.894 87.6848 217.82 87.7131C217.746 87.7415 217.678 87.7842 217.62 87.8388C217.562 87.8934 217.516 87.9588 217.484 88.0314C217.451 88.1039 217.433 88.1821 217.431 88.2616Z" fill="#263238"/>
<path d="M216.72 92.4448L215.342 92.8872C215.367 92.9793 215.411 93.0654 215.47 93.1403C215.529 93.2153 215.602 93.2776 215.686 93.3236C215.769 93.3696 215.861 93.3983 215.956 93.408C216.051 93.4177 216.147 93.4082 216.238 93.38C216.424 93.3172 216.579 93.1845 216.668 93.0099C216.758 92.8354 216.777 92.6327 216.72 92.4448Z" fill="#F28F8F"/>
<path d="M212.839 88.0096C212.832 88.0892 212.841 88.1694 212.866 88.2455C212.891 88.3215 212.93 88.3919 212.982 88.4524C213.034 88.5129 213.098 88.5624 213.17 88.5979C213.241 88.6334 213.319 88.6543 213.399 88.6592C213.555 88.6626 213.705 88.6065 213.821 88.5025C213.936 88.3984 214.008 88.2542 214.021 88.0992C214.027 88.0197 214.017 87.9398 213.992 87.8641C213.967 87.7884 213.928 87.7183 213.876 87.658C213.824 87.5976 213.76 87.5481 213.689 87.5124C213.618 87.4766 213.54 87.4553 213.461 87.4496C213.305 87.4462 213.154 87.5023 213.039 87.6064C212.923 87.7104 212.852 87.8547 212.839 88.0096Z" fill="#263238"/>
<path d="M215.74 87.6736L215.645 91.2464L213.763 90.664L215.74 87.6736Z" fill="#F28F8F"/>
<path d="M217.728 95.76C219.251 95.5584 222.376 94.64 222.863 93.4248C222.662 94.0543 222.271 94.606 221.743 95.004C220.808 95.8048 217.706 96.684 217.706 96.684L217.728 95.76Z" fill="#F28F8F"/>
<path d="M82.684 93.6321C84.196 91.4425 84.4816 87.4721 85.1592 73.2929C85.2432 71.6129 80.7408 74.5809 80.3824 75.6841C80.0912 76.5689 78.96 88.9449 78.0248 90.1657C76.0592 92.1089 68.6952 96.1465 65.6656 96.6225C62.636 97.0985 62.1992 99.2433 62.1992 99.2433C62.1992 99.2433 65.5592 106.523 70.0896 103.998C73.0968 102.329 81.648 95.1385 82.684 93.6321Z" fill="#B16668"/>
<path d="M63.0728 96.9136C64.5848 96.46 65.772 95.7936 67.8216 95.032C70.56 93.9792 73.6792 92.7136 73.6792 92.7136C73.6792 92.7136 78.5456 95.004 76.9384 99.6632L69.524 104.535L63.0728 96.9136Z" fill="#455A64"/>
<path d="M88.6929 56.6441C88.5993 56.4123 88.4346 56.2163 88.2225 56.0841L87.6233 55.7369C87.6018 55.4486 87.5217 55.1679 87.3878 54.9117C87.254 54.6556 87.0692 54.4295 86.8449 54.2473L86.7217 54.1745L84.6105 52.9537C84.391 52.8235 84.1374 52.7625 83.8827 52.7785C83.628 52.7944 83.384 52.8867 83.1825 53.0433L82.3705 52.5729C82.204 52.4651 82.0087 52.4105 81.8105 52.4161V48.6417C81.8433 48.3473 81.7998 48.0494 81.684 47.7767C81.5683 47.504 81.3843 47.2658 81.1497 47.0849L78.9601 45.8249C78.759 45.7197 78.5326 45.6723 78.3062 45.6882C78.0798 45.704 77.8622 45.7823 77.6777 45.9145C76.6137 46.5249 75.7513 48.1545 75.7513 49.5937V58.4977C75.7513 62.4177 74.8105 65.6041 74.8329 68.8857C74.8329 70.5657 75.5833 72.7721 75.5833 73.4553V77.0001L77.7841 78.2713L88.1553 72.2849V68.4657C88.2325 66.6528 88.4195 64.8463 88.7153 63.0561C89.1017 59.8193 89.1017 57.5009 88.6929 56.6441Z" fill="#022C22"/>
<path opacity="0.15" d="M88.6929 56.6441C88.5993 56.4123 88.4346 56.2163 88.2225 56.0841L87.6233 55.7369C87.6018 55.4486 87.5217 55.1679 87.3878 54.9117C87.254 54.6556 87.0692 54.4295 86.8449 54.2473L86.7217 54.1745L84.6105 52.9537C84.391 52.8235 84.1374 52.7625 83.8827 52.7785C83.628 52.7944 83.384 52.8867 83.1825 53.0433L82.3705 52.5729C82.204 52.4651 82.0087 52.4105 81.8105 52.4161V48.6417C81.8433 48.3473 81.7998 48.0494 81.684 47.7767C81.5683 47.504 81.3843 47.2658 81.1497 47.0849L78.9601 45.8249C78.759 45.7197 78.5326 45.6723 78.3062 45.6882C78.0798 45.704 77.8622 45.7823 77.6777 45.9145C76.6137 46.5249 75.7513 48.1545 75.7513 49.5937V58.4977C75.7513 62.4177 74.8105 65.6041 74.8329 68.8857C74.8329 70.5657 75.5833 72.7721 75.5833 73.4553V77.0001L77.7841 78.2713L88.1553 72.2849V68.4657C88.2325 66.6528 88.4195 64.8463 88.7153 63.0561C89.1017 59.8193 89.1017 57.5009 88.6929 56.6441Z" fill="black"/>
<path opacity="0.15" d="M88.1943 56.084C88.0218 55.994 87.8212 55.9739 87.6343 56.028C87.6406 55.9348 87.6406 55.8413 87.6343 55.748L88.1943 56.084Z" fill="black"/>
<path opacity="0.15" d="M82.7735 54.2192C82.4079 54.5221 82.0824 54.8702 81.8047 55.2552V53.6648L82.7735 54.2192Z" fill="black"/>
<path opacity="0.15" d="M83.1821 53.06L84.5597 53.8328C84.696 53.9139 84.8081 54.0299 84.8845 54.1688C84.9685 54.3056 85.0238 54.458 85.0469 54.6168C85.2314 54.4403 85.4432 54.2947 85.6741 54.1856L83.4397 52.92C83.35 52.9591 83.2638 53.006 83.1821 53.06Z" fill="black"/>
<path d="M77.7782 78.2713V74.7265C77.7782 74.0433 77.039 71.8481 77.0278 70.1569C77.0278 66.8697 77.9462 63.6833 77.9462 59.7689V50.8649C77.9462 49.4481 78.8086 47.7961 79.8782 47.1857C80.9422 46.5697 81.8046 47.2193 81.8046 48.6417V55.2553C81.8046 55.2553 82.7902 53.8217 83.8486 53.7097C83.9855 53.6892 84.1251 53.6968 84.2589 53.7318C84.3928 53.7668 84.5182 53.8285 84.6276 53.9133C84.737 53.998 84.828 54.1041 84.8953 54.225C84.9626 54.3459 85.0047 54.4792 85.019 54.6169C85.019 54.6169 85.9766 53.6369 86.8446 54.2585C87.1003 54.4755 87.304 54.7472 87.4407 55.0535C87.5773 55.3597 87.6435 55.6928 87.6342 56.0281C87.6342 56.0281 88.2838 55.7873 88.6926 56.6441C89.1014 57.5009 89.1014 59.8193 88.6926 63.0561C88.3969 64.8463 88.2099 66.6528 88.1326 68.4657V72.2849L77.7782 78.2713Z" fill="#022C22"/>
<path d="M78.4335 77.1232C78.4052 77.1232 78.3782 77.112 78.3582 77.0921C78.3383 77.0721 78.3271 77.045 78.3271 77.0168V74.3456C78.2882 73.8151 78.1962 73.2898 78.0527 72.7776C77.7972 71.793 77.6378 70.7858 77.5767 69.7704C77.6043 68.2204 77.7447 66.6745 77.9967 65.1448C78.2978 63.2419 78.4643 61.32 78.4951 59.3936V50.5344C78.5011 50.0457 78.6176 49.5647 78.8358 49.1273C79.054 48.69 79.3683 48.3076 79.7551 48.0088C79.8929 47.8988 80.0588 47.8295 80.2339 47.8087C80.409 47.7879 80.5865 47.8165 80.7463 47.8912C80.9236 48.0152 81.0645 48.1846 81.1541 48.3816C81.2438 48.5786 81.2789 48.796 81.2559 49.0112L81.4407 57.5008C81.5737 56.9177 81.7787 56.3533 82.0511 55.8208C82.2017 55.5118 82.4118 55.2355 82.6693 55.0078C82.9269 54.7801 83.2267 54.6053 83.5519 54.4936C83.7927 54.4603 84.0371 54.5204 84.2351 54.6616C84.3263 54.7214 84.4108 54.7908 84.4871 54.8688C84.5471 54.9345 84.6148 54.9928 84.6887 55.0424C84.8903 55.1768 85.1983 55.0816 85.4895 54.9864C85.6492 54.9316 85.8185 54.9099 85.9869 54.9224C86.1554 54.9349 86.3195 54.9814 86.4695 55.0592C86.7179 55.1981 86.9041 55.4264 86.9903 55.6976C87.0319 55.8215 87.0619 55.949 87.0799 56.0784C87.0906 56.2013 87.1189 56.322 87.1639 56.4368C87.1946 56.5359 87.2522 56.6244 87.3303 56.6927C87.4084 56.7609 87.504 56.8061 87.6063 56.8232C87.7401 56.8447 87.8659 56.9011 87.9711 56.9866C88.0763 57.0721 88.1571 57.1838 88.2055 57.3104C88.4743 57.8704 88.6031 59.7352 88.1551 63.2688L88.0711 63.9184C87.8101 65.5438 87.653 67.1842 87.6007 68.8296V71.7752C87.5992 71.8039 87.5868 71.831 87.5659 71.8508C87.5451 71.8706 87.5174 71.8817 87.4887 71.8816C87.4609 71.8803 87.4346 71.8686 87.4149 71.8489C87.3953 71.8293 87.3836 71.803 87.3823 71.7752V68.8296C87.4339 67.1747 87.5929 65.5248 87.8583 63.8904L87.9199 63.28C88.3623 59.7968 88.2447 57.9824 87.9927 57.4448C87.9594 57.3514 87.902 57.2685 87.8263 57.2045C87.7505 57.1406 87.6591 57.0979 87.5615 57.0808C87.4208 57.0592 87.2888 56.9991 87.1801 56.9072C87.0714 56.8153 86.9902 56.6951 86.9455 56.56C86.8968 56.4279 86.863 56.2908 86.8447 56.1512C86.8302 56.0355 86.8058 55.9212 86.7719 55.8096C86.6986 55.5914 86.5496 55.4067 86.3519 55.2888C86.2273 55.2251 86.0911 55.1874 85.9516 55.1777C85.812 55.1681 85.672 55.1868 85.5399 55.2328C85.3873 55.311 85.2194 55.3546 85.048 55.3604C84.8767 55.3662 84.7062 55.3341 84.5487 55.2664C84.4646 55.2084 84.3875 55.1407 84.3191 55.0648C84.2538 54.9986 84.1826 54.9387 84.1063 54.8856C83.9545 54.7793 83.7701 54.7297 83.5855 54.7456C82.9923 54.9573 82.5044 55.3909 82.2247 55.9552C81.8301 56.7597 81.5655 57.6216 81.4407 58.5088C81.4341 58.5345 81.4187 58.5569 81.3972 58.5723C81.3757 58.5877 81.3494 58.595 81.3231 58.5928C81.3101 58.5928 81.2972 58.5902 81.2853 58.5851C81.2734 58.5799 81.2626 58.5724 81.2537 58.563C81.2448 58.5535 81.2379 58.5424 81.2334 58.5302C81.229 58.518 81.2271 58.505 81.2279 58.492L81.0207 49.0448C81.0436 48.8668 81.0189 48.686 80.949 48.5207C80.8792 48.3554 80.7667 48.2116 80.6231 48.104C80.4979 48.0491 80.3599 48.0299 80.2244 48.0487C80.089 48.0675 79.9614 48.1235 79.8559 48.2104C79.501 48.4913 79.213 48.8476 79.0125 49.2533C78.8121 49.6591 78.7042 50.1043 78.6967 50.5568V59.416C78.6646 61.3519 78.4962 63.283 78.1927 65.1952C77.9453 66.7159 77.8068 68.2524 77.7783 69.7928C77.8388 70.7932 77.9963 71.7853 78.2487 72.7552C78.398 73.2816 78.4919 73.8221 78.5287 74.368V77.0392C78.5239 77.0616 78.5121 77.0818 78.495 77.097C78.4778 77.1121 78.4562 77.1213 78.4335 77.1232Z" fill="white"/>
<path d="M77.7335 68.4489C77.7195 68.4475 77.706 68.4434 77.6936 68.4367C77.6812 68.43 77.6703 68.4209 77.6614 68.41C77.6525 68.399 77.6459 68.3865 77.642 68.373C77.638 68.3595 77.6368 68.3453 77.6383 68.3313C77.9056 66.8945 78.3087 65.4863 78.8423 64.1257C78.9935 63.7057 79.1167 63.3417 79.2007 63.0841C79.5535 61.9641 79.8783 61.6953 80.8359 61.0345C81.7935 60.3737 83.2495 59.0521 83.2607 59.0409C83.2784 59.0273 83.3 59.0199 83.3223 59.0199C83.3446 59.0199 83.3663 59.0273 83.3839 59.0409C83.4175 59.0409 84.1959 59.4889 83.8655 60.9505C83.5575 62.3113 82.0287 64.0361 80.3095 64.9657C80.2974 64.9727 80.284 64.9773 80.2701 64.9791C80.2562 64.9809 80.2421 64.98 80.2286 64.9764C80.2151 64.9727 80.2024 64.9664 80.1913 64.9579C80.1802 64.9493 80.1709 64.9387 80.1639 64.9265C80.15 64.9005 80.1468 64.87 80.1552 64.8417C80.1636 64.8134 80.1828 64.7895 80.2087 64.7753C81.8887 63.8737 83.3559 62.2049 83.6527 60.9057C83.8991 59.8361 83.5015 59.3993 83.3447 59.2761C83.0535 59.5337 81.8103 60.6369 80.9591 61.2305C80.0071 61.8857 79.7439 62.1041 79.4079 63.1625C79.3239 63.4313 79.1951 63.7953 79.0495 64.2153C78.5204 65.5597 78.1192 66.9509 77.8511 68.3705C77.8445 68.3957 77.8289 68.4176 77.8072 68.4321C77.7856 68.4465 77.7593 68.4525 77.7335 68.4489Z" fill="white"/>
<path d="M80.4774 67.6145C80.461 67.6196 80.4434 67.6196 80.427 67.6145C80.4026 67.6003 80.3844 67.5775 80.376 67.5505C80.3677 67.5235 80.3699 67.4943 80.3822 67.4689C80.9105 66.4827 81.162 65.372 81.1102 64.2545C81.1083 64.2259 81.117 64.1976 81.1345 64.1749C81.152 64.1522 81.1773 64.1367 81.2054 64.1313C81.2342 64.1297 81.2625 64.1393 81.2845 64.1581C81.3064 64.1768 81.3202 64.2034 81.323 64.2321C81.3954 65.4005 81.1353 66.5655 80.5726 67.5921C80.56 67.6036 80.5446 67.6117 80.5279 67.6156C80.5113 67.6195 80.4939 67.6191 80.4774 67.6145Z" fill="white"/>
<path d="M81.0936 61.0793C81.0791 61.0786 81.0649 61.075 81.0519 61.0686C81.0388 61.0622 81.0272 61.0533 81.0178 61.0423C81.0084 61.0313 81.0013 61.0184 80.997 61.0046C80.9927 60.9907 80.9912 60.9761 80.9928 60.9617C80.9928 60.9617 81.0768 59.8417 81.2504 58.4529C81.2518 58.4389 81.2559 58.4253 81.2626 58.4129C81.2693 58.4005 81.2784 58.3896 81.2893 58.3808C81.3003 58.3719 81.3128 58.3653 81.3263 58.3613C81.3398 58.3574 81.354 58.3562 81.368 58.3577C81.3825 58.359 81.3966 58.3634 81.4094 58.3704C81.4222 58.3774 81.4335 58.387 81.4424 58.3986C81.4513 58.4102 81.4578 58.4234 81.4614 58.4376C81.4649 58.4517 81.4656 58.4665 81.4632 58.4809C81.2896 59.8641 81.2112 60.9673 81.2112 60.9785C81.2083 61.0072 81.1945 61.0337 81.1726 61.0525C81.1507 61.0713 81.1224 61.0809 81.0936 61.0793Z" fill="white"/>
<path d="M81.3288 65.8448C81.2505 65.8503 81.1719 65.8503 81.0936 65.8448C81.0658 65.8382 81.0416 65.8211 81.026 65.7971C81.0104 65.7732 81.0045 65.7442 81.0096 65.716C81.015 65.6887 81.031 65.6646 81.054 65.6489C81.0771 65.6331 81.1054 65.6271 81.1328 65.632C81.5093 65.66 81.8827 65.5471 82.1807 65.3154C82.4787 65.0836 82.68 64.7494 82.7456 64.3776C82.8072 64.1088 82.9752 63.2577 83.2384 61.9081C83.241 61.8941 83.2463 61.8807 83.254 61.8688C83.2617 61.8569 83.2717 61.8466 83.2834 61.8386C83.2951 61.8305 83.3083 61.8248 83.3222 61.8218C83.3361 61.8189 83.3504 61.8187 83.3644 61.8212C83.3784 61.8238 83.3917 61.8291 83.4036 61.8368C83.4155 61.8446 83.4258 61.8546 83.4339 61.8663C83.442 61.878 83.4476 61.8911 83.4506 61.905C83.4536 61.9189 83.4538 61.9333 83.4512 61.9472C83.188 63.3248 83.02 64.1873 82.9528 64.4281C82.8716 64.808 82.6694 65.1514 82.3767 65.4068C82.0839 65.6622 81.7162 65.8159 81.3288 65.8448Z" fill="white"/>
<path d="M83.7649 59.8024C83.7509 59.8004 83.7374 59.7956 83.7252 59.7882C83.7131 59.7809 83.7025 59.7712 83.6942 59.7597C83.6858 59.7483 83.6799 59.7352 83.6766 59.7214C83.6734 59.7076 83.673 59.6932 83.6753 59.6792C83.9553 58.2064 84.1737 57.0304 84.1737 57.0304C84.1758 57.0164 84.1806 57.0029 84.188 56.9907C84.1953 56.9786 84.205 56.968 84.2165 56.9597C84.2279 56.9513 84.241 56.9454 84.2548 56.9421C84.2686 56.9389 84.283 56.9385 84.2969 56.9408C84.3258 56.9463 84.3513 56.9628 84.3681 56.9869C84.3848 57.011 84.3915 57.0407 84.3865 57.0696C84.3865 57.0696 84.1681 58.2456 83.8881 59.7184C83.8815 59.7451 83.8653 59.7684 83.8426 59.7839C83.8198 59.7994 83.7922 59.806 83.7649 59.8024Z" fill="white"/>
<path d="M83.317 65.4473C83.1561 65.4501 83.0001 65.3921 82.8802 65.2849C82.7875 65.1941 82.7198 65.081 82.6835 64.9564C82.6472 64.8319 82.6436 64.7001 82.673 64.5737C82.6797 64.5459 82.6967 64.5217 82.7207 64.5061C82.7446 64.4905 82.7736 64.4846 82.8018 64.4897C82.8157 64.4917 82.829 64.4965 82.8409 64.5039C82.8529 64.5113 82.8631 64.5211 82.871 64.5327C82.8789 64.5443 82.8843 64.5574 82.8869 64.5713C82.8894 64.5851 82.889 64.5992 82.8858 64.6129C82.8654 64.7028 82.8675 64.7964 82.8919 64.8853C82.9163 64.9742 82.9623 65.0556 83.0258 65.1225C83.0861 65.1753 83.1595 65.211 83.2383 65.2257C83.3171 65.2405 83.3984 65.2339 83.4738 65.2065C83.7833 65.1163 84.0631 64.9453 84.2846 64.711C84.506 64.4768 84.6611 64.1878 84.7338 63.8737C85.0138 63.0057 85.9938 59.3937 86.2906 57.8873C86.2973 57.8595 86.3143 57.8353 86.3383 57.8197C86.3622 57.8041 86.3912 57.7982 86.4194 57.8033C86.4472 57.81 86.4713 57.8271 86.487 57.851C86.5026 57.875 86.5085 57.904 86.5034 57.9321C86.2066 59.4665 85.221 63.0673 84.941 63.9409C84.8563 64.288 84.6819 64.6068 84.4352 64.8653C84.1885 65.1238 83.8782 65.3129 83.5354 65.4137C83.4646 65.4354 83.391 65.4467 83.317 65.4473Z" fill="white"/>
<path d="M85.3326 64.8201C85.2549 64.8206 85.1779 64.805 85.1066 64.7741C85.0352 64.7433 84.9711 64.6979 84.9182 64.6409C84.8219 64.5031 84.7604 64.344 84.739 64.1772C84.7175 64.0105 84.7368 63.841 84.795 63.6833C84.7981 63.6691 84.8042 63.6558 84.8129 63.6442C84.8217 63.6326 84.8328 63.623 84.8455 63.6161C84.8583 63.6092 84.8724 63.6051 84.8869 63.6041C84.9014 63.6032 84.9159 63.6053 84.9294 63.6105C84.9432 63.6143 84.956 63.6209 84.9671 63.6298C84.9783 63.6387 84.9875 63.6497 84.9943 63.6623C85.0011 63.6748 85.0053 63.6886 85.0067 63.7028C85.008 63.717 85.0065 63.7313 85.0022 63.7449C84.9554 63.8674 84.9382 63.9991 84.9518 64.1295C84.9654 64.2598 85.0095 64.3852 85.0806 64.4953C85.1238 64.5404 85.1781 64.5735 85.238 64.5911C85.298 64.6088 85.3614 64.6105 85.4222 64.5961C85.6592 64.5347 85.8783 64.418 86.0613 64.2554C86.2444 64.0928 86.3862 63.889 86.475 63.6609C86.727 63.0561 87.5614 59.9089 87.595 59.8753C87.604 59.8481 87.6227 59.8251 87.6474 59.8107C87.6722 59.7963 87.7013 59.7914 87.7294 59.7969C87.7574 59.8048 87.7812 59.8232 87.7958 59.8483C87.8104 59.8733 87.8147 59.9031 87.8078 59.9313C87.7742 60.0601 86.9622 63.1289 86.6878 63.7449C86.5889 64.0078 86.4268 64.2424 86.2159 64.4279C86.0049 64.6134 85.7516 64.7443 85.4782 64.8089L85.3326 64.8201Z" fill="white"/>
<path d="M82.2081 71.7864L82.1353 72.5368C82.1263 72.5816 82.1112 72.6249 82.0905 72.6656C82.0714 72.7046 82.0399 72.7361 82.0009 72.7552L81.5921 72.996C81.5807 73.0042 81.567 73.0087 81.5529 73.0087C81.5388 73.0087 81.5251 73.0042 81.5137 72.996C81.5011 72.9851 81.4915 72.9711 81.4856 72.9555C81.4797 72.9398 81.4778 72.923 81.4801 72.9064L81.5585 72.1784L81.0377 72.4808L80.9593 73.2256C80.9512 73.2706 80.9361 73.3141 80.9145 73.3544C80.8958 73.3933 80.8667 73.4262 80.8305 73.4496L80.4217 73.6848C80.4091 73.6928 80.3946 73.697 80.3797 73.697C80.3648 73.697 80.3503 73.6928 80.3377 73.6848C80.3251 73.6739 80.3155 73.6599 80.3096 73.6443C80.3037 73.6286 80.3018 73.6118 80.3041 73.5952L80.3825 72.8672L80.0353 73.0688C79.9961 73.0688 79.9625 73.0688 79.9401 73.0688C79.9249 73.0558 79.9129 73.0394 79.9051 73.0209C79.8973 73.0025 79.894 72.9824 79.8953 72.9624V72.5256C79.8978 72.4706 79.9131 72.4169 79.9401 72.3688C79.9591 72.3223 79.9924 72.283 80.0353 72.2568L80.4721 72.0104L80.5785 70.9968L80.1697 71.2376C80.1565 71.2491 80.1396 71.2554 80.1221 71.2554C80.1046 71.2554 80.0877 71.2491 80.0745 71.2376C80.0593 71.2246 80.0473 71.2082 80.0395 71.1897C80.0317 71.1713 80.0284 71.1512 80.0297 71.1312V70.6944C80.0322 70.6394 80.0475 70.5857 80.0745 70.5376C80.0955 70.4923 80.1284 70.4536 80.1697 70.4256L80.6681 70.14L80.7521 69.3952C80.7575 69.3521 80.7708 69.3103 80.7913 69.272C80.81 69.2332 80.8391 69.2003 80.8753 69.1768L81.2897 68.9416C81.3007 68.9325 81.3146 68.9276 81.3289 68.9276C81.3432 68.9276 81.3571 68.9325 81.3681 68.9416C81.38 68.9532 81.3891 68.9672 81.395 68.9827C81.4008 68.9982 81.4031 69.0147 81.4017 69.0312L81.3233 69.7424L81.8441 69.4456L81.9281 68.7008C81.9335 68.6577 81.9468 68.6159 81.9673 68.5776C81.986 68.5388 82.0151 68.5059 82.0513 68.4824L82.4657 68.2472C82.4767 68.2381 82.4906 68.2332 82.5049 68.2332C82.5192 68.2332 82.5331 68.2381 82.5441 68.2472C82.556 68.2588 82.5651 68.2728 82.571 68.2883C82.5768 68.3038 82.5791 68.3203 82.5777 68.3368L82.4993 69.048L82.8465 68.8464C82.8616 68.837 82.8791 68.832 82.8969 68.832C82.9147 68.832 82.9322 68.837 82.9473 68.8464C82.9619 68.8597 82.9731 68.8763 82.9799 68.8949C82.9867 68.9134 82.989 68.9333 82.9865 68.9528V69.3896C82.9862 69.4443 82.9727 69.4981 82.9473 69.5464C82.9243 69.5921 82.8895 69.6308 82.8465 69.6584L82.4097 69.9104L82.3033 70.9184L82.7121 70.6776C82.7272 70.6682 82.7447 70.6632 82.7625 70.6632C82.7803 70.6632 82.7978 70.6682 82.8129 70.6776C82.8275 70.6909 82.8386 70.7075 82.8455 70.7261C82.8523 70.7446 82.8546 70.7645 82.8521 70.784V71.2208C82.8518 71.2755 82.8383 71.3293 82.8129 71.3776C82.7899 71.4233 82.7551 71.462 82.7121 71.4896L82.2081 71.7864ZM81.1273 71.6072L81.6481 71.3048L81.7545 70.2968L81.2337 70.5992L81.1273 71.6072Z" fill="white"/>
<path d="M83.345 68.9808C83.3323 68.9632 83.3233 68.9432 83.3185 68.9221C83.3137 68.9009 83.3132 68.879 83.317 68.8576C83.3229 68.8016 83.3421 68.7479 83.373 68.7008L84.493 66.8752L84.577 66.7464C84.6032 66.7077 84.6376 66.6752 84.6778 66.6512L85.081 66.416C85.095 66.4064 85.1116 66.4012 85.1286 66.4012C85.1456 66.4012 85.1622 66.4064 85.1762 66.416C85.1914 66.4291 85.2034 66.4455 85.2111 66.4639C85.2189 66.4824 85.2223 66.5024 85.221 66.5224V71.0024C85.2191 71.0558 85.2037 71.1079 85.1762 71.1536C85.1566 71.1998 85.1233 71.2389 85.081 71.2656L84.661 71.512C84.6464 71.5229 84.6287 71.5288 84.6106 71.5288C84.5924 71.5288 84.5747 71.5229 84.5602 71.512C84.5456 71.4987 84.5344 71.4821 84.5276 71.4636C84.5208 71.4451 84.5185 71.4252 84.521 71.4056V67.9952L83.7874 69.1824C83.7628 69.224 83.7281 69.2587 83.6866 69.2832C83.6711 69.2916 83.6538 69.2959 83.6362 69.2959C83.6186 69.2959 83.6013 69.2916 83.5858 69.2832L83.345 68.9808Z" fill="white"/>
<path d="M50.736 196.991H55.272V189.23H50.736V196.991Z" fill="#B16668"/>
<path d="M55.2776 194.751V194.107C55.7088 194.292 56.7168 198.139 58.5144 199.78C59.948 201.085 61.8744 202.58 62.3952 204.047C62.916 205.514 59.6792 206.394 58.3408 206.158C56.7896 205.884 54.096 204.792 53.424 203.778C52.752 202.765 52.4272 201.27 51.8784 200.525C51.3296 199.78 50.064 198.951 49.7672 198.094C49.6048 197.624 49.8008 196.588 50.0304 195.714C50.26 194.841 50.4672 194.034 50.7416 194.107V194.6C51.38 195.102 52.1697 195.372 52.9816 195.367C53.6704 195.39 55.2832 195.261 55.2776 194.751Z" fill="#263238"/>
<path d="M63.291 191.184L67.8214 191.341L68.0454 183.126L63.291 182.969V191.184Z" fill="#B16668"/>
<path d="M67.8663 189.941C68.1015 189.941 68.2975 190.282 68.8127 190.842C69.5881 191.629 70.4913 192.279 71.4839 192.763C73.1639 193.614 76.4791 194.919 77.9743 195.597C78.9095 196.017 78.8647 197.142 77.9015 197.781C76.9383 198.419 74.6087 198.901 71.8087 198.262C70.2855 197.921 68.3031 196.515 67.0487 196.582C65.7943 196.65 63.4423 196.644 62.5183 196.022C61.5943 195.401 61.9583 194.018 62.2215 192.847C62.5071 191.565 62.8655 189.571 63.2911 189.661V190.098C63.8511 190.926 66.6511 191.262 67.8439 190.658L67.8663 189.941Z" fill="#263238"/>
<path d="M48.8094 131.264C48.8094 135.598 49.5766 160.782 49.5766 160.782C49.4702 162.03 48.2718 164.242 48.1766 168.734C48.0422 175.241 50.5454 193.11 50.5454 193.11C51.3272 193.494 52.1835 193.702 53.0542 193.719C53.925 193.737 54.7889 193.563 55.5854 193.211C55.5854 193.211 57.6406 168.986 58.4526 162.546C59.1638 156.946 60.3678 141.646 60.3678 141.646L62.5014 160.003C61.9776 162.367 61.7891 164.794 61.9414 167.21C62.1486 170.19 62.9886 188.642 62.9886 188.642C63.7791 189.087 64.6577 189.353 65.5624 189.422C66.4672 189.491 67.3759 189.36 68.2246 189.039C68.2246 189.039 71.4222 162.719 71.4782 160.003C71.5342 156.884 70.291 125.065 70.291 125.065L48.8094 131.264Z" fill="#37474F"/>
<path d="M60.3794 141.646C62.7225 140.917 64.877 139.682 66.6906 138.029C66.6906 138.029 65.4754 140.308 61.8522 142.43L62.3338 158.458L60.3794 141.646Z" fill="#263238"/>
<path d="M46.0263 91.4144C45.5783 91.1624 43.4447 92.1032 42.1063 93.8448C40.7679 95.5864 40.5383 98.084 40.9247 98.6272C41.3111 99.1704 46.5247 97.076 46.5247 97.076L46.0263 91.4144Z" fill="#37474F"/>
<path d="M51.789 99.4112C50.792 99.8547 50.0081 100.671 49.605 101.685C49.2466 102.592 48.1714 104.059 48.1714 105.79L48.9386 114.492L48.8098 131.292C55.317 134.725 63.5938 134.954 70.5378 129.886C70.5378 129.886 70.1458 108.287 70.1458 104.759C70.1458 104.597 70.1458 104.434 70.1458 104.272C70.0438 102.536 69.3759 100.882 68.2441 99.562C67.1123 98.2421 65.5792 97.3295 63.8794 96.964C62.653 96.6896 55.9274 98.084 55.9274 98.084L51.8002 99.4448L51.789 99.4112Z" fill="#022C22"/>
<path d="M37.5648 92.4C38.3376 94.1472 47.4992 106.4 49.7 109.334C55.4232 106.562 51.2064 99.8816 51.2064 99.8816C51.2064 99.8816 44.5984 90.2272 43.5232 88.5976C43.2691 88.1807 43.098 87.7186 43.0192 87.2368C42.8568 86.352 41.8992 75.4768 42.2856 72.1952C42.3596 71.609 42.6442 71.0696 43.0864 70.6776C44.268 69.6248 44.6544 68.684 45.4664 67.4632C46.1048 66.5168 46.7376 66.1976 46.5864 65.9568C46.3878 65.696 46.0979 65.5198 45.7749 65.4638C45.4519 65.4077 45.1197 65.4758 44.8448 65.6544C44.2334 66.0341 43.6694 66.4853 43.1648 66.9984C43.4147 65.7218 43.8705 64.4943 44.5144 63.364C45.976 60.7712 45.8136 59.36 42.0616 60.004C39.7152 60.3904 37.4976 62.328 36.6296 67.8048C36.43 69.7805 36.3533 71.7668 36.4 73.752C36.3552 78.3552 36.5232 85.6352 36.764 88.816C36.8536 90.4232 36.7864 90.6584 37.5648 92.4Z" fill="#B16668"/>
<path d="M52.64 99.12L46.0264 91.4144C46.0264 91.4144 46.3848 97.2104 40.9136 98.6272L48.4736 109.2C49.3248 110.796 51.968 108.898 52.7016 105.437C53.7264 100.598 52.64 99.12 52.64 99.12Z" fill="#455A64"/>
<path d="M55.401 98.224L54.6338 98.4761C55.5906 99.7432 56.9554 100.641 58.4978 101.018C61.0346 101.612 62.8994 100.979 63.3978 100.128C63.8962 99.2769 63.0674 97.804 62.1994 97.2104L55.401 98.224Z" fill="#455A64"/>
<path d="M57.1982 82.88C57.1982 84.1128 57.5638 85.3178 58.2487 86.3428C58.9335 87.3678 59.907 88.1666 61.0459 88.6384C62.1847 89.1101 63.438 89.2336 64.647 88.9931C65.856 88.7526 66.9666 88.1589 67.8383 87.2873C68.71 86.4156 69.3036 85.305 69.5441 84.096C69.7846 82.8869 69.6611 81.6337 69.1894 80.4948C68.7177 79.3559 67.9188 78.3825 66.8938 77.6976C65.8688 77.0128 64.6638 76.6472 63.431 76.6472C61.778 76.6472 60.1927 77.3039 59.0238 78.4728C57.8549 79.6416 57.1982 81.227 57.1982 82.88Z" fill="#263238"/>
<path d="M52.6401 87.3153C52.6401 87.3153 53.6537 92.0641 54.0569 92.8425C54.3277 93.3235 54.7727 93.6822 55.3001 93.8449L55.2273 90.4849L52.6401 87.3153Z" fill="#263238"/>
<path d="M53.9277 80.5224C53.5745 80.4799 53.2162 80.5189 52.8803 80.6363C52.5444 80.7538 52.2399 80.9466 51.9901 81.2C51.1613 82.0512 51.6261 84.7112 52.6565 87.3152L54.5605 87.5336L53.9277 80.5224Z" fill="#263238"/>
<path d="M55.1321 87.5393C54.7513 87.7633 54.2081 87.0353 53.7377 86.5425C53.2673 86.0497 51.7329 85.3777 50.9657 86.9905C50.1985 88.6033 51.6377 90.8097 52.8473 91.1905C54.9305 91.8401 55.2441 90.5073 55.2441 90.5073L55.4009 98.2241C57.9881 101.545 65.1785 101.293 62.1825 97.8209V95.5361C63.108 95.6837 64.0468 95.7306 64.9825 95.6761C66.5169 95.4409 67.4801 94.2313 67.9449 92.5737C68.6897 89.9081 68.9753 87.7577 68.3425 82.5217C67.6481 76.7817 60.9673 76.7201 57.3609 78.9881C53.7545 81.2561 55.1321 87.5393 55.1321 87.5393Z" fill="#B16668"/>
<path d="M55.1321 88.1777C54.9417 88.1777 54.2081 86.9737 53.7377 86.5425C53.0769 85.9433 53.9281 80.5225 53.9281 80.5225C53.7551 80.0532 53.7228 79.5436 53.8353 79.0561C53.9477 78.5687 54.1998 78.1247 54.5609 77.7785C55.4625 76.7873 56.4425 76.1601 59.0409 76.0201C60.5641 75.9417 63.0001 76.1825 64.3665 76.2721C66.9313 76.4457 67.8777 75.8129 69.3505 75.3985C70.4705 75.0849 70.6049 79.1561 67.7601 80.5057C67.7601 80.5057 66.8305 81.1049 64.4001 81.4017C62.1479 81.5685 59.885 81.5254 57.6409 81.2729C56.9353 81.1721 56.7841 81.8609 56.4033 83.7369C56.0561 85.3777 55.7761 88.1665 55.1321 88.1777Z" fill="#263238"/>
<path d="M53.9281 80.9425L51.6265 79.7049C51.7011 79.5511 51.8062 79.414 51.9353 79.3019C52.0644 79.1898 52.2148 79.105 52.3776 79.0527C52.5404 79.0004 52.712 78.9815 52.8823 78.9974C53.0525 79.0132 53.2178 79.0634 53.3681 79.1449C53.6731 79.3165 53.901 79.5983 54.0051 79.9324C54.1092 80.2666 54.0816 80.6279 53.9281 80.9425Z" fill="#263238"/>
<path d="M62.1601 95.536C62.1601 95.536 58.7385 94.8472 57.5457 94.2088C56.832 93.8479 56.2458 93.2773 55.8657 92.5736C56.0463 93.2732 56.3642 93.93 56.8009 94.5056C57.6745 95.6256 62.1321 96.4432 62.1321 96.4432L62.1601 95.536Z" fill="#9A4A4D"/>
<path d="M62.0086 86.6824C62.0172 86.7777 62.0059 86.8737 61.9753 86.9644C61.9448 87.0551 61.8956 87.1384 61.8311 87.2091C61.7666 87.2797 61.688 87.3361 61.6005 87.3747C61.5129 87.4133 61.4183 87.4333 61.3226 87.4333C61.2269 87.4333 61.1323 87.4133 61.0447 87.3747C60.9572 87.3361 60.8786 87.2797 60.8141 87.2091C60.7495 87.1384 60.7004 87.0551 60.6699 86.9644C60.6393 86.8737 60.628 86.7777 60.6366 86.6824C60.6351 86.5907 60.6518 86.4997 60.6857 86.4145C60.7196 86.3293 60.77 86.2517 60.834 86.1861C60.898 86.1205 60.9744 86.0683 61.0588 86.0323C61.1431 85.9964 61.2337 85.9775 61.3254 85.9768C61.5091 85.9812 61.6837 86.0577 61.8115 86.1897C61.9393 86.3217 62.0101 86.4987 62.0086 86.6824Z" fill="#263238"/>
<path d="M61.2806 84.0953L59.819 84.9017C59.7124 84.7014 59.6885 84.4673 59.7524 84.2496C59.8162 84.0319 59.9628 83.8479 60.1606 83.7369C60.2571 83.6841 60.3633 83.6516 60.4728 83.6411C60.5823 83.6307 60.6927 83.6426 60.7974 83.6761C60.9022 83.7096 60.999 83.764 61.082 83.8361C61.1651 83.9081 61.2327 83.9963 61.2806 84.0953Z" fill="#263238"/>
<path d="M61.8688 91.4144L63.4312 91.9744C63.3972 92.0796 63.3424 92.1769 63.27 92.2605C63.1976 92.344 63.1091 92.4121 63.0098 92.4607C62.9105 92.5093 62.8024 92.5374 62.692 92.5434C62.5816 92.5493 62.4711 92.5329 62.3672 92.4952C62.1629 92.4114 61.9979 92.2533 61.9055 92.0528C61.813 91.8523 61.7999 91.6242 61.8688 91.4144Z" fill="#9A4A4D"/>
<path d="M67.9224 84.6664L66.584 83.636C66.6455 83.5425 66.7256 83.4626 66.8194 83.4015C66.9133 83.3404 67.0187 83.2994 67.1291 83.2809C67.2396 83.2625 67.3526 83.2672 67.4612 83.2945C67.5698 83.3219 67.6715 83.3715 67.76 83.44C67.9419 83.5827 68.0608 83.7909 68.0911 84.0201C68.1215 84.2493 68.0609 84.4813 67.9224 84.6664Z" fill="#263238"/>
<path d="M67.5135 86.4865C67.5091 86.6217 67.465 86.7526 67.3867 86.8628C67.3083 86.9731 67.1993 87.0579 67.0731 87.1066C66.9469 87.1554 66.8092 87.1658 66.6771 87.1368C66.545 87.1077 66.4243 87.0404 66.3302 86.9433C66.2361 86.8461 66.1727 86.7234 66.1479 86.5904C66.1231 86.4575 66.138 86.3201 66.1907 86.1956C66.2434 86.071 66.3317 85.9647 66.4444 85.89C66.5572 85.8152 66.6894 85.7753 66.8247 85.7753C66.9166 85.7767 67.0073 85.7963 67.0917 85.8328C67.1761 85.8694 67.2524 85.9221 67.3164 85.9882C67.3804 86.0542 67.4307 86.1322 67.4645 86.2177C67.4983 86.3032 67.5149 86.3945 67.5135 86.4865Z" fill="#263238"/>
<path d="M64.019 85.8369L64.243 89.9585L66.3934 89.2249L64.019 85.8369Z" fill="#9A4A4D"/>
</svg>
