<svg width="25" height="24" viewBox="0 0 25 24" fill="none" xmlns="http://www.w3.org/2000/svg">
<path d="M16.25 9H15.5C15.5 10.7949 14.0449 12.25 12.25 12.25V13V13.75C14.8734 13.75 17 11.6234 17 9H16.25ZM12.25 13V12.25C10.4551 12.25 9 10.7949 9 9H8.25H7.5C7.5 11.6234 9.62665 13.75 12.25 13.75V13ZM8.25 9H9C9 7.20507 10.4551 5.75 12.25 5.75V5V4.25C9.62665 4.25 7.5 6.37665 7.5 9H8.25ZM12.25 5V5.75C14.0449 5.75 15.5 7.20507 15.5 9H16.25H17C17 6.37665 14.8734 4.25 12.25 4.25V5ZM9.25 16V16.75H15.25V16V15.25H9.25V16ZM2.25 12H3C3 6.89137 7.14137 2.75 12.25 2.75V2V1.25C6.31294 1.25 1.5 6.06294 1.5 12H2.25ZM12.25 2V2.75C17.3586 2.75 21.5 6.89137 21.5 12H22.25H23C23 6.06294 18.1871 1.25 12.25 1.25V2ZM22.25 12H21.5C21.5 14.6233 20.409 16.9905 18.6539 18.6748L19.1732 19.2159L19.6925 19.7571C21.7301 17.8016 23 15.0485 23 12H22.25ZM19.1732 19.2159L18.6539 18.6748C16.9912 20.2705 14.7358 21.25 12.25 21.25V22V22.75C15.1382 22.75 17.7617 21.61 19.6925 19.7571L19.1732 19.2159ZM15.25 16V16.75C16.826 16.75 18.1415 17.8726 18.4376 19.3621L19.1732 19.2159L19.9088 19.0697C19.476 16.8918 17.5555 15.25 15.25 15.25V16ZM12.25 22V21.25C9.76425 21.25 7.50884 20.2705 5.84612 18.6748L5.32681 19.2159L4.80751 19.7571C6.73833 21.61 9.36182 22.75 12.25 22.75V22ZM5.32681 19.2159L5.84612 18.6748C4.09103 16.9905 3 14.6233 3 12H2.25H1.5C1.5 15.0485 2.76989 17.8016 4.80751 19.7571L5.32681 19.2159ZM9.25 16V15.25C6.94445 15.25 5.02403 16.8918 4.5912 19.0697L5.32681 19.2159L6.06243 19.3621C6.35846 17.8726 7.67396 16.75 9.25 16.75V16Z" fill="black"/>
</svg>
