<svg width="20" height="20" viewBox="0 0 20 20" fill="none" xmlns="http://www.w3.org/2000/svg">
<path fill-rule="evenodd" clip-rule="evenodd" d="M15.102 5.32208C15.3949 5.02918 15.3949 4.55431 15.102 4.26142C14.8091 3.96852 14.3342 3.96852 14.0413 4.26142L9.68157 8.62116L5.32183 4.26142C5.02894 3.96852 4.55407 3.96852 4.26117 4.26142C3.96828 4.55431 3.96828 5.02918 4.26117 5.32208L8.62091 9.68182L4.26117 14.0416C3.96828 14.3345 3.96828 14.8093 4.26117 15.1022C4.55407 15.3951 5.02894 15.3951 5.32183 15.1022L9.68157 10.7425L14.0413 15.1022C14.3342 15.3951 14.8091 15.3951 15.102 15.1022C15.3949 14.8093 15.3949 14.3345 15.102 14.0416L10.7422 9.68182L15.102 5.32208Z" fill="#1A1A25"/>
</svg>
