<svg width="30" height="24" viewBox="0 0 30 24" fill="none" xmlns="http://www.w3.org/2000/svg">
<mask id="path-1-inside-1_2048_1098" fill="white">
<path d="M0 0H30V24H0V0Z"/>
</mask>
<path d="M29.6 0V24H30.4V0H29.6Z" fill="black" mask="url(#path-1-inside-1_2048_1098)"/>
<path d="M22.8133 18.8711L18.8372 14.8951C19.9207 13.5699 20.4534 11.8789 20.3252 10.172C20.1969 8.46502 19.4175 6.87267 18.1481 5.72427C16.8788 4.57587 15.2166 3.9593 13.5053 4.00209C11.7941 4.04487 10.1648 4.74374 8.95439 5.95414C7.74399 7.16454 7.04512 8.79386 7.00233 10.5051C6.95954 12.2163 7.57612 13.8785 8.72451 15.1479C9.87291 16.4173 11.4653 17.1967 13.1722 17.325C14.8792 17.4532 16.5701 16.9205 17.8953 15.8369L21.8714 19.813C21.997 19.9344 22.1653 20.0015 22.3399 20C22.5146 19.9985 22.6816 19.9284 22.8051 19.8049C22.9286 19.6814 22.9987 19.5143 23.0002 19.3397C23.0017 19.165 22.9346 18.9968 22.8133 18.8711ZM13.6828 16.0115C12.6288 16.0115 11.5985 15.6989 10.7222 15.1134C9.84581 14.5278 9.16278 13.6956 8.75945 12.7218C8.35611 11.7481 8.25058 10.6766 8.4562 9.64289C8.66182 8.60917 9.16935 7.65964 9.91462 6.91437C10.6599 6.16911 11.6094 5.66157 12.6431 5.45595C13.6768 5.25034 14.7483 5.35587 15.7221 5.7592C16.6958 6.16254 17.5281 6.84556 18.1136 7.72191C18.6992 8.59825 19.0117 9.62855 19.0117 10.6825C19.0101 12.0954 18.4482 13.4499 17.4491 14.4489C16.4501 15.4479 15.0956 16.0099 13.6828 16.0115Z" fill="black"/>
</svg>
