<svg width="25" height="24" viewBox="0 0 25 24" fill="none" xmlns="http://www.w3.org/2000/svg">
<g clip-path="url(#clip0_4530_585)">
<path d="M6.87653 5.46171C6.5304 5.1153 5.96884 5.1153 5.62271 5.46171C4.33759 6.74683 3.70595 8.53708 3.88951 10.3737C3.93531 10.8313 4.32076 11.1723 4.7709 11.1723C4.80048 11.1723 4.83029 11.1708 4.85987 11.1679C5.34728 11.1191 5.70282 10.6843 5.65407 10.1973C5.52343 8.89202 5.96917 7.62288 6.87653 6.71547C7.22293 6.3694 7.22293 5.80779 6.87653 5.46171Z" fill="black"/>
<path d="M10.3879 0C4.79786 0 0.25 4.54786 0.25 10.1379C0.25 15.728 4.79786 20.2759 10.3879 20.2759C15.978 20.2759 20.5259 15.728 20.5259 10.1379C20.5259 4.54786 15.978 0 10.3879 0ZM10.3879 18.5025C5.77562 18.5025 2.02342 14.7502 2.02342 10.1379C2.02342 5.52562 5.77562 1.77342 10.3879 1.77342C15 1.77342 18.7525 5.52562 18.7525 10.1379C18.7525 14.7502 15.0002 18.5025 10.3879 18.5025Z" fill="black"/>
<path d="M23.9902 22.4863L17.5468 16.043C17.2004 15.6966 16.6394 15.6966 16.293 16.043C15.9466 16.3891 15.9466 16.9507 16.293 17.2968L22.7364 23.7402C22.8186 23.8226 22.9163 23.8881 23.0239 23.9326C23.1315 23.9772 23.2468 24.0001 23.3633 23.9999C23.5903 23.9999 23.817 23.9134 23.9902 23.7402C24.3366 23.394 24.3366 22.8325 23.9902 22.4863Z" fill="black"/>
</g>
<defs>
<clipPath id="clip0_4530_585">
<rect width="24" height="24" fill="white" transform="translate(0.25)"/>
</clipPath>
</defs>
</svg>
