<svg width="159" height="124" viewBox="0 0 159 124" fill="none" xmlns="http://www.w3.org/2000/svg">
<g clip-path="url(#clip0_4639_711)">
<path d="M47.836 98.1124C48.1933 96.9173 48.8999 95.8564 49.8651 95.0662C50.8303 94.2761 52.0098 93.7928 53.252 93.6786L91.0824 90.1956L80.612 42.5109C80.3632 41.3773 80.4351 40.1968 80.8194 39.1017C81.2037 38.0066 81.8853 37.0402 82.7879 36.3106C83.6905 35.5811 84.7784 35.1173 85.9298 34.9711C87.0811 34.825 88.2504 35.0023 89.3066 35.4832L133.736 55.7202L145.075 19.4608C145.447 18.2702 146.167 17.2184 147.142 16.4405C148.117 15.6625 149.303 15.1942 150.546 15.0957C151.789 14.9971 153.034 15.2729 154.119 15.8875C155.205 16.5022 156.081 17.4275 156.637 18.5445L182.274 70.1489C182.907 71.4225 183.087 72.8739 182.783 74.2633C182.48 75.6527 181.712 76.8971 180.606 77.791L102.834 140.652C101.728 141.546 100.35 142.036 98.928 142.041C97.5058 142.047 96.1244 141.567 95.0118 140.681L49.931 104.792C48.955 104.015 48.234 102.963 47.8606 101.773C47.4872 100.583 47.4787 99.3077 47.836 98.1124Z" fill="url(#paint0_linear_4639_711)"/>
<path d="M181.538 69.0015L193.325 83.5837C194.367 84.8729 194.854 86.5232 194.679 88.1715C194.504 89.8199 193.682 91.3313 192.393 92.3733L114.621 155.234C113.331 156.276 111.681 156.764 110.033 156.589C108.384 156.414 106.873 155.592 105.831 154.302L94.0446 139.72" fill="#FFD400"/>
<path d="M78.8589 31.4496C76.1744 33.6195 72.2392 33.2022 70.0694 30.5177C67.8995 27.8332 68.3168 23.898 71.0013 21.7281C73.6858 19.5583 77.6211 19.9755 79.7909 22.6601C81.9607 25.3446 81.5435 29.2798 78.8589 31.4496Z" fill="#FFD400"/>
<path d="M45.0347 98.9703C42.3502 101.14 38.415 100.723 36.2452 98.0383C34.0753 95.3538 34.4926 91.4186 37.1771 89.2488C39.8616 87.0789 43.7968 87.4962 45.9667 90.1807C48.1365 92.8652 47.7192 96.8004 45.0347 98.9703Z" fill="#FFD400"/>
<path d="M151.971 12.5363C149.287 14.7061 145.352 14.2889 143.182 11.6044C141.012 8.91985 141.429 4.98463 144.114 2.8148C146.798 0.644978 150.733 1.06222 152.903 3.74674C155.073 6.43126 154.656 10.3665 151.971 12.5363Z" fill="#FFD400"/>
</g>
<defs>
<linearGradient id="paint0_linear_4639_711" x1="136.256" y1="-6.90649" x2="31.8982" y2="96.2909" gradientUnits="userSpaceOnUse">
<stop stop-color="#F9BC2E"/>
<stop offset="0.132392" stop-color="#E29A1E"/>
<stop offset="0.302201" stop-color="#FFCD38"/>
<stop offset="0.728712" stop-color="#F0AF30"/>
<stop offset="0.834676" stop-color="#E29A1E"/>
<stop offset="0.960427" stop-color="#FFCD38"/>
<stop offset="1" stop-color="#DD931A"/>
</linearGradient>
<clipPath id="clip0_4639_711">
<rect width="150" height="150" fill="white" transform="matrix(-0.77772 0.628611 0.628611 0.77772 117.544 -40)"/>
</clipPath>
</defs>
</svg>
