<svg width="24" height="24" viewBox="0 0 24 24" fill="none" xmlns="http://www.w3.org/2000/svg">
<g clip-path="url(#clip0_4639_721)">
<path d="M12 24C5.38317 24 0 18.6168 0 12C0 5.38317 5.38317 0 12 0C18.6168 0 24 5.38317 24 12C24 18.6168 18.6168 24 12 24Z" fill="#FFF16B"/>
<path d="M24 12C24 5.38317 18.6168 0 12 0V24C18.6168 24 24 18.6168 24 12Z" fill="#FFD400"/>
<path d="M12 21.1406C6.95986 21.1406 2.85938 17.0401 2.85938 12C2.85938 6.95986 6.95986 2.85938 12 2.85938C17.0401 2.85938 21.1406 6.95986 21.1406 12C21.1406 17.0401 17.0401 21.1406 12 21.1406Z" fill="#FFD400"/>
<path d="M21.1406 12C21.1406 6.95986 17.0401 2.85938 12 2.85938V21.1406C17.0401 21.1406 21.1406 17.0401 21.1406 12Z" fill="#FF9F00"/>
<path d="M14.0689 10.6481L12.549 8.74826C12.2675 8.39641 11.7324 8.39641 11.4509 8.74826L9.93101 10.6481L7.62691 9.4961C7.1036 9.23445 6.50824 9.68913 6.62299 10.2629L7.56049 14.9504C7.59238 15.1098 7.6785 15.2532 7.80421 15.3562C7.92991 15.4593 8.08743 15.5156 8.24998 15.5156H15.75C16.0851 15.5156 16.3737 15.279 16.4395 14.9504L17.377 10.2629C17.4917 9.68913 16.8964 9.23445 16.373 9.4961L14.0689 10.6481Z" fill="#FFF16B"/>
<path d="M15.75 15.5156C16.0852 15.5156 16.3737 15.279 16.4395 14.9504L17.377 10.2629C17.4917 9.68916 16.8964 9.23447 16.3731 9.49612L14.069 10.6482L12.549 8.74828C12.4083 8.57236 12.2041 8.48438 12 8.48438V15.5156H15.75Z" fill="#FFD400"/>
</g>
<defs>
<clipPath id="clip0_4639_721">
<rect width="24" height="24" fill="white"/>
</clipPath>
</defs>
</svg>
