<svg width="16" height="16" viewBox="0 0 16 16" fill="none" xmlns="http://www.w3.org/2000/svg">
<g clip-path="url(#clip0_4093_5589)">
<path d="M7.26304 11.1672C7.27267 11.1398 7.27104 11.1098 7.25851 11.0836C7.24597 11.0575 7.22356 11.0373 7.19619 11.0277C7.16883 11.0181 7.13876 11.0197 7.1126 11.0322C7.08644 11.0448 7.06633 11.0672 7.05669 11.0946L6.52869 12.5939C6.40104 12.9618 6.30897 13.2548 6.24716 13.4897C6.23357 13.5408 6.20344 13.586 6.16147 13.6182C6.1195 13.6505 6.06805 13.6679 6.01513 13.6678H3.80829C3.75524 13.668 3.70365 13.6505 3.66162 13.6181C3.6196 13.5857 3.58951 13.5403 3.5761 13.489C3.51432 13.2501 3.42166 12.9571 3.29282 12.5933L1.03013 6.19824C0.859693 5.70403 0.754193 5.42424 0.611912 5.08949C0.609955 5.08486 0.609173 5.07982 0.609634 5.07482C0.610096 5.06981 0.611788 5.065 0.614559 5.0608C0.61733 5.05661 0.621094 5.05317 0.625518 5.05078C0.629941 5.04839 0.634886 5.04713 0.639912 5.04712H2.79182C2.79918 5.04716 2.80627 5.04986 2.8118 5.05471C2.81734 5.05956 2.82094 5.06624 2.82194 5.07353C2.87947 5.42621 2.96025 5.77471 3.06376 6.11674L4.60413 11.2266C4.68863 11.5118 4.68863 11.5118 4.80504 11.9563C4.81114 11.9796 4.82476 12.0002 4.84379 12.015C4.86282 12.0298 4.8862 12.0378 4.91029 12.038H4.91085C4.93484 12.038 4.95817 12.0301 4.97723 12.0155C4.9963 12.0009 5.01004 11.9805 5.01635 11.9573C5.08004 11.7239 5.11719 11.5912 5.14504 11.4918C5.17297 11.392 5.19151 11.3258 5.21801 11.2252L6.75851 6.1149C6.88519 5.66665 6.95632 5.38262 6.99335 5.07443C6.99416 5.06698 6.99767 5.06009 7.00322 5.05505C7.00878 5.05002 7.01598 5.0472 7.02347 5.04712H7.21516C7.24417 5.04712 7.27199 5.0356 7.2925 5.01508C7.31301 4.99457 7.32454 4.96675 7.32454 4.93774C7.32454 4.90874 7.31301 4.88092 7.2925 4.8604C7.27199 4.83989 7.24417 4.82837 7.21516 4.82837H7.02347C6.96249 4.82848 6.90366 4.85093 6.85809 4.89146C6.81252 4.93199 6.78338 4.98781 6.77616 5.04837C6.74063 5.34393 6.67429 5.60862 6.54854 6.05362L5.00801 11.1639L5.00694 11.1677C4.98063 11.2677 4.96222 11.3334 4.93438 11.4328L4.91313 11.5088C4.88301 11.3978 4.86194 11.3267 4.81372 11.1639L3.27332 6.05403C3.17272 5.72176 3.09417 5.38321 3.03819 5.04059C3.02955 4.98149 2.99987 4.92749 2.95461 4.88851C2.90935 4.84953 2.85155 4.82819 2.79182 4.8284H0.639943C0.598773 4.82841 0.558246 4.83862 0.521983 4.85811C0.48572 4.8776 0.45485 4.90578 0.432131 4.94011C0.409413 4.97444 0.395553 5.01387 0.39179 5.05487C0.388028 5.09587 0.394479 5.13716 0.410568 5.17506C0.550568 5.50453 0.654756 5.78074 0.823631 6.2704L3.08657 12.6663C3.21326 13.0241 3.3041 13.3111 3.36426 13.5438C3.38981 13.642 3.44729 13.729 3.52765 13.7911C3.60802 13.8531 3.70672 13.8867 3.80826 13.8866H6.01513C6.11636 13.8866 6.21476 13.8532 6.29499 13.7915C6.37522 13.7297 6.43278 13.6432 6.45869 13.5453C6.51907 13.316 6.60954 13.0282 6.73516 12.6661L7.26304 11.1672Z" fill="#16A34A"/>
<path d="M14.411 9.07368C13.9943 8.81059 13.4689 8.62512 12.6532 8.4534C12.3244 8.38653 12.0647 8.33371 11.8782 8.29471C11.8642 8.29177 11.8497 8.29163 11.8355 8.29429C11.8214 8.29696 11.808 8.30238 11.796 8.31024C11.7839 8.3181 11.7736 8.32825 11.7655 8.34012C11.7574 8.35198 11.7517 8.36532 11.7488 8.37938C11.7458 8.39344 11.7457 8.40794 11.7483 8.42206C11.751 8.43617 11.7564 8.44963 11.7643 8.46165C11.7722 8.47367 11.7823 8.48402 11.7942 8.49212C11.806 8.50022 11.8194 8.5059 11.8334 8.50884C12.0205 8.54796 12.2805 8.60084 12.6089 8.66762C13.3968 8.83353 13.9008 9.01024 14.2946 9.2589C15.0321 9.71984 15.3906 10.3985 15.3906 11.3336C15.3906 12.1064 15.1448 12.7553 14.6803 13.2097C14.0807 13.7886 13.1662 14.0821 11.9621 14.0821C11.0646 14.0821 10.1993 13.8929 9.64625 13.5755C9.12925 13.2859 8.75972 12.8477 8.54803 12.2732C8.5475 12.2718 8.54694 12.2703 8.54634 12.2689C8.46625 12.0767 8.41603 11.8857 8.36109 11.5644C8.35798 11.546 8.35868 11.5272 8.36315 11.5092C8.36762 11.4911 8.37576 11.4742 8.38706 11.4594C8.39837 11.4446 8.4126 11.4323 8.42886 11.4233C8.44512 11.4143 8.46308 11.4087 8.48159 11.4069L10.2002 11.2416C10.2335 11.2384 10.2668 11.2476 10.2937 11.2676C10.3206 11.2875 10.3392 11.3167 10.3458 11.3495C10.3812 11.5727 10.4721 11.7834 10.6103 11.9622L10.6123 11.965C10.8911 12.3134 11.3629 12.5054 11.9408 12.5054C12.8143 12.5054 13.357 12.0971 13.357 11.4398C13.357 11.0649 13.1617 10.7419 12.8484 10.5973C12.6122 10.4848 12.3252 10.4061 11.2323 10.1539C11.2043 10.1478 11.1749 10.1531 11.1507 10.1685C11.1264 10.1839 11.1092 10.2082 11.1027 10.2362C11.0962 10.2642 11.1011 10.2936 11.1161 10.3181C11.1312 10.3426 11.1553 10.3602 11.1832 10.367C12.2569 10.6148 12.5359 10.6908 12.7556 10.7954C12.9916 10.9043 13.1383 11.1513 13.1383 11.4398C13.1383 11.97 12.6906 12.2866 11.9408 12.2866C11.4389 12.2866 11.0174 12.1201 10.7842 11.8296C10.6669 11.6779 10.59 11.4988 10.5608 11.3092C10.5447 11.2224 10.4965 11.1448 10.4258 11.0919C10.3551 11.0391 10.267 11.0148 10.1792 11.0239L9.69716 11.0702L11.5172 7.96224C11.5306 7.93928 11.5372 7.91296 11.5362 7.88637C11.5352 7.85978 11.5267 7.83403 11.5115 7.81214C11.4964 7.79024 11.4754 7.77312 11.4509 7.76277C11.4263 7.75242 11.3994 7.74928 11.3732 7.75371L9.35819 8.09437L12.0328 2.65743C12.0451 2.63245 12.0497 2.60436 12.0459 2.57677C12.0422 2.54917 12.0303 2.52333 12.0117 2.50255C11.9932 2.48177 11.9689 2.467 11.9419 2.46013C11.9149 2.45326 11.8865 2.45461 11.8603 2.46399L8.15375 3.78984C8.13292 3.79729 8.11415 3.80958 8.099 3.8257C8.08384 3.84182 8.07272 3.86131 8.06656 3.88256L6.11088 10.6284C6.10417 10.6516 6.10355 10.676 6.10908 10.6995C6.1146 10.7229 6.12609 10.7445 6.14242 10.7622C6.15874 10.7799 6.17936 10.7931 6.20228 10.8005C6.22519 10.8078 6.24963 10.8092 6.27322 10.8044L8.19297 10.4116L6.63163 15.76C6.62206 15.7927 6.6248 15.8279 6.63933 15.8587C6.65386 15.8896 6.67918 15.9141 6.71051 15.9276C6.74184 15.9411 6.77703 15.9427 6.80945 15.9321C6.84187 15.9214 6.86929 15.8993 6.88653 15.8699L8.62059 12.9087C8.85102 13.2658 9.16636 13.5603 9.53841 13.7658C10.1221 14.1008 11.0281 14.3009 11.9621 14.3009C13.2249 14.3009 14.1906 13.9867 14.8328 13.3666C15.3408 12.8696 15.6093 12.1666 15.6093 11.3336C15.6093 10.3169 15.2172 9.57765 14.411 9.07371L14.411 9.07368Z" fill="#16A34A"/>
<path d="M11.7678 4.93777C11.7678 4.96678 11.7793 4.9946 11.7998 5.01511C11.8203 5.03562 11.8481 5.04715 11.8771 5.04715C13.2023 5.04715 14.1929 5.45021 14.7435 6.21496C14.9723 6.51702 15.0968 6.79949 15.2188 7.29433C15.2199 7.29859 15.2201 7.30303 15.2192 7.30735C15.2184 7.31166 15.2167 7.31575 15.2142 7.31933C15.2117 7.32291 15.2085 7.32591 15.2048 7.32814C15.201 7.33036 15.1969 7.33175 15.1926 7.33221L13.223 7.5459C13.2159 7.54679 13.2087 7.5451 13.2027 7.54114C13.1968 7.53719 13.1925 7.53122 13.1905 7.52433C13.0303 6.87218 12.5991 6.5814 11.7921 6.5814C11.2771 6.5814 10.8412 6.79571 10.6546 7.14074C10.6474 7.15339 10.6429 7.16734 10.6412 7.18176C10.6395 7.19619 10.6407 7.2108 10.6448 7.22476C10.6488 7.23871 10.6556 7.25172 10.6647 7.26304C10.6738 7.27435 10.685 7.28373 10.6978 7.29064C10.7106 7.29755 10.7246 7.30185 10.7391 7.30328C10.7535 7.30471 10.7681 7.30325 10.782 7.29899C10.7959 7.29472 10.8088 7.28773 10.8199 7.27843C10.8311 7.26912 10.8403 7.25769 10.8469 7.2448C10.9953 6.97052 11.3575 6.80011 11.7921 6.80011C12.4991 6.80011 12.8427 7.02508 12.9781 7.57649C12.9928 7.6348 13.028 7.68583 13.0774 7.72018C13.1267 7.75453 13.1868 7.76987 13.2466 7.76336L15.2162 7.54968C15.2515 7.54581 15.2856 7.53444 15.3162 7.51631C15.3468 7.49819 15.3732 7.47374 15.3935 7.4446C15.4139 7.41546 15.4278 7.3823 15.4343 7.34734C15.4408 7.31239 15.4398 7.27645 15.4313 7.24193C15.3012 6.71474 15.1668 6.41146 14.9195 6.08499C14.3276 5.2629 13.2756 4.82836 11.8771 4.82836C11.8481 4.82836 11.8203 4.83989 11.7998 4.8604C11.7793 4.88091 11.7678 4.90876 11.7678 4.93777ZM11.1722 15.1071C11.1643 15.0951 11.1542 15.0847 11.1423 15.0766C11.1304 15.0686 11.1171 15.0629 11.103 15.0599C11.089 15.057 11.0745 15.0569 11.0604 15.0595C11.0462 15.0622 11.0328 15.0676 11.0208 15.0755C11.0087 15.0833 10.9984 15.0935 10.9903 15.1054C10.9822 15.1172 10.9765 15.1306 10.9736 15.1446C10.9706 15.1587 10.9705 15.1732 10.9732 15.1873C10.9758 15.2014 10.9813 15.2149 10.9891 15.2269L11.4347 15.9078C11.4507 15.9318 11.4755 15.9485 11.5038 15.9543C11.532 15.9601 11.5614 15.9544 11.5856 15.9386C11.6097 15.9228 11.6266 15.8982 11.6326 15.8699C11.6386 15.8417 11.6333 15.8123 11.6177 15.788L11.1722 15.1071ZM8.65197 15.3142C8.63841 15.3094 8.62405 15.3074 8.60971 15.3082C8.59537 15.309 8.58133 15.3127 8.5684 15.3189C8.55546 15.3251 8.54388 15.3339 8.53431 15.3446C8.52475 15.3553 8.51739 15.3678 8.51266 15.3814L8.24422 16.1495C8.23923 16.1631 8.23699 16.1776 8.23764 16.1921C8.23829 16.2066 8.24182 16.2208 8.24801 16.2339C8.25421 16.247 8.26295 16.2588 8.27373 16.2685C8.28451 16.2782 8.29711 16.2857 8.31081 16.2904C8.3245 16.2952 8.339 16.2972 8.35348 16.2964C8.36796 16.2955 8.38212 16.2918 8.39514 16.2854C8.40816 16.279 8.41977 16.27 8.42931 16.2591C8.43884 16.2482 8.44611 16.2355 8.45069 16.2217L8.71913 15.4535C8.72387 15.44 8.72589 15.4256 8.72508 15.4113C8.72427 15.3969 8.72065 15.3829 8.71441 15.3699C8.70817 15.357 8.69945 15.3454 8.68874 15.3358C8.67802 15.3263 8.66553 15.3189 8.65197 15.3142ZM4.71607 3.7273L5.38816 4.18605C5.40001 4.1945 5.41342 4.2005 5.42762 4.2037C5.44181 4.2069 5.45651 4.20724 5.47083 4.20469C5.48516 4.20214 5.49884 4.19676 5.51106 4.18886C5.52328 4.18095 5.5338 4.17069 5.542 4.15868C5.55021 4.14666 5.55593 4.13312 5.55884 4.11886C5.56175 4.1046 5.56178 4.08991 5.55894 4.07564C5.55609 4.06136 5.55043 4.0478 5.54228 4.03575C5.53413 4.02369 5.52366 4.01338 5.51147 4.00543L4.83938 3.54665C4.82752 3.53831 4.81413 3.53242 4.79998 3.52931C4.78583 3.5262 4.7712 3.52593 4.75695 3.52852C4.74269 3.53111 4.72909 3.5365 4.71694 3.54439C4.70479 3.55228 4.69432 3.5625 4.68615 3.57447C4.67798 3.58644 4.67227 3.59991 4.66936 3.6141C4.66644 3.62829 4.66637 3.64292 4.66915 3.65714C4.67193 3.67136 4.67751 3.68488 4.68557 3.69693C4.69362 3.70897 4.70399 3.7193 4.71607 3.7273ZM7.63132 3.03108C7.63338 3.03108 7.63547 3.03102 7.63757 3.03093C7.65191 3.03012 7.66595 3.0265 7.6789 3.02026C7.69184 3.01403 7.70343 3.0053 7.713 2.99459C7.72257 2.98387 7.72993 2.97138 7.73467 2.95782C7.73942 2.94426 7.74144 2.92989 7.74063 2.91555L7.69491 2.10311C7.69328 2.07415 7.6802 2.04702 7.65857 2.02769C7.63693 2.00836 7.6085 1.99842 7.57953 2.00005C7.55057 2.00168 7.52344 2.01476 7.50411 2.03639C7.48478 2.05803 7.47484 2.08646 7.47647 2.11543L7.52222 2.92786C7.52379 2.95574 7.53597 2.98197 7.55625 3.00116C7.57654 3.02035 7.60339 3.03106 7.63132 3.03108Z" fill="#16A34A"/>
</g>
<defs>
<clipPath id="clip0_4093_5589">
<rect width="16" height="16" fill="white"/>
</clipPath>
</defs>
</svg>
